<?xml version="1.0" encoding="utf-8"?>
<!-- Generator: Adobe Illustrator 26.0.0, SVG Export Plug-In . SVG Version: 6.00 Build 0)  -->
<svg version="1.1" id="_x2018_ëîé_x5F_1" xmlns="http://www.w3.org/2000/svg" xmlns:xlink="http://www.w3.org/1999/xlink"
	 x="0px" y="0px" viewBox="0 0 510 510" style="enable-background:new 0 0 510 510;" xml:space="preserve">
<style type="text/css">
	.st0{fill-rule:evenodd;clip-rule:evenodd;fill:none;stroke:url(#SVGID_1_);stroke-width:13;stroke-miterlimit:10;}
	.st1{fill:none;stroke:url(#SVGID_00000016759182598490344970000012209182901796091288_);stroke-width:13;stroke-miterlimit:10;}
	.st2{fill:none;stroke:url(#SVGID_00000040553192484362242540000013248487760444468134_);stroke-width:13;stroke-miterlimit:10;}
	.st3{fill:none;stroke:url(#SVGID_00000147909115734677176360000014355111056215927988_);stroke-width:13;stroke-miterlimit:10;}
	.st4{fill:none;stroke:url(#SVGID_00000064344280908456521950000012185451288584058763_);stroke-width:13;stroke-miterlimit:10;}
	.st5{fill:none;stroke:url(#SVGID_00000181782640851923486920000008428482433079378862_);stroke-width:13;stroke-miterlimit:10;}
	.st6{fill:none;stroke:url(#SVGID_00000040544143791323500600000018073491962433404569_);stroke-width:13;stroke-miterlimit:10;}
	.st7{fill:url(#SVGID_00000167394638157559745600000012380780423498707896_);}
	.st8{fill:url(#SVGID_00000160872272533353093650000010342037381089904039_);}
	.st9{fill:url(#SVGID_00000135671664975630386040000016244400511923696301_);}
	.st10{fill:url(#SVGID_00000127745658103716529410000017232978978921682346_);}
	.st11{fill:url(#SVGID_00000132797214289942359290000014317510105875743903_);}
	.st12{fill:url(#SVGID_00000009581611881134259070000007205356677696353450_);}
	.st13{fill:url(#SVGID_00000075132923069562835520000007499910296913194166_);}
	.st14{fill:url(#SVGID_00000153703226532944919530000001552559919092759480_);}
	.st15{fill:url(#SVGID_00000087381213946915180480000014196119227713352603_);}
	.st16{fill:#FFFFFF;}
	.st17{fill:url(#SVGID_00000044140134736570823680000005507414084407897737_);}
	.st18{fill:url(#SVGID_00000163055095849236507740000000716305949393916053_);}
	.st19{fill:url(#SVGID_00000035505322665075732570000007047554259019569838_);}
	.st20{fill:url(#SVGID_00000087403931851314651470000004235959024909961131_);}
	.st21{fill:url(#SVGID_00000103244341308355526280000013326630455747358867_);}
	.st22{fill:url(#SVGID_00000086668192251639974470000011287228400107234972_);}
	.st23{fill:url(#SVGID_00000020392311736025134940000015573049458650915474_);}
	.st24{fill:url(#SVGID_00000047774427791863204390000001050728603667105689_);}
	.st25{fill:url(#SVGID_00000069399171623837809850000017961988097393038725_);}
	.st26{fill:url(#SVGID_00000102527094778021641580000012317717756484878271_);}
	.st27{fill:url(#SVGID_00000175322611277864226120000014881185692717374644_);}
	.st28{fill:url(#SVGID_00000161597850096954307450000010269440864427765896_);}
	.st29{fill:url(#SVGID_00000009588029907563528860000004692984330040363421_);}
	.st30{fill:url(#SVGID_00000026164085858496272490000000501515282197326482_);}
	.st31{fill:url(#SVGID_00000153700061968949927280000013640628854534136245_);}
	.st32{fill:url(#SVGID_00000145044203181616658800000000497468469994307469_);}
	.st33{fill:url(#SVGID_00000028283320326108049850000007870060897729551293_);}
	.st34{fill:url(#SVGID_00000137828493050192251550000008681266081351049113_);}
	.st35{fill:url(#SVGID_00000134244418299754497650000018391099556052113588_);}
	.st36{fill-rule:evenodd;clip-rule:evenodd;fill:url(#SVGID_00000059300607164220130700000006141429754345477529_);}
	.st37{fill-rule:evenodd;clip-rule:evenodd;fill:#FFFFFF;}
	.st38{fill:url(#SVGID_00000141446241708853383900000005937632637779832986_);}
	.st39{fill:url(#SVGID_00000121249571025238603990000011926778885869036181_);}
	.st40{fill:url(#SVGID_00000050657313056932463830000000094374145306291608_);}
	.st41{fill:url(#SVGID_00000118378795010876672810000004428703328412433085_);}
	.st42{fill:url(#SVGID_00000057133732749931375590000014682527808364213128_);}
	.st43{fill:url(#SVGID_00000008122685556382237530000008554334757397220787_);}
	.st44{fill:url(#SVGID_00000041266514975300875280000008808577189564456065_);}
	.st45{fill:url(#SVGID_00000016048157244143230090000003464173936897871542_);}
	.st46{fill:url(#SVGID_00000052786587972959528430000013765060406268969367_);}
	.st47{fill:url(#SVGID_00000106841807196766985520000007220574727870361993_);}
	.st48{fill:url(#SVGID_00000009577517469503725850000009360363585597599901_);}
	.st49{fill:url(#SVGID_00000075857966303119368840000006242096695838671498_);}
	.st50{fill:url(#SVGID_00000163048971309125554630000001936807206647751816_);}
	.st51{fill:url(#SVGID_00000144328337225484961120000004059729450085714599_);}
</style>
<g>
	<linearGradient id="SVGID_1_" gradientUnits="userSpaceOnUse" x1="-2533.1157" y1="-1679.829" x2="-2042.0104" y2="-1679.829">
		<stop  offset="5.586592e-03" style="stop-color:#001B5D"/>
		<stop  offset="0.9916" style="stop-color:#002B6B"/>
	</linearGradient>
	<path class="st0" d="M-2245.96-1918.88l8.99,56.07c15.12,4.18,29.48,10.15,42.85,17.68l46.26-31.98l58.79,58.7l-32.92,44.73
		c7.79,13.54,13.96,28.12,18.24,43.48l55.23,8.95v85.04l-55.07,7.69c-4.16,15.11-10.15,29.48-17.7,42.85l32.21,45.32l-58.79,59.28
		l-44.89-32.71c-13.88,7.97-28.86,14.26-44.65,18.58l-8.56,54.42h-83.72l-8.68-54.19c-15.8-4.25-30.79-10.46-44.7-18.35
		l-43.73,32.24l-60.72-59.28l19.35-26.3l-8.16-33.3l-13.92-30.57l-36.37-5.69v-85.04l53.69-8.76c4.27-15.37,10.42-29.96,18.2-43.5
		l-32.78-44.9l60.72-58.7l44.01,32.14c13.88-7.85,28.84-14.02,44.6-18.24l8.5-55.67H-2245.96L-2245.96-1918.88z M-2288.31-1817.46
		c-76.78,0-139.02,61.96-139.02,138.4c0,76.43,62.24,138.39,139.02,138.39c76.78,0,139.02-61.96,139.02-138.39
		C-2149.29-1755.5-2211.53-1817.46-2288.31-1817.46L-2288.31-1817.46z"/>
	
		<linearGradient id="SVGID_00000036214097231973977870000014216154652753164181_" gradientUnits="userSpaceOnUse" x1="-2424.4946" y1="-1689.314" x2="-2219.2224" y2="-1689.314">
		<stop  offset="5.586592e-03" style="stop-color:#001B5D"/>
		<stop  offset="0.9916" style="stop-color:#002B6B"/>
	</linearGradient>
	
		<polyline style="fill:none;stroke:url(#SVGID_00000036214097231973977870000014216154652753164181_);stroke-width:13;stroke-miterlimit:10;" points="
		-2420.63,-1657.07 -2356.88,-1704.18 -2310.82,-1663.44 -2222.79,-1721.35 	"/>
	
		<linearGradient id="SVGID_00000076564833187094161950000005191103256149610382_" gradientUnits="userSpaceOnUse" x1="-2259.0652" y1="-1708.6392" x2="-2207.6213" y2="-1708.6392">
		<stop  offset="5.586592e-03" style="stop-color:#001B5D"/>
		<stop  offset="0.9916" style="stop-color:#002B6B"/>
	</linearGradient>
	
		<polyline style="fill:none;stroke:url(#SVGID_00000076564833187094161950000005191103256149610382_);stroke-width:13;stroke-miterlimit:10;" points="
		-2259.07,-1726.04 -2217.14,-1726.04 -2232.37,-1687.1 	"/>
	
		<linearGradient id="SVGID_00000155849642387424090790000010662576007155968141_" gradientUnits="userSpaceOnUse" x1="-2379.0857" y1="-1612.5" x2="-2366.0857" y2="-1612.5">
		<stop  offset="5.586592e-03" style="stop-color:#001B5D"/>
		<stop  offset="0.9916" style="stop-color:#002B6B"/>
	</linearGradient>
	
		<line style="fill:none;stroke:url(#SVGID_00000155849642387424090790000010662576007155968141_);stroke-width:13;stroke-miterlimit:10;" x1="-2372.59" y1="-1648.16" x2="-2372.59" y2="-1576.84"/>
	
		<linearGradient id="SVGID_00000000932313789758711010000005304141018825797002_" gradientUnits="userSpaceOnUse" x1="-2320.5034" y1="-1573.5779" x2="-2307.3235" y2="-1573.5779">
		<stop  offset="5.586592e-03" style="stop-color:#001B5D"/>
		<stop  offset="0.9916" style="stop-color:#002B6B"/>
	</linearGradient>
	
		<line style="fill:none;stroke:url(#SVGID_00000000932313789758711010000005304141018825797002_);stroke-width:13;stroke-miterlimit:10;" x1="-2314" y1="-1600.74" x2="-2313.82" y2="-1546.42"/>
	
		<linearGradient id="SVGID_00000082358908129941722030000014615468529028104121_" gradientUnits="userSpaceOnUse" x1="-2264.9207" y1="-1593.5215" x2="-2251.7407" y2="-1593.5215">
		<stop  offset="5.586592e-03" style="stop-color:#001B5D"/>
		<stop  offset="0.9916" style="stop-color:#002B6B"/>
	</linearGradient>
	
		<line style="fill:none;stroke:url(#SVGID_00000082358908129941722030000014615468529028104121_);stroke-width:13;stroke-miterlimit:10;" x1="-2258.42" y1="-1637.79" x2="-2258.24" y2="-1549.25"/>
	
		<linearGradient id="SVGID_00000078723885193176423150000006026955427574393240_" gradientUnits="userSpaceOnUse" x1="-2206.5117" y1="-1617.9196" x2="-2193.3318" y2="-1617.9196">
		<stop  offset="5.586592e-03" style="stop-color:#001B5D"/>
		<stop  offset="0.9916" style="stop-color:#002B6B"/>
	</linearGradient>
	
		<line style="fill:none;stroke:url(#SVGID_00000078723885193176423150000006026955427574393240_);stroke-width:13;stroke-miterlimit:10;" x1="-2200.01" y1="-1662.19" x2="-2199.83" y2="-1573.65"/>
</g>
<g>
	
		<linearGradient id="SVGID_00000096768427746235212320000002722738697857757871_" gradientUnits="userSpaceOnUse" x1="5178.5854" y1="-2261.7483" x2="5430.896" y2="-2261.7483">
		<stop  offset="5.586592e-03" style="stop-color:#001B5D"/>
		<stop  offset="0.9916" style="stop-color:#002B6B"/>
	</linearGradient>
	<circle style="fill:url(#SVGID_00000096768427746235212320000002722738697857757871_);" cx="5304.74" cy="-2261.75" r="126.16"/>
	
		<linearGradient id="SVGID_00000032608067844169273960000003053685416208391574_" gradientUnits="userSpaceOnUse" x1="5137.6362" y1="-2046.5968" x2="5492.498" y2="-2046.5968">
		<stop  offset="5.586592e-03" style="stop-color:#001B5D"/>
		<stop  offset="0.9916" style="stop-color:#002B6B"/>
	</linearGradient>
	<path style="fill:url(#SVGID_00000032608067844169273960000003053685416208391574_);" d="M5492.5-2033.85v63.22h-282.41v-8.55
		c0-49.64-29.85-92.57-72.45-111.36c16.27-19.62,40.75-32.03,68.09-32.03h28.01c21.97,9.06,45.95,14.09,70.94,14.09
		c25.16,0,49.14-5.03,71.11-14.09h27.84C5452.58-2122.57,5492.5-2082.82,5492.5-2033.85z"/>
	
		<linearGradient id="SVGID_00000124842502989979250840000005626201431561696137_" gradientUnits="userSpaceOnUse" x1="4845.4917" y1="-2512.8977" x2="4903.5176" y2="-2512.8977">
		<stop  offset="5.586592e-03" style="stop-color:#001B5D"/>
		<stop  offset="0.9916" style="stop-color:#002B6B"/>
	</linearGradient>
	<path style="fill:url(#SVGID_00000124842502989979250840000005626201431561696137_);" d="M4903.52-2508.62
		c-19.79-1.51-39.24-3.69-58.03-6.37l3.52-2.18C4866.63-2513.82,4884.73-2510.97,4903.52-2508.62z"/>
	
		<linearGradient id="SVGID_00000155119343026218116330000008270011500968391847_" gradientUnits="userSpaceOnUse" x1="4903.5176" y1="-2507.2795" x2="4927.667" y2="-2507.2795">
		<stop  offset="5.586592e-03" style="stop-color:#001B5D"/>
		<stop  offset="0.9916" style="stop-color:#002B6B"/>
	</linearGradient>
	<path style="fill:url(#SVGID_00000155119343026218116330000008270011500968391847_);" d="M4927.67-2505.94
		c-8.22-0.67-16.27-1.68-24.15-2.68c7.71,0.67,15.6,1.17,23.48,1.68L4927.67-2505.94z"/>
	
		<linearGradient id="SVGID_00000023245319451080442430000015808266607738138005_" gradientUnits="userSpaceOnUse" x1="4546.8662" y1="-2631.1958" x2="5430.9004" y2="-2631.1958">
		<stop  offset="5.586592e-03" style="stop-color:#001B5D"/>
		<stop  offset="0.9916" style="stop-color:#002B6B"/>
	</linearGradient>
	<path style="fill:url(#SVGID_00000023245319451080442430000015808266607738138005_);" d="M5430.9-2683.83
		c0-98.67-197.9-178.66-442.02-178.66c-244.12,0-442.02,79.99-442.02,178.66c0,56.73,65.48,107.24,167.48,139.97l-31.23,98.31
		l118.44-76.45c39.04,7.4,81.17,12.54,125.43,15.05l61.91,107.05c0,0,53.09-91.81,61.91-107.05c44.25-2.51,86.39-7.66,125.43-15.05
		l118.44,76.45l-31.23-98.31C5365.42-2576.6,5430.9-2627.11,5430.9-2683.83z M4832.52-2707.68l-17.91,17.45
		c-3.18,3.1-4.63,7.56-3.88,11.93l4.23,24.64c1.89,11.01-9.67,19.41-19.56,14.21l-22.13-11.63c-3.93-2.06-8.62-2.06-12.54,0
		l-22.13,11.63c-9.89,5.2-21.45-3.2-19.56-14.21l4.23-24.64c0.75-4.37-0.7-8.83-3.88-11.93l-17.91-17.45
		c-8-7.8-3.58-21.39,7.47-22.99l24.74-3.6c4.39-0.64,8.19-3.4,10.15-7.37l11.07-22.42c4.94-10.02,19.23-10.02,24.17,0l11.07,22.42
		c1.96,3.98,5.76,6.74,10.15,7.37l24.74,3.6C4836.1-2729.06,4840.52-2715.48,4832.52-2707.68z M5083.97-2688.13l-25.99,25.33
		c-4.61,4.49-6.72,10.97-5.63,17.32l6.13,35.77c2.74,15.98-14.03,28.17-28.38,20.62l-32.12-16.89c-5.7-3-12.51-3-18.21,0
		l-32.12,16.89c-14.35,7.55-31.13-4.64-28.38-20.62l6.13-35.77c1.09-6.35-1.01-12.82-5.63-17.32l-25.99-25.33
		c-11.61-11.32-5.2-31.04,10.84-33.37l35.91-5.22c6.37-0.93,11.88-4.93,14.73-10.7l16.06-32.54c7.17-14.54,27.91-14.54,35.08,0
		l16.06,32.54c2.85,5.77,8.36,9.77,14.73,10.7l35.91,5.22C5089.17-2719.16,5095.58-2699.44,5083.97-2688.13z M5276.29-2707.68
		l-17.91,17.45c-3.18,3.1-4.63,7.56-3.88,11.93l4.23,24.64c1.89,11.01-9.67,19.41-19.56,14.21l-22.13-11.63
		c-3.93-2.06-8.62-2.06-12.54,0l-22.13,11.63c-9.89,5.2-21.45-3.2-19.56-14.21l4.23-24.64c0.75-4.37-0.7-8.83-3.88-11.93
		l-17.91-17.45c-8-7.8-3.58-21.39,7.47-22.99l24.74-3.6c4.39-0.64,8.19-3.4,10.15-7.37l11.07-22.42c4.94-10.02,19.23-10.02,24.17,0
		l11.07,22.42c1.96,3.98,5.76,6.74,10.15,7.37l24.74,3.6C5279.87-2729.06,5284.29-2715.48,5276.29-2707.68z"/>
	
		<linearGradient id="SVGID_00000059269955707699472730000014482807567288908694_" gradientUnits="userSpaceOnUse" x1="4547.3101" y1="-2261.2244" x2="4799.6211" y2="-2261.2244">
		<stop  offset="5.586592e-03" style="stop-color:#001B5D"/>
		<stop  offset="0.9916" style="stop-color:#002B6B"/>
	</linearGradient>
	<circle style="fill:url(#SVGID_00000059269955707699472730000014482807567288908694_);" cx="4673.47" cy="-2261.22" r="126.16"/>
	
		<linearGradient id="SVGID_00000127006066569546428120000010792143986891830951_" gradientUnits="userSpaceOnUse" x1="4485.7715" y1="-2046.0936" x2="4839.9619" y2="-2046.0936">
		<stop  offset="5.586592e-03" style="stop-color:#001B5D"/>
		<stop  offset="0.9916" style="stop-color:#002B6B"/>
	</linearGradient>
	<path style="fill:url(#SVGID_00000127006066569546428120000010792143986891830951_);" d="M4839.96-2090.54
		c-42.6,18.95-72.28,61.71-72.28,111.36v9.06h-281.91v-63.22c0-48.97,39.75-88.72,88.72-88.72h28.01
		c21.8,9.06,45.78,14.09,70.94,14.09c25.16,0,49.14-5.03,71.11-14.09h27.84C4799.55-2122.06,4823.86-2109.82,4839.96-2090.54z"/>
	
		<linearGradient id="SVGID_00000000929445171107620830000005044775058116064444_" gradientUnits="userSpaceOnUse" x1="4862.7275" y1="-2207.165" x2="5115.0386" y2="-2207.165">
		<stop  offset="5.586592e-03" style="stop-color:#001B5D"/>
		<stop  offset="0.9916" style="stop-color:#002B6B"/>
	</linearGradient>
	<circle style="fill:url(#SVGID_00000000929445171107620830000005044775058116064444_);" cx="4988.88" cy="-2207.17" r="126.16"/>
	
		<linearGradient id="SVGID_00000021087019098635383540000015967925314518604219_" gradientUnits="userSpaceOnUse" x1="4801.1807" y1="-1991.9755" x2="5176.5776" y2="-1991.9755">
		<stop  offset="5.586592e-03" style="stop-color:#001B5D"/>
		<stop  offset="0.9916" style="stop-color:#002B6B"/>
	</linearGradient>
	<path style="fill:url(#SVGID_00000021087019098635383540000015967925314518604219_);" d="M5176.58-1979.21v63.22h-375.4v-63.22
		c0-49.11,39.79-88.74,88.74-88.74h27.96c21.89,9.02,45.85,14.05,71,14.05c25.14,0,49.11-5.03,71-14.05h27.96
		C5136.79-2067.96,5176.58-2028.32,5176.58-1979.21z"/>
</g>
<g>
	<g>
		<g>
			<path class="st16" d="M415.21,456.42c-23.24,0-42.08-19.18-42.08-42.85c0-23.66,18.84-42.85,42.08-42.85s42.08,19.18,42.08,42.85
				C457.29,437.23,438.27,456.42,415.21,456.42z M415.21,383.99c-16.02,0-29.05,13.27-29.05,29.58c0,16.31,13.03,29.58,29.05,29.58
				s29.05-13.27,29.05-29.58C444.26,397.26,431.23,383.99,415.21,383.99z"/>
		</g>
		<g>
			<path class="st16" d="M421.9,505h-13.38c-5.63,0-10.21-4.3-10.92-10.4l-1.23-9.5c-6.16-1.61-11.97-4.12-17.61-7.35l-7.39,5.92
				c-4.58,3.76-10.92,3.59-14.96-0.54l-9.51-9.68c-3.87-3.94-4.23-10.4-0.53-15.24l5.81-7.53c-3.17-5.56-5.63-11.65-7.22-17.93
				l-9.33-1.25c-5.81-0.72-10.21-5.38-10.21-11.12v-13.62c0-5.74,4.23-10.4,10.21-11.12l9.33-1.25c1.58-6.27,4.05-12.19,7.22-17.93
				l-5.81-7.53c-3.7-4.66-3.35-11.12,0.53-15.24l9.51-9.68c3.87-3.94,10.21-4.3,14.96-0.54l7.39,5.92
				c5.46-3.23,11.44-5.74,17.61-7.35l1.23-9.5c0.7-5.92,5.28-10.4,10.92-10.4h13.38c5.63,0,10.21,4.3,10.92,10.4l1.23,9.5
				c6.16,1.61,11.97,4.12,17.61,7.35l7.39-5.92c4.58-3.76,10.92-3.41,14.96,0.54l9.51,9.68c3.87,3.94,4.23,10.4,0.53,15.24
				l-5.81,7.53c3.17,5.56,5.63,11.65,7.22,17.93l9.33,1.25c5.81,0.72,10.21,5.38,10.21,11.12v13.62c0,5.74-4.23,10.4-10.21,11.12
				l-9.33,1.25c-1.58,6.27-4.05,12.19-7.22,17.93l5.81,7.53c3.7,4.66,3.52,11.12-0.53,15.24l-9.68,9.68
				c-3.87,3.94-10.21,4.3-14.96,0.54l-7.39-5.92c-5.46,3.23-11.44,5.74-17.61,7.35l-1.23,9.5C432.11,500.52,427.54,505,421.9,505z
				 M410.28,491.73h9.86l1.58-12.91c0.35-2.87,2.46-5.2,5.11-5.74c7.75-1.61,14.96-4.66,21.48-9.14c2.29-1.61,5.46-1.43,7.57,0.36
				l10.04,8.07l6.87-6.99l-7.92-10.22c-1.76-2.33-1.76-5.38-0.35-7.71c4.4-6.63,7.39-13.98,8.98-21.87c0.53-2.87,2.82-5.02,5.63-5.2
				l12.68-1.61v-10.04l-12.68-1.61c-2.82-0.36-5.11-2.51-5.63-5.2c-1.58-7.89-4.58-15.24-8.98-21.87c-1.58-2.33-1.41-5.56,0.35-7.71
				l7.92-10.22l-6.87-6.99l-10.04,8.07c-2.29,1.79-5.28,1.79-7.57,0.36c-6.51-4.48-13.73-7.53-21.48-9.14
				c-2.82-0.54-4.93-2.87-5.11-5.74l-1.58-12.91h-9.86l-1.58,12.91c-0.35,2.87-2.46,5.2-5.11,5.74c-7.75,1.61-14.96,4.66-21.48,9.14
				c-2.29,1.61-5.46,1.43-7.57-0.36l-10.04-8.07l-6.87,6.99l7.92,10.22c1.76,2.33,1.76,5.38,0.35,7.71
				c-4.4,6.63-7.39,13.98-8.98,21.87c-0.53,2.87-2.82,5.02-5.63,5.2l-12.68,1.61v10.04l12.68,1.61c2.82,0.36,5.11,2.51,5.63,5.2
				c1.58,7.89,4.58,15.24,8.98,21.87c1.58,2.33,1.41,5.56-0.35,7.71l-7.92,10.22l6.87,6.99l10.04-8.07
				c2.29-1.79,5.28-1.79,7.57-0.36c6.51,4.48,13.73,7.53,21.48,9.14c2.82,0.54,4.93,2.87,5.11,5.74L410.28,491.73z"/>
		</g>
		<g>
			<path class="st16" d="M124.72,154.7H70.14c-3.52,0-6.51-3.05-6.51-6.63c0-10.4-2.99-14.16-7.22-19.36
				c-4.93-6.1-11.09-13.62-11.09-31.73c0-29.22,23.42-53.07,52.11-53.07s52.11,23.84,52.11,53.07c0,17.93-6.16,25.64-11.09,31.73
				c-4.23,5.2-7.22,8.96-7.22,19.36C131.06,151.65,128.24,154.7,124.72,154.7z M76.3,141.43h42.25c1.41-10.58,5.81-16.13,9.86-21.15
				c4.4-5.38,8.1-10.04,8.1-23.13c0-22.05-17.61-39.98-39.26-39.98S57.99,75.1,57.99,97.15c0,13.27,3.87,17.75,8.1,23.13
				C70.49,125.29,74.89,130.67,76.3,141.43z"/>
		</g>
		<g>
			<path class="st16" d="M111.69,192.7h-28.7c-7.04,0-12.85-5.92-12.85-13.09v-11.47c0-3.59,2.99-6.63,6.51-6.63h41.37
				c3.52,0,6.51,3.05,6.51,6.63v11.47C124.54,186.79,118.73,192.7,111.69,192.7z M83.17,179.44h28.35v-4.66H83.17V179.44z"/>
		</g>
		<g>
			<path class="st16" d="M97.43,34.76c-3.52,0-6.51-3.05-6.51-6.63V11.63c0-3.59,2.99-6.63,6.51-6.63c3.52,0,6.51,3.05,6.51,6.63
				v16.49C103.94,31.71,100.95,34.76,97.43,34.76z"/>
		</g>
		<g>
			<path class="st16" d="M132.29,44.26c-1.06,0-2.29-0.36-3.17-0.9c-3.17-1.79-4.23-5.92-2.46-8.96l8.1-14.34
				c1.76-3.23,5.81-4.3,8.8-2.51c3.17,1.79,4.23,5.92,2.46,8.96l-8.1,14.34C136.69,43.01,134.4,44.26,132.29,44.26z"/>
		</g>
		<g>
			<path class="st16" d="M157.64,70.08c-2.29,0-4.4-1.25-5.63-3.23c-1.76-3.23-0.7-7.17,2.46-8.96l14.08-8.25
				c3.17-1.79,7.04-0.72,8.8,2.51c1.76,3.23,0.7,7.17-2.46,8.96l-14.08,8.25C159.93,69.9,158.87,70.08,157.64,70.08z"/>
		</g>
		<g>
			<path class="st16" d="M183.17,105.57h-16.2c-3.52,0-6.51-3.05-6.51-6.63c0-3.59,2.99-6.63,6.51-6.63h16.2
				c3.52,0,6.51,3.05,6.51,6.63C189.68,102.53,186.87,105.57,183.17,105.57z"/>
		</g>
		<g>
			<path class="st16" d="M62.57,44.26c-2.29,0-4.4-1.25-5.63-3.23l-8.1-14.34c-1.76-3.23-0.7-7.17,2.46-8.96s7.04-0.72,8.8,2.51
				l8.1,14.34c1.76,3.23,0.7,7.17-2.46,8.96C64.86,43.9,63.63,44.26,62.57,44.26z"/>
		</g>
		<g>
			<path class="st16" d="M37.04,70.08c-1.06,0-2.29-0.36-3.17-0.9l-14.08-8.25c-3.17-1.79-4.23-5.92-2.46-8.96
				c1.76-3.23,5.81-4.3,8.8-2.51l14.08,8.25c3.17,1.79,4.23,5.92,2.46,8.96C41.62,69,39.33,70.08,37.04,70.08z"/>
		</g>
		<g>
			<path class="st16" d="M27.71,105.57h-16.2c-3.52,0-6.51-3.05-6.51-6.63c0-3.59,2.99-6.63,6.51-6.63h16.2
				c3.52,0,6.51,3.05,6.51,6.63C34.23,102.53,31.41,105.57,27.71,105.57z"/>
		</g>
		<g>
			<path class="st16" d="M126.83,174.77h-58.8c-3.52,0-6.51-3.05-6.51-6.63v-20.08c0-3.59,2.99-6.63,6.51-6.63h58.8
				c3.52,0,6.51,3.05,6.51,6.63v20.08C133.35,171.73,130.35,174.77,126.83,174.77z M74.54,161.51h45.77v-6.81H74.54V161.51z"/>
		</g>
		<g>
			<path class="st16" d="M97.43,154.7c-3.52,0-6.51-3.05-6.51-6.63v-40.52c0-3.59,2.99-6.63,6.51-6.63c3.52,0,6.51,3.05,6.51,6.63
				v40.52C103.94,151.65,100.95,154.7,97.43,154.7z"/>
		</g>
		<g>
			<path class="st16" d="M97.43,114.18c-10.74,0-19.54-8.96-19.54-19.9s8.8-19.9,19.54-19.9s19.54,8.96,19.54,19.9
				S108.17,114.18,97.43,114.18z M97.43,87.29c-3.7,0-6.69,3.05-6.69,6.81c0,3.76,2.99,6.81,6.69,6.81c3.7,0,6.69-3.05,6.69-6.81
				C104.12,90.34,101.13,87.29,97.43,87.29z"/>
		</g>
		<g>
			<path class="st16" d="M333.7,346.34H188.1c-8.63,0-15.67-7.17-15.67-15.96V185.71c0-8.78,7.04-15.96,15.67-15.96h145.6
				c8.63,0,15.67,7.17,15.67,15.96v144.68C349.37,339.17,342.32,346.34,333.7,346.34z M188.1,183.02c-1.41,0-2.64,1.25-2.64,2.69
				v144.68c0,1.43,1.23,2.69,2.64,2.69h145.6c1.41,0,2.64-1.25,2.64-2.69V185.71c0-1.43-1.23-2.69-2.64-2.69H188.1L188.1,183.02z"/>
		</g>
		<g>
			<path class="st16" d="M282.11,251.15c-2.11,0-4.05-0.9-5.28-2.69l-15.85-21.87l-15.85,21.87c-1.58,2.33-4.58,3.23-7.22,2.33
				c-2.64-0.9-4.4-3.41-4.4-6.27v-68.12c0-3.59,2.99-6.63,6.51-6.63h42.08c3.52,0,6.51,3.05,6.51,6.63v68.12
				c0,2.87-1.76,5.38-4.4,6.27C283.35,250.97,282.64,251.15,282.11,251.15z M246.37,183.02v41.41l9.33-12.91
				c1.23-1.61,3.17-2.69,5.28-2.69l0,0c2.11,0,4.05,1.08,5.28,2.69l9.33,12.91v-41.41H246.37z"/>
		</g>
		<g>
			<path class="st16" d="M260.11,473.99c-117.08,0-212.15-96.99-212.15-216.03c0-19.18,2.46-38.36,7.39-56.83
				c0.88-3.59,4.58-5.56,7.92-4.66c3.52,0.9,5.46,4.66,4.58,8.07c-4.58,17.39-7.04,35.32-7.04,53.42
				c0,111.87,89.44,202.94,199.3,202.94c21.13,0,41.9-3.41,61.8-10.04c3.35-1.08,7.04,0.72,8.1,4.3c1.06,3.41-0.7,7.17-4.23,8.25
				C304.65,470.4,282.46,473.99,260.11,473.99z M459.75,314.61c-0.53,0-1.06,0-1.58-0.18c-3.52-0.9-5.63-4.48-4.75-8.07
				c3.87-15.78,5.81-32.09,5.81-48.4c0-111.87-89.44-202.94-199.3-202.94c-16.02,0-32.04,1.97-47.54,5.92
				c-3.52,0.9-7.04-1.25-7.92-4.84s1.23-7.17,4.75-8.07c16.55-4.12,33.63-6.27,50.7-6.27c117.08,0,212.15,96.99,212.15,216.03
				c0,17.39-2.11,34.78-6.16,51.63C465.39,312.46,462.75,314.61,459.75,314.61z"/>
		</g>
		<g>
			<path class="st16" d="M459.75,314.61c-0.53,0-1.06,0-1.76-0.18c-2.29-0.54-4.05-2.33-4.58-4.66l-12.32-46.79
				c-0.88-3.59,1.06-7.17,4.58-8.07c3.52-0.9,7.04,1.08,7.92,4.66l9.33,35.68l25.7-26.17c2.46-2.51,6.69-2.51,9.15,0
				c2.46,2.51,2.46,6.81,0,9.32l-33.63,34.24C463.1,313.89,461.51,314.61,459.75,314.61z"/>
		</g>
		<g>
			<path class="st16" d="M73.84,256.17c-2.82,0-5.46-1.97-6.34-4.84l-9.33-35.68l-25.7,26.17c-2.46,2.51-6.69,2.51-9.15,0
				c-2.46-2.51-2.46-6.81,0-9.32l33.63-34.24c1.58-1.61,4.05-2.33,6.34-1.79s4.05,2.33,4.58,4.66l12.32,46.79
				c0.88,3.59-1.06,7.17-4.58,8.07C75.07,256.17,74.37,256.17,73.84,256.17z"/>
		</g>
	</g>
	<g>
		<g>
			
				<linearGradient id="SVGID_00000027581750415540006330000000855221869156469652_" gradientUnits="userSpaceOnUse" x1="5" y1="255" x2="505" y2="255">
				<stop  offset="5.586592e-03" style="stop-color:#001B5D"/>
				<stop  offset="0.9916" style="stop-color:#002B6B"/>
			</linearGradient>
			<path style="fill:url(#SVGID_00000027581750415540006330000000855221869156469652_);" d="M415.21,456.42
				c-23.24,0-42.08-19.18-42.08-42.85c0-23.66,18.84-42.85,42.08-42.85s42.08,19.18,42.08,42.85
				C457.29,437.23,438.27,456.42,415.21,456.42z M415.21,383.99c-16.02,0-29.05,13.27-29.05,29.58c0,16.31,13.03,29.58,29.05,29.58
				s29.05-13.27,29.05-29.58C444.26,397.26,431.23,383.99,415.21,383.99z"/>
		</g>
		<g>
			
				<linearGradient id="SVGID_00000030462320165186846730000013639406892822921146_" gradientUnits="userSpaceOnUse" x1="5" y1="255" x2="505" y2="255">
				<stop  offset="5.586592e-03" style="stop-color:#001B5D"/>
				<stop  offset="0.9916" style="stop-color:#002B6B"/>
			</linearGradient>
			<path style="fill:url(#SVGID_00000030462320165186846730000013639406892822921146_);" d="M421.9,505h-13.38
				c-5.63,0-10.21-4.3-10.92-10.4l-1.23-9.5c-6.16-1.61-11.97-4.12-17.61-7.35l-7.39,5.92c-4.58,3.76-10.92,3.59-14.96-0.54
				l-9.51-9.68c-3.87-3.94-4.23-10.4-0.53-15.24l5.81-7.53c-3.17-5.56-5.63-11.65-7.22-17.93l-9.33-1.25
				c-5.81-0.72-10.21-5.38-10.21-11.12v-13.62c0-5.74,4.23-10.4,10.21-11.12l9.33-1.25c1.58-6.27,4.05-12.19,7.22-17.93l-5.81-7.53
				c-3.7-4.66-3.35-11.12,0.53-15.24l9.51-9.68c3.87-3.94,10.21-4.3,14.96-0.54l7.39,5.92c5.46-3.23,11.44-5.74,17.61-7.35l1.23-9.5
				c0.7-5.92,5.28-10.4,10.92-10.4h13.38c5.63,0,10.21,4.3,10.92,10.4l1.23,9.5c6.16,1.61,11.97,4.12,17.61,7.35l7.39-5.92
				c4.58-3.76,10.92-3.41,14.96,0.54l9.51,9.68c3.87,3.94,4.23,10.4,0.53,15.24l-5.81,7.53c3.17,5.56,5.63,11.65,7.22,17.93
				l9.33,1.25c5.81,0.72,10.21,5.38,10.21,11.12v13.62c0,5.74-4.23,10.4-10.21,11.12l-9.33,1.25c-1.58,6.27-4.05,12.19-7.22,17.93
				l5.81,7.53c3.7,4.66,3.52,11.12-0.53,15.24l-9.68,9.68c-3.87,3.94-10.21,4.3-14.96,0.54l-7.39-5.92
				c-5.46,3.23-11.44,5.74-17.61,7.35l-1.23,9.5C432.11,500.52,427.54,505,421.9,505z M410.28,491.73h9.86l1.58-12.91
				c0.35-2.87,2.46-5.2,5.11-5.74c7.75-1.61,14.96-4.66,21.48-9.14c2.29-1.61,5.46-1.43,7.57,0.36l10.04,8.07l6.87-6.99l-7.92-10.22
				c-1.76-2.33-1.76-5.38-0.35-7.71c4.4-6.63,7.39-13.98,8.98-21.87c0.53-2.87,2.82-5.02,5.63-5.2l12.68-1.61v-10.04l-12.68-1.61
				c-2.82-0.36-5.11-2.51-5.63-5.2c-1.58-7.89-4.58-15.24-8.98-21.87c-1.58-2.33-1.41-5.56,0.35-7.71l7.92-10.22l-6.87-6.99
				l-10.04,8.07c-2.29,1.79-5.28,1.79-7.57,0.36c-6.51-4.48-13.73-7.53-21.48-9.14c-2.82-0.54-4.93-2.87-5.11-5.74l-1.58-12.91
				h-9.86l-1.58,12.91c-0.35,2.87-2.46,5.2-5.11,5.74c-7.75,1.61-14.96,4.66-21.48,9.14c-2.29,1.61-5.46,1.43-7.57-0.36l-10.04-8.07
				l-6.87,6.99l7.92,10.22c1.76,2.33,1.76,5.38,0.35,7.71c-4.4,6.63-7.39,13.98-8.98,21.87c-0.53,2.87-2.82,5.02-5.63,5.2
				l-12.68,1.61v10.04l12.68,1.61c2.82,0.36,5.11,2.51,5.63,5.2c1.58,7.89,4.58,15.24,8.98,21.87c1.58,2.33,1.41,5.56-0.35,7.71
				l-7.92,10.22l6.87,6.99l10.04-8.07c2.29-1.79,5.28-1.79,7.57-0.36c6.51,4.48,13.73,7.53,21.48,9.14
				c2.82,0.54,4.93,2.87,5.11,5.74L410.28,491.73z"/>
		</g>
		<g>
			
				<linearGradient id="SVGID_00000152224980216438088870000001498326143339964586_" gradientUnits="userSpaceOnUse" x1="5" y1="255" x2="505" y2="255">
				<stop  offset="5.586592e-03" style="stop-color:#001B5D"/>
				<stop  offset="0.9916" style="stop-color:#002B6B"/>
			</linearGradient>
			<path style="fill:url(#SVGID_00000152224980216438088870000001498326143339964586_);" d="M124.72,154.7H70.14
				c-3.52,0-6.51-3.05-6.51-6.63c0-10.4-2.99-14.16-7.22-19.36c-4.93-6.1-11.09-13.62-11.09-31.73c0-29.22,23.42-53.07,52.11-53.07
				s52.11,23.84,52.11,53.07c0,17.93-6.16,25.64-11.09,31.73c-4.23,5.2-7.22,8.96-7.22,19.36
				C131.06,151.65,128.24,154.7,124.72,154.7z M76.3,141.43h42.25c1.41-10.58,5.81-16.13,9.86-21.15c4.4-5.38,8.1-10.04,8.1-23.13
				c0-22.05-17.61-39.98-39.26-39.98S57.99,75.1,57.99,97.15c0,13.27,3.87,17.75,8.1,23.13C70.49,125.29,74.89,130.67,76.3,141.43z"
				/>
		</g>
		<g>
			
				<linearGradient id="SVGID_00000132767481800810724420000018379976574894159754_" gradientUnits="userSpaceOnUse" x1="5" y1="255" x2="505" y2="255">
				<stop  offset="5.586592e-03" style="stop-color:#001B5D"/>
				<stop  offset="0.9916" style="stop-color:#002B6B"/>
			</linearGradient>
			<path style="fill:url(#SVGID_00000132767481800810724420000018379976574894159754_);" d="M111.69,192.7h-28.7
				c-7.04,0-12.85-5.92-12.85-13.09v-11.47c0-3.59,2.99-6.63,6.51-6.63h41.37c3.52,0,6.51,3.05,6.51,6.63v11.47
				C124.54,186.79,118.73,192.7,111.69,192.7z M83.17,179.44h28.35v-4.66H83.17V179.44z"/>
		</g>
		<g>
			
				<linearGradient id="SVGID_00000172408584726806200290000007136414726957370758_" gradientUnits="userSpaceOnUse" x1="5" y1="255" x2="505" y2="255">
				<stop  offset="5.586592e-03" style="stop-color:#001B5D"/>
				<stop  offset="0.9916" style="stop-color:#002B6B"/>
			</linearGradient>
			<path style="fill:url(#SVGID_00000172408584726806200290000007136414726957370758_);" d="M97.43,34.76
				c-3.52,0-6.51-3.05-6.51-6.63V11.63c0-3.59,2.99-6.63,6.51-6.63c3.52,0,6.51,3.05,6.51,6.63v16.49
				C103.94,31.71,100.95,34.76,97.43,34.76z"/>
		</g>
		<g>
			
				<linearGradient id="SVGID_00000127730195558164865440000015271939329891189122_" gradientUnits="userSpaceOnUse" x1="5" y1="255" x2="505" y2="255">
				<stop  offset="5.586592e-03" style="stop-color:#001B5D"/>
				<stop  offset="0.9916" style="stop-color:#002B6B"/>
			</linearGradient>
			<path style="fill:url(#SVGID_00000127730195558164865440000015271939329891189122_);" d="M132.29,44.26
				c-1.06,0-2.29-0.36-3.17-0.9c-3.17-1.79-4.23-5.92-2.46-8.96l8.1-14.34c1.76-3.23,5.81-4.3,8.8-2.51
				c3.17,1.79,4.23,5.92,2.46,8.96l-8.1,14.34C136.69,43.01,134.4,44.26,132.29,44.26z"/>
		</g>
		<g>
			
				<linearGradient id="SVGID_00000038375013203662633640000008755100745705793675_" gradientUnits="userSpaceOnUse" x1="5" y1="255" x2="505" y2="255">
				<stop  offset="5.586592e-03" style="stop-color:#001B5D"/>
				<stop  offset="0.9916" style="stop-color:#002B6B"/>
			</linearGradient>
			<path style="fill:url(#SVGID_00000038375013203662633640000008755100745705793675_);" d="M157.64,70.08
				c-2.29,0-4.4-1.25-5.63-3.23c-1.76-3.23-0.7-7.17,2.46-8.96l14.08-8.25c3.17-1.79,7.04-0.72,8.8,2.51
				c1.76,3.23,0.7,7.17-2.46,8.96l-14.08,8.25C159.93,69.9,158.87,70.08,157.64,70.08z"/>
		</g>
		<g>
			
				<linearGradient id="SVGID_00000016053625350717724900000014336367742740042116_" gradientUnits="userSpaceOnUse" x1="5" y1="255" x2="505" y2="255">
				<stop  offset="5.586592e-03" style="stop-color:#001B5D"/>
				<stop  offset="0.9916" style="stop-color:#002B6B"/>
			</linearGradient>
			<path style="fill:url(#SVGID_00000016053625350717724900000014336367742740042116_);" d="M183.17,105.57h-16.2
				c-3.52,0-6.51-3.05-6.51-6.63c0-3.59,2.99-6.63,6.51-6.63h16.2c3.52,0,6.51,3.05,6.51,6.63
				C189.68,102.53,186.87,105.57,183.17,105.57z"/>
		</g>
		<g>
			
				<linearGradient id="SVGID_00000112608596404302256440000009777473266626698677_" gradientUnits="userSpaceOnUse" x1="5" y1="255" x2="505" y2="255">
				<stop  offset="5.586592e-03" style="stop-color:#001B5D"/>
				<stop  offset="0.9916" style="stop-color:#002B6B"/>
			</linearGradient>
			<path style="fill:url(#SVGID_00000112608596404302256440000009777473266626698677_);" d="M62.57,44.26
				c-2.29,0-4.4-1.25-5.63-3.23l-8.1-14.34c-1.76-3.23-0.7-7.17,2.46-8.96s7.04-0.72,8.8,2.51l8.1,14.34
				c1.76,3.23,0.7,7.17-2.46,8.96C64.86,43.9,63.63,44.26,62.57,44.26z"/>
		</g>
		<g>
			
				<linearGradient id="SVGID_00000088115422646028155440000015328320127200629378_" gradientUnits="userSpaceOnUse" x1="5" y1="255" x2="505" y2="255">
				<stop  offset="5.586592e-03" style="stop-color:#001B5D"/>
				<stop  offset="0.9916" style="stop-color:#002B6B"/>
			</linearGradient>
			<path style="fill:url(#SVGID_00000088115422646028155440000015328320127200629378_);" d="M37.04,70.08
				c-1.06,0-2.29-0.36-3.17-0.9l-14.08-8.25c-3.17-1.79-4.23-5.92-2.46-8.96c1.76-3.23,5.81-4.3,8.8-2.51l14.08,8.25
				c3.17,1.79,4.23,5.92,2.46,8.96C41.62,69,39.33,70.08,37.04,70.08z"/>
		</g>
		<g>
			
				<linearGradient id="SVGID_00000138555122957890675480000017689177728867213739_" gradientUnits="userSpaceOnUse" x1="5" y1="255" x2="505" y2="255">
				<stop  offset="5.586592e-03" style="stop-color:#001B5D"/>
				<stop  offset="0.9916" style="stop-color:#002B6B"/>
			</linearGradient>
			<path style="fill:url(#SVGID_00000138555122957890675480000017689177728867213739_);" d="M27.71,105.57h-16.2
				c-3.52,0-6.51-3.05-6.51-6.63c0-3.59,2.99-6.63,6.51-6.63h16.2c3.52,0,6.51,3.05,6.51,6.63
				C34.23,102.53,31.41,105.57,27.71,105.57z"/>
		</g>
		<g>
			
				<linearGradient id="SVGID_00000147939022754900031080000006038404899205732768_" gradientUnits="userSpaceOnUse" x1="5" y1="255" x2="505" y2="255">
				<stop  offset="5.586592e-03" style="stop-color:#001B5D"/>
				<stop  offset="0.9916" style="stop-color:#002B6B"/>
			</linearGradient>
			<path style="fill:url(#SVGID_00000147939022754900031080000006038404899205732768_);" d="M126.83,174.77h-58.8
				c-3.52,0-6.51-3.05-6.51-6.63v-20.08c0-3.59,2.99-6.63,6.51-6.63h58.8c3.52,0,6.51,3.05,6.51,6.63v20.08
				C133.35,171.73,130.35,174.77,126.83,174.77z M74.54,161.51h45.77v-6.81H74.54V161.51z"/>
		</g>
		<g>
			
				<linearGradient id="SVGID_00000160191743584459113330000009553542288582624932_" gradientUnits="userSpaceOnUse" x1="5" y1="255" x2="505" y2="255">
				<stop  offset="5.586592e-03" style="stop-color:#001B5D"/>
				<stop  offset="0.9916" style="stop-color:#002B6B"/>
			</linearGradient>
			<path style="fill:url(#SVGID_00000160191743584459113330000009553542288582624932_);" d="M97.43,154.7
				c-3.52,0-6.51-3.05-6.51-6.63v-40.52c0-3.59,2.99-6.63,6.51-6.63c3.52,0,6.51,3.05,6.51,6.63v40.52
				C103.94,151.65,100.95,154.7,97.43,154.7z"/>
		</g>
		<g>
			
				<linearGradient id="SVGID_00000027584841986409765860000012980742058243681922_" gradientUnits="userSpaceOnUse" x1="5" y1="255" x2="505" y2="255">
				<stop  offset="5.586592e-03" style="stop-color:#001B5D"/>
				<stop  offset="0.9916" style="stop-color:#002B6B"/>
			</linearGradient>
			<path style="fill:url(#SVGID_00000027584841986409765860000012980742058243681922_);" d="M97.43,114.18
				c-10.74,0-19.54-8.96-19.54-19.9s8.8-19.9,19.54-19.9s19.54,8.96,19.54,19.9S108.17,114.18,97.43,114.18z M97.43,87.29
				c-3.7,0-6.69,3.05-6.69,6.81c0,3.76,2.99,6.81,6.69,6.81c3.7,0,6.69-3.05,6.69-6.81C104.12,90.34,101.13,87.29,97.43,87.29z"/>
		</g>
		<g>
			
				<linearGradient id="SVGID_00000075141740208826526260000009677630403927010984_" gradientUnits="userSpaceOnUse" x1="5" y1="255" x2="505" y2="255">
				<stop  offset="5.586592e-03" style="stop-color:#001B5D"/>
				<stop  offset="0.9916" style="stop-color:#002B6B"/>
			</linearGradient>
			<path style="fill:url(#SVGID_00000075141740208826526260000009677630403927010984_);" d="M333.7,346.34H188.1
				c-8.63,0-15.67-7.17-15.67-15.96V185.71c0-8.78,7.04-15.96,15.67-15.96h145.6c8.63,0,15.67,7.17,15.67,15.96v144.68
				C349.37,339.17,342.32,346.34,333.7,346.34z M188.1,183.02c-1.41,0-2.64,1.25-2.64,2.69v144.68c0,1.43,1.23,2.69,2.64,2.69h145.6
				c1.41,0,2.64-1.25,2.64-2.69V185.71c0-1.43-1.23-2.69-2.64-2.69H188.1L188.1,183.02z"/>
		</g>
		<g>
			
				<linearGradient id="SVGID_00000041261674247924034260000014043135439431902346_" gradientUnits="userSpaceOnUse" x1="5" y1="255" x2="505" y2="255">
				<stop  offset="5.586592e-03" style="stop-color:#001B5D"/>
				<stop  offset="0.9916" style="stop-color:#002B6B"/>
			</linearGradient>
			<path style="fill:url(#SVGID_00000041261674247924034260000014043135439431902346_);" d="M282.11,251.15
				c-2.11,0-4.05-0.9-5.28-2.69l-15.85-21.87l-15.85,21.87c-1.58,2.33-4.58,3.23-7.22,2.33c-2.64-0.9-4.4-3.41-4.4-6.27v-68.12
				c0-3.59,2.99-6.63,6.51-6.63h42.08c3.52,0,6.51,3.05,6.51,6.63v68.12c0,2.87-1.76,5.38-4.4,6.27
				C283.35,250.97,282.64,251.15,282.11,251.15z M246.37,183.02v41.41l9.33-12.91c1.23-1.61,3.17-2.69,5.28-2.69l0,0
				c2.11,0,4.05,1.08,5.28,2.69l9.33,12.91v-41.41H246.37z"/>
		</g>
		<g>
			
				<linearGradient id="SVGID_00000003065512428510539170000001695665032201503907_" gradientUnits="userSpaceOnUse" x1="5" y1="255" x2="505" y2="255">
				<stop  offset="5.586592e-03" style="stop-color:#001B5D"/>
				<stop  offset="0.9916" style="stop-color:#002B6B"/>
			</linearGradient>
			<path style="fill:url(#SVGID_00000003065512428510539170000001695665032201503907_);" d="M260.11,473.99
				c-117.08,0-212.15-96.99-212.15-216.03c0-19.18,2.46-38.36,7.39-56.83c0.88-3.59,4.58-5.56,7.92-4.66
				c3.52,0.9,5.46,4.66,4.58,8.07c-4.58,17.39-7.04,35.32-7.04,53.42c0,111.87,89.44,202.94,199.3,202.94
				c21.13,0,41.9-3.41,61.8-10.04c3.35-1.08,7.04,0.72,8.1,4.3c1.06,3.41-0.7,7.17-4.23,8.25
				C304.65,470.4,282.46,473.99,260.11,473.99z M459.75,314.61c-0.53,0-1.06,0-1.58-0.18c-3.52-0.9-5.63-4.48-4.75-8.07
				c3.87-15.78,5.81-32.09,5.81-48.4c0-111.87-89.44-202.94-199.3-202.94c-16.02,0-32.04,1.97-47.54,5.92
				c-3.52,0.9-7.04-1.25-7.92-4.84s1.23-7.17,4.75-8.07c16.55-4.12,33.63-6.27,50.7-6.27c117.08,0,212.15,96.99,212.15,216.03
				c0,17.39-2.11,34.78-6.16,51.63C465.39,312.46,462.75,314.61,459.75,314.61z"/>
		</g>
		<g>
			
				<linearGradient id="SVGID_00000135692940930430656060000018148197552205727641_" gradientUnits="userSpaceOnUse" x1="5" y1="255" x2="505" y2="255">
				<stop  offset="5.586592e-03" style="stop-color:#001B5D"/>
				<stop  offset="0.9916" style="stop-color:#002B6B"/>
			</linearGradient>
			<path style="fill:url(#SVGID_00000135692940930430656060000018148197552205727641_);" d="M459.75,314.61
				c-0.53,0-1.06,0-1.76-0.18c-2.29-0.54-4.05-2.33-4.58-4.66l-12.32-46.79c-0.88-3.59,1.06-7.17,4.58-8.07
				c3.52-0.9,7.04,1.08,7.92,4.66l9.33,35.68l25.7-26.17c2.46-2.51,6.69-2.51,9.15,0c2.46,2.51,2.46,6.81,0,9.32l-33.63,34.24
				C463.1,313.89,461.51,314.61,459.75,314.61z"/>
		</g>
		<g>
			
				<linearGradient id="SVGID_00000008842281265055758810000007535993792990091682_" gradientUnits="userSpaceOnUse" x1="5" y1="255" x2="505" y2="255">
				<stop  offset="5.586592e-03" style="stop-color:#001B5D"/>
				<stop  offset="0.9916" style="stop-color:#002B6B"/>
			</linearGradient>
			<path style="fill:url(#SVGID_00000008842281265055758810000007535993792990091682_);" d="M73.84,256.17
				c-2.82,0-5.46-1.97-6.34-4.84l-9.33-35.68l-25.7,26.17c-2.46,2.51-6.69,2.51-9.15,0c-2.46-2.51-2.46-6.81,0-9.32l33.63-34.24
				c1.58-1.61,4.05-2.33,6.34-1.79s4.05,2.33,4.58,4.66l12.32,46.79c0.88,3.59-1.06,7.17-4.58,8.07
				C75.07,256.17,74.37,256.17,73.84,256.17z"/>
		</g>
	</g>
</g>
<g>
	
		<linearGradient id="SVGID_00000137092201745161242970000009527446214232770721_" gradientUnits="userSpaceOnUse" x1="-1638.1168" y1="-1069.9724" x2="-1138.1168" y2="-1069.9724">
		<stop  offset="5.586592e-03" style="stop-color:#001B5D"/>
		<stop  offset="0.9916" style="stop-color:#002B6B"/>
	</linearGradient>
	<path style="fill-rule:evenodd;clip-rule:evenodd;fill:url(#SVGID_00000137092201745161242970000009527446214232770721_);" d="
		M-1388.12-1320.05c138.05,0,250,111.95,250,250c0,138.2-111.95,250.15-250,250.15c-138.05,0-250-111.95-250-250.15
		C-1638.12-1208.1-1526.17-1320.05-1388.12-1320.05L-1388.12-1320.05z"/>
	<path class="st37" d="M-1388.41-1308.74c61.92,0,118.33,23.5,160.67,62.07l-8.85,3.48l-4.79,5.08l1.16,5.95l5.8,0.87l3.48,8.7
		l10.01-4.06l1.59,11.75h-2.9l-8.27-1.16l-9.13,1.45l-8.85,12.47l-12.61,2.03l-1.74,10.73l5.37,1.31l-1.59,6.96l-12.47-2.61
		l-11.6,2.61l-2.32,6.38l1.88,13.34l6.82,3.19l11.31-0.14l7.54-0.58l2.47-6.09l11.89-15.52l7.83,1.59l7.69-6.96l1.45,5.37
		l18.99,12.9l-2.32,3.19l-8.56-0.58l3.34,4.79l5.22,1.16l6.23-2.61l-0.14-7.54l2.76-1.3l-2.18-2.32l-12.76-7.1l-3.34-9.43h10.59
		l3.34,3.34l9.14,7.83l0.44,9.43l9.42,10.15l3.48-13.78l6.52-3.62l1.16,11.31l6.38,6.96h2.61c2.61,6.67,5.08,13.49,7.1,20.3h-11.17
		l-11.89-8.7l-12.47,1.16v7.54h-3.92l-4.21-3.05l-21.75-5.37v-14.06l-27.26,2.17l-8.55,4.5h-10.88l-5.22-0.43l-13.2,7.25v13.78
		l-26.97,19.43l2.18,8.27h5.51l-1.45,7.97l-3.77,1.45l-0.29,20.59l23.35,26.54h10.15l0.58-1.6h18.27l5.22-4.93h10.3l5.8,5.8
		l15.37,1.6l-2.03,20.44l17.11,30.16l-9.14,17.25l0.72,8.12l7.11,6.96v19.58l9.28,12.47v12.32
		c-43.79,54.38-110.79,89.04-186.05,89.04c-123.55,0-225.2-93.97-237.53-214.33l0,0c-0.15-1.88-0.29-3.77-0.43-5.65v-0.15
		c-0.58-6.09-0.72-12.33-0.72-18.71v-1.45v-2.75l0.15-3.48l0.14-3.48v-2.03c0.15-1.59,0.15-3.05,0.29-4.5l0.15-1.16
		c2.03-26.68,8.56-52.06,18.71-75.7v13.05l10.15,4.93v19.29l9.71,16.53l7.83,1.16l1.01-5.66l-9.28-14.36l-1.88-13.92h5.51
		l2.32,14.35l13.49,19.58l-3.48,6.38l8.56,13.05l21.32,5.37v-3.48l8.41,1.3l-0.72,6.09l6.67,1.16l10.3,2.9l14.65,16.53l18.56,1.45
		l1.89,15.22l-12.76,8.85l-0.58,13.63l-1.88,8.26l18.41,23.06l1.45,7.98c0,0,6.67,1.74,7.54,1.74c0.72,0,14.94,10.88,14.94,10.88
		v41.62l5.08,1.45l-3.48,19.29l8.56,11.31l-1.6,19.14l11.31,19.72l14.36,12.61l14.5,0.15l1.45-4.64l-10.73-8.99l0.72-4.35l1.88-5.51
		l0.44-5.51l-7.25-0.29l-3.63-4.5l5.95-5.8l0.87-4.35l-6.67-1.88l0.29-4.06l9.57-1.45l14.5-6.96l4.79-8.99l15.23-19.43l-3.48-15.23
		l4.79-7.97l13.92,0.29l9.42-7.39l3.05-29.3l10.44-13.34l1.74-8.41l-9.43-3.04l-6.38-10.44l-21.46-0.15l-16.97-6.52l-0.87-12.19
		l-5.66-9.86l-15.37-0.29l-8.85-13.92l-7.97-3.77l-0.43,4.21l-14.36,0.87l-5.22-7.4l-15.08-3.04l-12.32,14.36l-19.43-3.34
		l-1.45-21.9l-14.21-2.47l5.8-10.73l-1.74-6.23l-18.56,12.47l-11.75-1.31l-4.21-9.28l2.61-9.43l6.38-11.89l14.94-7.54h28.71v8.7
		l10.3,4.79l-0.87-14.94l7.54-7.54l14.94-9.86l1.16-6.96l14.94-15.52l15.95-8.85l-1.45-1.16l10.88-10.15l3.92,1.01l1.74,2.32
		l4.21-4.5l1.01-0.58l-4.49-0.58l-4.64-1.45v-4.5l2.46-1.88l5.37-0.15l2.32,1.16l2.17,4.21l2.61-0.29v-0.43l0.73,0.29l7.39-1.16
		l1.16-3.77l4.21,1.16v3.92l-3.92,2.76l0,0l0.58,4.35l13.49,4.21c0,0,0,0,0,0.15l3.19-0.29l0.15-5.8l-10.73-4.93l-0.58-2.9l8.85-2.9
		l0.43-8.56l-9.28-5.66l-0.58-14.35l-12.76,6.23h-4.64l1.16-11.02l-17.4-4.06l-7.1,5.37v16.68l-12.91,4.06l-5.22,10.73l-5.66,1.01
		v-13.92l-12.03-1.6l-6.09-4.06l-2.47-8.84l21.75-12.76l10.59-3.19l1.02,7.1l5.95-0.29l0.43-3.62l6.23-0.87l0.14-1.3l-2.75-1.01
		l-0.58-3.77l7.69-0.72l4.64-4.79l0.14-0.29h0.15l1.3-1.45l16.1-2.03l6.96,5.95l-18.56,10l23.64,5.51l3.05-7.83h10.3l3.77-6.96
		l-7.39-1.74v-8.7l-22.77-10.15l-15.81,1.74l-8.99,4.64l0.58,11.46l-9.28-1.45l-1.45-6.23l8.99-8.12l-16.24-0.87l-4.64,1.45
		l-2.03,5.37l6.09,1.16l-1.3,5.94l-10.3,0.72l-1.6,4.06l-14.93,0.29c0,0-0.43-8.41-1.01-8.41c-0.58,0,11.75-0.29,11.75-0.29
		l8.84-8.7l-4.79-2.46l-6.52,6.38l-10.73-0.58l-6.53-8.99h-13.78l-14.35,10.73h13.19l1.16,3.92l-3.33,3.19l14.5,0.43l2.32,5.22
		l-16.53-0.58l-0.72-4.06l-10.3-2.18l-5.51-3.04h-8.85C-1484.84-1293.36-1438.43-1308.74-1388.41-1308.74L-1388.41-1308.74z"/>
</g>
<g>
	
		<linearGradient id="SVGID_00000054955988298226125200000007027547073669208971_" gradientUnits="userSpaceOnUse" x1="-1529.8575" y1="-1794.3181" x2="-1162.4026" y2="-1794.3181">
		<stop  offset="5.586592e-03" style="stop-color:#011B5D"/>
		<stop  offset="0.9916" style="stop-color:#012B6B"/>
	</linearGradient>
	<path style="fill:url(#SVGID_00000054955988298226125200000007027547073669208971_);" d="M-1169.09-1815.13
		c5.15-4.8,7.5-10.89,6.43-16.75c-1.08-5.86-5.41-10.55-11.88-12.88l-30.53-10.97c-2.35-0.83-4.19-2.58-5.2-4.9
		c-1-2.32-1.06-4.95-0.16-7.43l11.77-32.17c2.35-6.41,2.03-12.49-0.91-17.11c-3.33-5.26-9.15-7.73-16.72-6.41l-31.79,5.53
		c-5.09,0.88-9.52-2.85-10.08-8.25l-3.5-34.37c-1.14-11.34-8.2-16.42-14.68-16.42c-3.7,0-7.53,1.52-11.11,4.41l-25.73,20.76
		c-3.99,3.21-9.73,2.15-12.48-2.27l-17.97-28.7c-3.6-5.74-8.47-8.9-13.71-8.9c-5.98,0-11.2,4.06-14.34,11.16l-13.82,31.23
		c-2.12,4.8-7.63,6.78-12.03,4.23l-28.33-16.45c-7.22-4.2-14.83-3.42-19.46,1.76c-2.15,2.41-4.66,6.81-4.39,14.23l1.28,34.54
		c0.1,2.63-0.76,5.08-2.39,6.92c-1.63,1.82-3.89,2.84-6.46,2.84l-32.52-0.43c-6.69,0-12.1,2.93-14.85,8.04
		c-2.76,5.14-2.41,11.7,0.99,18.02l16.08,29.96c1.23,2.3,1.54,4.91,0.87,7.37c-0.68,2.45-2.27,4.47-4.47,5.68l-28.69,15.69
		c-6.08,3.33-9.72,8.67-9.97,14.63c-0.27,5.95,2.89,11.63,8.65,15.54l27.21,18.5c2.09,1.42,3.49,3.59,3.96,6.09
		c0.45,2.51-0.07,5.09-1.5,7.26l-18.62,28.21c-3.94,5.99-4.85,12.52-2.51,17.93c2.35,5.41,7.6,8.85,14.4,9.43l32.09,2.81
		c2.46,0.21,4.65,1.42,6.14,3.42c1.5,1.99,2.14,4.53,1.81,7.17l-4.27,34.26c-0.74,6.04,0.51,11.4,3.54,15.13
		c4.27,5.23,11.5,6.54,18.84,3.18l29.62-13.54c4.62-2.11,9.92,0.4,11.62,5.41l11.03,32.48c2.69,7.89,8.13,12.61,14.57,12.61
		c4.78,0,9.45-2.7,13.16-7.57l20.38-26.78c1.69-2.24,4.16-3.51,6.74-3.51c1.51,0,3.77,0.43,5.89,2.5l23.84,23.25
		c3.73,3.63,7.88,5.56,12.01,5.56c5.72,0,12.61-3.93,14.71-14.94l6.45-33.88c1.01-5.24,5.82-8.56,10.75-7.19l31.16,8.68
		c1.9,0.52,3.78,0.79,5.56,0.79c5.04,0,9.32-2.14,12.05-6.04c2.99-4.28,3.69-10.12,1.98-16.42l-8.94-33.22
		c-0.69-2.54-0.4-5.15,0.81-7.36c1.21-2.21,3.2-3.77,5.61-4.36l31.35-7.87c6.66-1.67,11.37-5.9,12.95-11.63
		c1.58-5.72-0.23-12.03-4.95-17.32l-22.29-24.95c-1.72-1.91-2.59-4.38-2.48-6.93c0.11-2.56,1.2-4.92,3.06-6.65L-1169.09-1815.13z
		 M-1203.91-1768.75l22.31,24.94c1.48,1.68,1.72,2.8,1.71,2.96c-0.09,0.18-0.85,1-2.95,1.52l-31.36,7.88
		c-6.09,1.52-11.17,5.51-14.29,11.24c-3.13,5.73-3.88,12.43-2.14,18.89l8.94,33.22c0.6,2.22,0.32,3.33,0.25,3.47
		c-0.14,0.1-1.61,0.34-3.29-0.12l-31.15-8.68c-1.89-0.52-3.83-0.79-5.75-0.79c-10.7,0-19.67,7.92-21.83,19.26l-6.45,33.88
		c-0.44,2.27-1.18,3.11-1.33,3.21c-0.38,0-1.41-0.37-2.82-1.76l-23.85-23.25c-4.17-4.06-9.52-6.31-15.07-6.31
		c-6.71,0-13.03,3.24-17.33,8.91l-20.38,26.78c-1.31,1.73-2.29,2.14-2.54,2.17c-0.22-0.1-1.03-0.85-1.74-2.96l-11.04-32.47
		c-3.28-9.62-11.5-15.85-20.94-15.85c-3.06,0-6.03,0.67-8.88,1.97l-29.62,13.52c-1.37,0.63-2.26,0.73-2.68,0.73l-0.51-0.06
		c-0.14-0.18-0.56-1.22-0.28-3.5l4.27-34.26c0.83-6.66-0.84-13.18-4.71-18.35c-3.87-5.16-9.45-8.31-15.68-8.84l-32.09-2.8
		c-2.16-0.19-3.02-0.88-3.13-1c-0.04-0.2,0.03-1.34,1.27-3.24l18.63-28.21c3.61-5.5,4.94-12.11,3.74-18.6
		c-1.19-6.5-4.77-12.06-10.06-15.64l-27.2-18.52c-1.83-1.23-2.29-2.26-2.32-2.42c0.05-0.19,0.61-1.18,2.53-2.22l28.68-15.71
		c5.58-3.05,9.62-8.23,11.38-14.58c1.75-6.37,0.99-13.06-2.13-18.89l-16.08-29.96c-1.08-2.02-1.05-3.15-1.01-3.32
		c0.12-0.15,0.99-0.72,3.19-0.72h0l32.47,0.43c6.21,0,11.96-2.62,16.19-7.35c4.24-4.75,6.44-11.03,6.19-17.68l-1.28-34.55
		c-0.08-2.33,0.44-3.33,0.85-3.48c0.34,0,1.29,0.11,2.84,1l28.33,16.44c3.31,1.93,7.03,2.94,10.73,2.94
		c8.68,0,16.41-5.29,20.15-13.77l13.83-31.25c0.93-2.09,1.83-2.72,1.97-2.76c0.2,0.02,1.17,0.49,2.38,2.42l17.96,28.7
		c4.21,6.7,11.13,10.68,18.55,10.68c4.87,0,9.53-1.67,13.49-4.87l25.74-20.76c1.72-1.39,2.72-1.46,2.94-1.48
		c0.15,0.12,0.81,1.03,1.04,3.33l3.5,34.38c1.38,13.54,12.94,23.4,25.86,21.14l31.79-5.53c1.77-0.31,3.13,0.09,3.23,0.16
		c0.09,0.2,0.28,1.33-0.5,3.48l-11.78,32.17c-2.29,6.25-2.13,13,0.48,19.01c2.61,6.02,7.31,10.5,13.26,12.64l30.54,10.97
		c2.04,0.73,2.73,1.61,2.79,1.75c0,0.21-0.33,1.32-1.96,2.82l-24.35,22.63c-4.74,4.39-7.5,10.45-7.79,17.06
		C-1210.47-1779.93-1208.25-1773.62-1203.91-1768.75z"/>
	
		<linearGradient id="SVGID_00000139293943883708669980000010562104749162745774_" gradientUnits="userSpaceOnUse" x1="-1259.5242" y1="-1588.2261" x2="-1097.7273" y2="-1588.2261">
		<stop  offset="5.586592e-03" style="stop-color:#011B5D"/>
		<stop  offset="0.9916" style="stop-color:#012B6B"/>
	</linearGradient>
	<path style="fill:url(#SVGID_00000139293943883708669980000010562104749162745774_);" d="M-1203.65-1633.78l-31.16-8.69
		c-8.72-2.44-17.35,3.35-19.15,12.84l-5.55,29.11l91.15,108.55l7.23-66.15l63.42-2.29l-104.16-124.07c-0.03,1.63,0.17,3.3,0.61,4.97
		l8.95,33.22C-1189.82-1636.98-1194.92-1631.36-1203.65-1633.78z"/>
	
		<linearGradient id="SVGID_00000063635520936129050580000011256101508048804254_" gradientUnits="userSpaceOnUse" x1="-1597.7273" y1="-1588.2318" x2="-1408.6627" y2="-1588.2318">
		<stop  offset="5.586592e-03" style="stop-color:#011B5D"/>
		<stop  offset="0.9916" style="stop-color:#012B6B"/>
	</linearGradient>
	<path style="fill:url(#SVGID_00000063635520936129050580000011256101508048804254_);" d="M-1468.16-1660.54
		c1.2-9.59-5.18-18.09-14.18-18.87l-4.62-0.42l-110.77,107.32l61.59,7.75l2.11,68.12l125.37-121.42l-0.51-1.53
		c-3.09-9.1-12.41-13.45-20.72-9.65l-29.64,13.54c-8.29,3.8-14.1-0.96-12.9-10.55L-1468.16-1660.54z"/>
	
		<linearGradient id="SVGID_00000169519546865913476560000003416928755909176724_" gradientUnits="userSpaceOnUse" x1="-1297.4261" y1="-1820.7065" x2="-1238.151" y2="-1820.7065">
		<stop  offset="5.586592e-03" style="stop-color:#011B5D"/>
		<stop  offset="0.9916" style="stop-color:#012B6B"/>
	</linearGradient>
	<path style="fill:url(#SVGID_00000169519546865913476560000003416928755909176724_);" d="M-1297.43-1820.71
		c0,17.57,13.27,31.83,29.64,31.83c16.37,0,29.64-14.26,29.64-31.83c0-17.59-13.27-31.83-29.64-31.83
		C-1284.15-1852.53-1297.43-1838.29-1297.43-1820.71z"/>
	
		<linearGradient id="SVGID_00000158013051182737775090000017676479138177778589_" gradientUnits="userSpaceOnUse" x1="-1302.062" y1="-1763.6506" x2="-1222.7762" y2="-1763.6506">
		<stop  offset="5.586592e-03" style="stop-color:#011B5D"/>
		<stop  offset="0.9916" style="stop-color:#012B6B"/>
	</linearGradient>
	<path style="fill:url(#SVGID_00000158013051182737775090000017676479138177778589_);" d="M-1284.94-1785.88
		c-6.46,0-12.4,2.39-17.12,6.35c11.94,7.95,19.98,22.01,20.27,38.1h59.02v-14.52c0-16.53-12.47-29.93-27.85-29.93H-1284.94z
		 M-1256.75-1746.56h-4.11l-3.43-24.24h-0.12l3.36-6.65h-13.47l3.36,6.65h-0.12l-3.43,24.24h-4.12l-6.39-36.04l1.89-0.1h31.07
		c0.64,0,1.27,0.04,1.9,0.1L-1256.75-1746.56z"/>
	
		<linearGradient id="SVGID_00000030453493836613351180000006408850676859998095_" gradientUnits="userSpaceOnUse" x1="-1457.3076" y1="-1820.7065" x2="-1398.0369" y2="-1820.7065">
		<stop  offset="5.586592e-03" style="stop-color:#011B5D"/>
		<stop  offset="0.9916" style="stop-color:#012B6B"/>
	</linearGradient>
	<path style="fill:url(#SVGID_00000030453493836613351180000006408850676859998095_);" d="M-1457.31-1820.71
		c0,17.57,13.27,31.83,29.63,31.83c16.38,0,29.64-14.26,29.64-31.83c0-17.59-13.27-31.83-29.64-31.83
		C-1444.04-1852.53-1457.31-1838.29-1457.31-1820.71z"/>
	
		<linearGradient id="SVGID_00000062896828792570155310000017836558633863717292_" gradientUnits="userSpaceOnUse" x1="-1472.6869" y1="-1763.6506" x2="-1393.3445" y2="-1763.6506">
		<stop  offset="5.586592e-03" style="stop-color:#011B5D"/>
		<stop  offset="0.9916" style="stop-color:#012B6B"/>
	</linearGradient>
	<path style="fill:url(#SVGID_00000062896828792570155310000017836558633863717292_);" d="M-1472.69-1755.95v14.52h59.13
		c0.3-16.08,8.3-30.11,20.22-38.06c-4.74-3.99-10.7-6.4-17.18-6.4h-34.31C-1460.22-1785.88-1472.69-1772.47-1472.69-1755.95z
		 M-1412.14-1782.71l1.89,0.1l-6.39,36.04h-4.12l-3.44-24.24h-0.12l3.37-6.65h-13.49l3.38,6.65h-0.13l-3.43,24.24h-4.1l-6.4-36.04
		l1.89-0.1H-1412.14z"/>
	
		<linearGradient id="SVGID_00000146458828803091358220000010059046952055922364_" gradientUnits="userSpaceOnUse" x1="-1388.1168" y1="-1829.8217" x2="-1307.3552" y2="-1829.8217">
		<stop  offset="5.586592e-03" style="stop-color:#011B5D"/>
		<stop  offset="0.9916" style="stop-color:#012B6B"/>
	</linearGradient>
	<path style="fill:url(#SVGID_00000146458828803091358220000010059046952055922364_);" d="M-1388.12-1829.82
		c0,23.97,18.08,43.38,40.38,43.38c22.31,0,40.38-19.41,40.38-43.38c0-23.95-18.06-43.38-40.38-43.38
		C-1370.04-1873.2-1388.12-1853.77-1388.12-1829.82z"/>
	
		<linearGradient id="SVGID_00000049916945665109170810000001556298365285888176_" gradientUnits="userSpaceOnUse" x1="-1409.0634" y1="-1752.0679" x2="-1286.3867" y2="-1752.0679">
		<stop  offset="5.586592e-03" style="stop-color:#011B5D"/>
		<stop  offset="0.9916" style="stop-color:#012B6B"/>
	</linearGradient>
	<path style="fill:url(#SVGID_00000049916945665109170810000001556298365285888176_);" d="M-1371.11-1782.35
		c-20.96,0-37.95,18.26-37.95,40.77v19.78h122.68v-19.78c0-22.52-17-40.77-37.96-40.77H-1371.11z M-1332.69-1728.78h-5.61h-18.87
		l4.67-33.02l-4.68,33.02h-5.61l-8.7-49.12c0.84-0.08,1.71-0.15,2.57-0.15h42.34c0.88,0,1.74,0.07,2.59,0.15L-1332.69-1728.78z"/>
	
		<linearGradient id="SVGID_00000068640735075923492020000010313120905866786200_" gradientUnits="userSpaceOnUse" x1="-1357.1577" y1="-1749.8269" x2="-1338.2919" y2="-1749.8269">
		<stop  offset="5.586592e-03" style="stop-color:#011B5D"/>
		<stop  offset="0.9916" style="stop-color:#012B6B"/>
	</linearGradient>
	<polygon style="fill:url(#SVGID_00000068640735075923492020000010313120905866786200_);" points="-1357.16,-1728.78 
		-1338.29,-1728.78 -1342.97,-1761.8 -1343.14,-1761.8 -1338.54,-1770.87 -1356.91,-1770.87 -1352.33,-1761.8 -1352.49,-1761.8 	"/>
</g>
<g>
	<g>
		
			<linearGradient id="SVGID_00000130620914322532514680000004420239912916237479_" gradientUnits="userSpaceOnUse" x1="5929.4512" y1="-792.5573" x2="6669.1011" y2="-792.5573">
			<stop  offset="5.586592e-03" style="stop-color:#001B5D"/>
			<stop  offset="0.9916" style="stop-color:#002B6B"/>
		</linearGradient>
		<path style="fill:url(#SVGID_00000130620914322532514680000004420239912916237479_);" d="M6352.53-422.73h-106.88
			c-29.69,0-53.44-24.12-53.44-53.44v-57.9l-40.82,40.82c-10.02,10.02-23.38,15.59-37.85,15.59c-14.47,0-27.83-5.57-37.85-15.59
			l-75.71-75.71c-10.02-10.02-15.59-23.38-15.59-37.85c0-14.47,5.57-27.83,15.59-37.85l40.82-40.82h-57.9
			c-29.69,0-53.44-24.12-53.44-53.44v-107.25c0-29.69,24.12-53.44,53.44-53.44h57.9l-40.82-40.82
			c-10.02-10.02-15.59-23.38-15.59-37.85s5.57-27.83,15.59-37.85l75.71-75.71c10.02-10.02,23.38-15.59,37.85-15.59
			c14.47,0,27.83,5.57,37.85,15.59l40.82,40.82v-57.9c0-29.69,24.12-53.44,53.44-53.44h107.25c29.69,0,53.44,24.12,53.44,53.44v57.9
			l40.82-40.82c20.78-20.78,54.93-20.78,75.71,0l75.71,75.71c10.02,10.02,15.59,23.38,15.59,37.85s-5.57,27.83-15.59,37.85
			l-40.82,40.82h57.9c29.69,0,53.44,24.12,53.44,53.44v106.88c0,29.69-24.12,53.44-53.44,53.44h-57.9l40.82,40.82
			c20.78,20.78,20.78,54.93,0,75.71l-75.71,75.71c-10.02,10.02-23.38,15.59-37.85,15.59c-14.47,0-27.83-5.57-37.85-15.59
			l-40.82-40.82v57.9C6406.35-446.48,6382.22-422.73,6352.53-422.73z M6195.18-583.43c2.6,0,5.2,0.74,7.79,1.86
			c4.82,2.23,9.65,4.08,14.47,5.94c7.42,2.6,12.25,10.02,12.25,17.81v81.65c0,8.54,7.05,15.59,15.59,15.59h107.25
			c8.54,0,15.59-7.05,15.59-15.59v-81.65c0-7.79,4.82-14.84,12.25-17.81c4.82-1.86,10.02-3.71,14.47-5.94
			c7.05-3.34,15.59-1.86,21.15,3.71l57.9,57.9c2.97,2.97,6.68,4.45,11.13,4.45c4.45,0,8.16-1.48,11.13-4.45l75.71-75.71
			c5.94-5.94,5.94-15.96,0-21.9l-57.9-57.9c-5.57-5.57-7.05-14.1-3.71-21.15c2.23-4.82,4.08-9.65,5.94-14.47
			c2.97-7.42,10.02-12.25,17.81-12.25h81.65c8.54,0,15.59-7.05,15.59-15.59v-107.25c0-8.54-7.05-15.59-15.59-15.59h-81.65
			c-7.79,0-14.85-4.82-17.81-12.25c-1.86-4.82-3.71-10.02-5.94-14.47c-3.34-7.05-1.86-15.59,3.71-21.15l57.9-57.9
			c2.97-2.97,4.45-6.68,4.45-11.13c0-4.08-1.48-8.16-4.45-11.13l-75.71-75.71c-5.94-5.94-15.96-5.94-21.9,0l-57.9,57.52
			c-5.57,5.57-14.1,7.05-21.15,3.71c-4.82-2.23-9.65-4.08-14.47-5.94c-7.42-2.97-12.25-10.02-12.25-17.81v-81.65
			c0-8.54-7.05-15.59-15.59-15.59h-107.25c-8.54,0-15.59,7.05-15.59,15.59v81.65c0,7.79-4.82,14.84-12.25,17.81
			c-4.82,1.86-10.02,3.71-14.47,5.94c-7.05,3.34-15.59,1.86-21.15-3.71l-57.9-57.9c-2.97-2.97-6.68-4.45-11.13-4.45
			c-4.08,0-8.17,1.48-11.13,4.45l-75.71,75.71c-2.97,2.97-4.45,6.68-4.45,11.13c0,4.08,1.48,8.16,4.45,11.13l57.9,57.9
			c5.57,5.57,7.05,14.1,3.71,21.15c-2.23,4.82-4.08,9.65-5.94,14.47c-2.6,7.42-10.02,12.25-17.81,12.25h-81.65
			c-8.54,0-15.59,7.05-15.59,15.59v107.25c0,8.54,7.05,15.59,15.59,15.59h81.65c7.79,0,14.85,4.82,17.81,12.25
			c1.86,4.82,3.71,9.65,5.94,14.47c3.34,7.05,1.86,15.59-3.71,21.15l-57.9,57.9c-2.97,2.97-4.45,6.68-4.45,11.13
			c0,4.08,1.48,8.16,4.45,11.13l75.71,75.71c2.97,2.97,6.68,4.45,11.13,4.45c4.08,0,8.16-1.48,11.13-4.45l57.9-57.9
			C6185.53-581.57,6190.35-583.43,6195.18-583.43z"/>
	</g>
	<g>
		
			<linearGradient id="SVGID_00000116927789304189435290000002387325895777873292_" gradientUnits="userSpaceOnUse" x1="6121.6934" y1="-792.7427" x2="6476.4878" y2="-792.7427">
			<stop  offset="5.586592e-03" style="stop-color:#001B5D"/>
			<stop  offset="0.9916" style="stop-color:#002B6B"/>
		</linearGradient>
		<path style="fill:url(#SVGID_00000116927789304189435290000002387325895777873292_);" d="M6299.09-615.35
			c-97.98,0-177.4-79.79-177.4-177.4s79.79-177.4,177.4-177.4c97.61,0,177.4,79.79,177.4,177.4S6397.07-615.35,6299.09-615.35z
			 M6299.09-932.29c-76.82,0-139.54,62.72-139.54,139.54s62.72,139.54,139.54,139.54c76.82,0,139.54-62.72,139.54-139.54
			S6375.91-932.29,6299.09-932.29z"/>
	</g>
	<g>
		
			<linearGradient id="SVGID_00000065793013594531624750000017929548915271867814_" gradientUnits="userSpaceOnUse" x1="6004.019" y1="-1354.439" x2="6364.5322" y2="-1354.439">
			<stop  offset="5.586592e-03" style="stop-color:#001B5D"/>
			<stop  offset="0.9916" style="stop-color:#002B6B"/>
		</linearGradient>
		<path style="fill:url(#SVGID_00000065793013594531624750000017929548915271867814_);" d="M6115.38-1069.97
			c-10.39,0-18.93-8.54-18.93-18.93v-269.81h-73.48c-7.05,0-13.36-3.71-16.7-10.02c-3.34-6.31-2.97-13.73,1.11-19.67l161.07-241.97
			c3.34-5.2,9.28-8.54,15.96-8.54c6.68,0,12.25,3.34,15.96,8.54l161.07,241.97c3.71,5.94,4.08,13.36,1.11,19.67
			c-3.34,6.31-9.65,10.02-16.7,10.02H6272v214.51c0,10.39-8.54,18.93-18.93,18.93s-18.93-8.54-18.93-18.93v-233.81
			c0-10.39,8.54-18.93,18.93-18.93h57.15l-126.55-188.53l-125.44,188.53h57.15c10.39,0,18.93,8.54,18.93,18.93v288.73
			C6134.68-1078.51,6126.15-1069.97,6115.38-1069.97z"/>
	</g>
	<g>
		
			<linearGradient id="SVGID_00000022533988115575189700000008017188006101210271_" gradientUnits="userSpaceOnUse" x1="6297.5781" y1="-1264.0703" x2="6658.0913" y2="-1264.0703">
			<stop  offset="5.586592e-03" style="stop-color:#001B5D"/>
			<stop  offset="0.9916" style="stop-color:#002B6B"/>
		</linearGradient>
		<path style="fill:url(#SVGID_00000022533988115575189700000008017188006101210271_);" d="M6409.31-1009.11
			c-10.39,0-18.93-8.54-18.93-18.93v-210.8h-73.85c-7.05,0-13.36-3.71-16.7-10.02c-3.34-6.31-2.97-13.73,1.11-19.67l161.07-241.97
			c3.34-5.2,9.28-8.54,15.96-8.54s12.25,3.34,15.96,8.54L6655-1268.52c3.71,5.94,4.08,13.36,1.11,19.67
			c-3.34,6.31-9.65,10.02-16.7,10.02h-73.85v196.32c0,10.39-8.54,18.93-18.93,18.93s-18.93-8.54-18.93-18.93v-215.25
			c0-10.39,8.54-18.93,18.93-18.93h57.15l-125.44-188.53l-125.44,188.53h57.15c10.39,0,18.93,8.54,18.93,18.93v229.73
			C6428.61-1017.64,6420.08-1009.11,6409.31-1009.11z"/>
	</g>
</g>
</svg>
