<?xml version="1.0" encoding="utf-8"?>
<!-- Generator: Adobe Illustrator 26.0.0, SVG Export Plug-In . SVG Version: 6.00 Build 0)  -->
<svg version="1.1" id="_x2018_ëîé_x5F_1" xmlns="http://www.w3.org/2000/svg" xmlns:xlink="http://www.w3.org/1999/xlink"
	 x="0px" y="0px" viewBox="0 0 510 510" style="enable-background:new 0 0 510 510;" xml:space="preserve">
<style type="text/css">
	.st0{fill-rule:evenodd;clip-rule:evenodd;fill:none;stroke:url(#SVGID_1_);stroke-width:32;stroke-miterlimit:10;}
	.st1{fill:none;stroke:url(#SVGID_00000101082652066064444830000001005349917344159912_);stroke-width:32;stroke-miterlimit:10;}
	.st2{fill:none;stroke:url(#SVGID_00000013901262418836378760000002931830534831538601_);stroke-width:32;stroke-miterlimit:10;}
	.st3{fill:none;stroke:url(#SVGID_00000144321136724925968160000015017709019589505158_);stroke-width:32;stroke-miterlimit:10;}
	.st4{fill:none;stroke:url(#SVGID_00000069393621349663696390000004677449639151767999_);stroke-width:32;stroke-miterlimit:10;}
	.st5{fill:none;stroke:url(#SVGID_00000122716881803444415880000001159598347841982361_);stroke-width:32;stroke-miterlimit:10;}
	.st6{fill:none;stroke:url(#SVGID_00000000915770674501426370000015028511465291035548_);stroke-width:32;stroke-miterlimit:10;}
	.st7{fill:url(#SVGID_00000065754666732113437590000013951563978874332582_);}
	.st8{fill:url(#SVGID_00000107588946246327545050000015877708499871751826_);}
	.st9{fill:url(#SVGID_00000092424516465996061050000014347022715808941490_);}
	.st10{fill:url(#SVGID_00000044142542516823160070000013236705139864296609_);}
	.st11{fill:url(#SVGID_00000074441271725267616380000013830352638619468431_);}
	.st12{fill:url(#SVGID_00000094604647757112949940000017750226786974908804_);}
	.st13{fill:url(#SVGID_00000098922399122412543090000004791282640500301208_);}
	.st14{fill:url(#SVGID_00000175309888711888245540000010169023117856631479_);}
	.st15{fill:url(#SVGID_00000147197854867887852200000005400245705326372247_);}
	.st16{fill:#FFFFFF;}
	.st17{fill:url(#SVGID_00000150809971701397998930000007404598572741093534_);}
	.st18{fill:url(#SVGID_00000096034713212135514080000010389824161187001476_);}
	.st19{fill:url(#SVGID_00000061432845232585816110000016839499133692058766_);}
	.st20{fill:url(#SVGID_00000039114756499877933760000014489674929823429516_);}
	.st21{fill:url(#SVGID_00000085971644311743417780000002896599641651442060_);}
	.st22{fill:url(#SVGID_00000035522283189063229630000010198236195725826970_);}
	.st23{fill:url(#SVGID_00000111873594410829016220000014011914317201464733_);}
	.st24{fill:url(#SVGID_00000077287738631085948510000003688460558581872783_);}
	.st25{fill:url(#SVGID_00000041272454097383845010000001560379647436331395_);}
	.st26{fill:url(#SVGID_00000169531252627451023470000008940416291117142413_);}
	.st27{fill:url(#SVGID_00000049206681347901359170000014426925974475927443_);}
	.st28{fill:url(#SVGID_00000157298223466734866440000002121346593591991937_);}
	.st29{fill:url(#SVGID_00000033345926906408118940000013754892291163301293_);}
	.st30{fill:url(#SVGID_00000018956299196850581480000001033010089875239343_);}
	.st31{fill:url(#SVGID_00000085968758096073040970000005205193301429307825_);}
	.st32{fill:url(#SVGID_00000171704697524727892560000002758514942407112321_);}
	.st33{fill:url(#SVGID_00000087380901408499704260000018413172091610505870_);}
	.st34{fill:url(#SVGID_00000037671661479229740110000009678030778231046326_);}
	.st35{fill:url(#SVGID_00000122687757510392475420000001074762869347608720_);}
	.st36{fill-rule:evenodd;clip-rule:evenodd;fill:url(#SVGID_00000021832435422778087960000013531977726964949653_);}
	.st37{fill-rule:evenodd;clip-rule:evenodd;fill:#FFFFFF;}
	.st38{fill:url(#SVGID_00000127727905708297840950000001848621784910468242_);}
	.st39{fill:url(#SVGID_00000152257106801128740610000008712552299381917860_);}
	.st40{fill:url(#SVGID_00000067943330071025448030000001661733290149091245_);}
	.st41{fill:url(#SVGID_00000110431804259132451030000008035704084069469098_);}
	.st42{fill:url(#SVGID_00000010288981076798648900000003818609859023941269_);}
	.st43{fill:url(#SVGID_00000087389156841779665860000005180831389924796853_);}
	.st44{fill:url(#SVGID_00000175287404216384192710000015514091689442435995_);}
	.st45{fill:url(#SVGID_00000059297388154697375610000013378422894362439328_);}
	.st46{fill:url(#SVGID_00000020363938546310717610000004066359161649288847_);}
	.st47{fill:url(#SVGID_00000132787026997707465560000003807252109434821296_);}
	.st48{fill:url(#SVGID_00000082335630970715470800000004084297409275185303_);}
	.st49{fill:url(#SVGID_00000000924899664254839880000011350611798487995289_);}
	.st50{fill:url(#SVGID_00000031891173769803158750000007493295801777261977_);}
	.st51{fill:url(#SVGID_00000005245393699420974260000011890494171375949221_);}
</style>
<g>
	<linearGradient id="SVGID_1_" gradientUnits="userSpaceOnUse" x1="3145.0544" y1="-2404.8552" x2="4192.0547" y2="-2404.8552">
		<stop  offset="5.586592e-03" style="stop-color:#001B5D"/>
		<stop  offset="0.9916" style="stop-color:#002B6B"/>
	</linearGradient>
	<path class="st0" d="M3756.87-2914.36l19.1,119.5c32.09,8.9,62.59,21.64,90.96,37.68l98.21-68.16l124.81,125.1l-69.88,95.32
		c16.54,28.86,29.63,59.94,38.73,92.68l117.26,19.08v181.26l-116.9,16.39c-8.84,32.22-21.54,62.83-37.59,91.32l68.38,96.6
		l-124.81,126.35l-95.3-69.71c-29.47,16.99-61.27,30.39-94.8,39.6l-18.17,115.98h-177.73l-18.44-115.49
		c-33.55-9.05-65.37-22.29-94.89-39.11l-92.84,68.72l-128.91-126.35l41.07-56.06l-17.32-70.97l-29.55-65.15l-77.21-12.12v-181.26
		l113.97-18.66c9.06-32.75,22.13-63.85,38.63-92.72l-69.59-95.7l128.91-125.1l93.44,68.5c29.46-16.73,61.22-29.88,94.68-38.88
		l18.05-118.65H3756.87L3756.87-2914.36z M3666.97-2698.19c-162.99,0-295.13,132.06-295.13,294.97
		c0,162.91,132.13,294.97,295.13,294.97c163,0,295.13-132.06,295.13-294.97C3962.1-2566.13,3829.97-2698.19,3666.97-2698.19
		L3666.97-2698.19z"/>
	
		<linearGradient id="SVGID_00000125588826110274121810000010947650915539674279_" gradientUnits="userSpaceOnUse" x1="3376.5215" y1="-2425.1055" x2="3814.8728" y2="-2425.1055">
		<stop  offset="5.586592e-03" style="stop-color:#001B5D"/>
		<stop  offset="0.9916" style="stop-color:#002B6B"/>
	</linearGradient>
	
		<polyline style="fill:none;stroke:url(#SVGID_00000125588826110274121810000010947650915539674279_);stroke-width:32;stroke-miterlimit:10;" points="
		3386.05,-2356.36 3521.4,-2456.76 3619.18,-2369.92 3806.05,-2493.36 	"/>
	
		<linearGradient id="SVGID_00000041290389955781529850000009747308762787854005_" gradientUnits="userSpaceOnUse" x1="3729.0544" y1="-2466.9517" x2="3841.4578" y2="-2466.9517">
		<stop  offset="5.586592e-03" style="stop-color:#001B5D"/>
		<stop  offset="0.9916" style="stop-color:#002B6B"/>
	</linearGradient>
	
		<polyline style="fill:none;stroke:url(#SVGID_00000041290389955781529850000009747308762787854005_);stroke-width:32;stroke-miterlimit:10;" points="
		3729.05,-2503.36 3818.05,-2503.36 3785.72,-2420.36 	"/>
	
		<linearGradient id="SVGID_00000036211899310258713070000010182857948378242181_" gradientUnits="userSpaceOnUse" x1="3472.0544" y1="-2261.3552" x2="3504.0544" y2="-2261.3552">
		<stop  offset="5.586592e-03" style="stop-color:#001B5D"/>
		<stop  offset="0.9916" style="stop-color:#002B6B"/>
	</linearGradient>
	
		<line style="fill:none;stroke:url(#SVGID_00000036211899310258713070000010182857948378242181_);stroke-width:32;stroke-miterlimit:10;" x1="3488.05" y1="-2337.36" x2="3488.05" y2="-2185.36"/>
	
		<linearGradient id="SVGID_00000075126337843179533720000014999187892668059574_" gradientUnits="userSpaceOnUse" x1="3596.4226" y1="-2178.3994" x2="3628.8044" y2="-2178.3994">
		<stop  offset="5.586592e-03" style="stop-color:#001B5D"/>
		<stop  offset="0.9916" style="stop-color:#002B6B"/>
	</linearGradient>
	
		<line style="fill:none;stroke:url(#SVGID_00000075126337843179533720000014999187892668059574_);stroke-width:32;stroke-miterlimit:10;" x1="3612.42" y1="-2236.28" x2="3612.8" y2="-2120.52"/>
	
		<linearGradient id="SVGID_00000126321140568334681080000001067703618038858401_" gradientUnits="userSpaceOnUse" x1="3714.4226" y1="-2220.9058" x2="3746.8044" y2="-2220.9058">
		<stop  offset="5.586592e-03" style="stop-color:#001B5D"/>
		<stop  offset="0.9916" style="stop-color:#002B6B"/>
	</linearGradient>
	
		<line style="fill:none;stroke:url(#SVGID_00000126321140568334681080000001067703618038858401_);stroke-width:32;stroke-miterlimit:10;" x1="3730.42" y1="-2315.26" x2="3730.8" y2="-2126.55"/>
	
		<linearGradient id="SVGID_00000119078336627886363840000004566952095311842239_" gradientUnits="userSpaceOnUse" x1="3838.4226" y1="-2272.9058" x2="3870.8044" y2="-2272.9058">
		<stop  offset="5.586592e-03" style="stop-color:#001B5D"/>
		<stop  offset="0.9916" style="stop-color:#002B6B"/>
	</linearGradient>
	
		<line style="fill:none;stroke:url(#SVGID_00000119078336627886363840000004566952095311842239_);stroke-width:32;stroke-miterlimit:10;" x1="3854.42" y1="-2367.26" x2="3854.8" y2="-2178.55"/>
</g>
<g>
	
		<linearGradient id="SVGID_00000082350404157739615280000008322360382775783356_" gradientUnits="userSpaceOnUse" x1="5178.5854" y1="-2261.7483" x2="5430.896" y2="-2261.7483">
		<stop  offset="5.586592e-03" style="stop-color:#001B5D"/>
		<stop  offset="0.9916" style="stop-color:#002B6B"/>
	</linearGradient>
	<circle style="fill:url(#SVGID_00000082350404157739615280000008322360382775783356_);" cx="5304.74" cy="-2261.75" r="126.16"/>
	
		<linearGradient id="SVGID_00000161589457649066030920000001014182786068085900_" gradientUnits="userSpaceOnUse" x1="5137.6362" y1="-2046.5968" x2="5492.498" y2="-2046.5968">
		<stop  offset="5.586592e-03" style="stop-color:#001B5D"/>
		<stop  offset="0.9916" style="stop-color:#002B6B"/>
	</linearGradient>
	<path style="fill:url(#SVGID_00000161589457649066030920000001014182786068085900_);" d="M5492.5-2033.85v63.22h-282.41v-8.55
		c0-49.64-29.85-92.57-72.45-111.36c16.27-19.62,40.75-32.03,68.09-32.03h28.01c21.97,9.06,45.95,14.09,70.94,14.09
		c25.16,0,49.14-5.03,71.11-14.09h27.84C5452.58-2122.57,5492.5-2082.82,5492.5-2033.85z"/>
	
		<linearGradient id="SVGID_00000012451029185092711040000007509218462838219669_" gradientUnits="userSpaceOnUse" x1="4845.4917" y1="-2512.8977" x2="4903.5176" y2="-2512.8977">
		<stop  offset="5.586592e-03" style="stop-color:#001B5D"/>
		<stop  offset="0.9916" style="stop-color:#002B6B"/>
	</linearGradient>
	<path style="fill:url(#SVGID_00000012451029185092711040000007509218462838219669_);" d="M4903.52-2508.62
		c-19.79-1.51-39.24-3.69-58.03-6.37l3.52-2.18C4866.63-2513.82,4884.73-2510.97,4903.52-2508.62z"/>
	
		<linearGradient id="SVGID_00000140703779355329404360000017886932526554951339_" gradientUnits="userSpaceOnUse" x1="4903.5176" y1="-2507.2795" x2="4927.667" y2="-2507.2795">
		<stop  offset="5.586592e-03" style="stop-color:#001B5D"/>
		<stop  offset="0.9916" style="stop-color:#002B6B"/>
	</linearGradient>
	<path style="fill:url(#SVGID_00000140703779355329404360000017886932526554951339_);" d="M4927.67-2505.94
		c-8.22-0.67-16.27-1.68-24.15-2.68c7.71,0.67,15.6,1.17,23.48,1.68L4927.67-2505.94z"/>
	
		<linearGradient id="SVGID_00000076580733664856024430000017871112953432923307_" gradientUnits="userSpaceOnUse" x1="4546.8662" y1="-2631.1958" x2="5430.9004" y2="-2631.1958">
		<stop  offset="5.586592e-03" style="stop-color:#001B5D"/>
		<stop  offset="0.9916" style="stop-color:#002B6B"/>
	</linearGradient>
	<path style="fill:url(#SVGID_00000076580733664856024430000017871112953432923307_);" d="M5430.9-2683.83
		c0-98.67-197.9-178.66-442.02-178.66c-244.12,0-442.02,79.99-442.02,178.66c0,56.73,65.48,107.24,167.48,139.97l-31.23,98.31
		l118.44-76.45c39.04,7.4,81.17,12.54,125.43,15.05l61.91,107.05c0,0,53.09-91.81,61.91-107.05c44.25-2.51,86.39-7.66,125.43-15.05
		l118.44,76.45l-31.23-98.31C5365.42-2576.6,5430.9-2627.11,5430.9-2683.83z M4832.52-2707.68l-17.91,17.45
		c-3.18,3.1-4.63,7.56-3.88,11.93l4.23,24.64c1.89,11.01-9.67,19.41-19.56,14.21l-22.13-11.63c-3.93-2.06-8.62-2.06-12.54,0
		l-22.13,11.63c-9.89,5.2-21.45-3.2-19.56-14.21l4.23-24.64c0.75-4.37-0.7-8.83-3.88-11.93l-17.91-17.45
		c-8-7.8-3.58-21.39,7.47-22.99l24.74-3.6c4.39-0.64,8.19-3.4,10.15-7.37l11.07-22.42c4.94-10.02,19.23-10.02,24.17,0l11.07,22.42
		c1.96,3.98,5.76,6.74,10.15,7.37l24.74,3.6C4836.1-2729.06,4840.52-2715.48,4832.52-2707.68z M5083.97-2688.13l-25.99,25.33
		c-4.61,4.49-6.72,10.97-5.63,17.32l6.13,35.77c2.74,15.98-14.03,28.17-28.38,20.62l-32.12-16.89c-5.7-3-12.51-3-18.21,0
		l-32.12,16.89c-14.35,7.55-31.13-4.64-28.38-20.62l6.13-35.77c1.09-6.35-1.01-12.82-5.63-17.32l-25.99-25.33
		c-11.61-11.32-5.2-31.04,10.84-33.37l35.91-5.22c6.37-0.93,11.88-4.93,14.73-10.7l16.06-32.54c7.17-14.54,27.91-14.54,35.08,0
		l16.06,32.54c2.85,5.77,8.36,9.77,14.73,10.7l35.91,5.22C5089.17-2719.16,5095.58-2699.44,5083.97-2688.13z M5276.29-2707.68
		l-17.91,17.45c-3.18,3.1-4.63,7.56-3.88,11.93l4.23,24.64c1.89,11.01-9.67,19.41-19.56,14.21l-22.13-11.63
		c-3.93-2.06-8.62-2.06-12.54,0l-22.13,11.63c-9.89,5.2-21.45-3.2-19.56-14.21l4.23-24.64c0.75-4.37-0.7-8.83-3.88-11.93
		l-17.91-17.45c-8-7.8-3.58-21.39,7.47-22.99l24.74-3.6c4.39-0.64,8.19-3.4,10.15-7.37l11.07-22.42c4.94-10.02,19.23-10.02,24.17,0
		l11.07,22.42c1.96,3.98,5.76,6.74,10.15,7.37l24.74,3.6C5279.87-2729.06,5284.29-2715.48,5276.29-2707.68z"/>
	
		<linearGradient id="SVGID_00000019648403600901980490000003818404430019837109_" gradientUnits="userSpaceOnUse" x1="4547.3101" y1="-2261.2244" x2="4799.6211" y2="-2261.2244">
		<stop  offset="5.586592e-03" style="stop-color:#001B5D"/>
		<stop  offset="0.9916" style="stop-color:#002B6B"/>
	</linearGradient>
	<circle style="fill:url(#SVGID_00000019648403600901980490000003818404430019837109_);" cx="4673.47" cy="-2261.22" r="126.16"/>
	
		<linearGradient id="SVGID_00000039096531405001364970000015081807374972737466_" gradientUnits="userSpaceOnUse" x1="4485.7715" y1="-2046.0936" x2="4839.9619" y2="-2046.0936">
		<stop  offset="5.586592e-03" style="stop-color:#001B5D"/>
		<stop  offset="0.9916" style="stop-color:#002B6B"/>
	</linearGradient>
	<path style="fill:url(#SVGID_00000039096531405001364970000015081807374972737466_);" d="M4839.96-2090.54
		c-42.6,18.95-72.28,61.71-72.28,111.36v9.06h-281.91v-63.22c0-48.97,39.75-88.72,88.72-88.72h28.01
		c21.8,9.06,45.78,14.09,70.94,14.09c25.16,0,49.14-5.03,71.11-14.09h27.84C4799.55-2122.06,4823.86-2109.82,4839.96-2090.54z"/>
	
		<linearGradient id="SVGID_00000111190620443059518620000011644241528110730906_" gradientUnits="userSpaceOnUse" x1="4862.7275" y1="-2207.165" x2="5115.0386" y2="-2207.165">
		<stop  offset="5.586592e-03" style="stop-color:#001B5D"/>
		<stop  offset="0.9916" style="stop-color:#002B6B"/>
	</linearGradient>
	<circle style="fill:url(#SVGID_00000111190620443059518620000011644241528110730906_);" cx="4988.88" cy="-2207.17" r="126.16"/>
	
		<linearGradient id="SVGID_00000044885595374151768170000006373492717589086089_" gradientUnits="userSpaceOnUse" x1="4801.1807" y1="-1991.9755" x2="5176.5776" y2="-1991.9755">
		<stop  offset="5.586592e-03" style="stop-color:#001B5D"/>
		<stop  offset="0.9916" style="stop-color:#002B6B"/>
	</linearGradient>
	<path style="fill:url(#SVGID_00000044885595374151768170000006373492717589086089_);" d="M5176.58-1979.21v63.22h-375.4v-63.22
		c0-49.11,39.79-88.74,88.74-88.74h27.96c21.89,9.02,45.85,14.05,71,14.05c25.14,0,49.11-5.03,71-14.05h27.96
		C5136.79-2067.96,5176.58-2028.32,5176.58-1979.21z"/>
</g>
<g>
	<g>
		<g>
			<path class="st16" d="M6651.27-2021.65c-45.02,0-81.52-36.5-81.52-81.52c0-45.02,36.5-81.52,81.52-81.52s81.52,36.5,81.52,81.52
				C6732.79-2058.15,6695.95-2021.65,6651.27-2021.65z M6651.27-2159.45c-31.04,0-56.28,25.24-56.28,56.28
				c0,31.04,25.24,56.28,56.28,56.28s56.28-25.24,56.28-56.28C6707.55-2134.21,6682.31-2159.45,6651.27-2159.45z"/>
		</g>
		<g>
			<path class="st16" d="M6664.23-1929.22h-25.92c-10.91,0-19.78-8.19-21.15-19.78l-2.39-18.08c-11.94-3.07-23.19-7.84-34.11-13.98
				l-14.33,11.26c-8.87,7.16-21.15,6.82-28.99-1.02l-18.42-18.42c-7.5-7.5-8.19-19.78-1.02-28.99l11.26-14.33
				c-6.14-10.57-10.91-22.17-13.98-34.11l-18.08-2.39c-11.26-1.36-19.78-10.23-19.78-21.15v-25.92c0-10.91,8.19-19.78,19.78-21.15
				l18.08-2.39c3.07-11.94,7.84-23.19,13.98-34.11l-11.26-14.33c-7.16-8.87-6.48-21.15,1.02-28.99l18.42-18.42
				c7.5-7.5,19.78-8.19,28.99-1.02l14.33,11.26c10.57-6.14,22.17-10.91,34.11-13.98l2.39-18.08c1.36-11.26,10.23-19.78,21.15-19.78
				h25.92c10.91,0,19.78,8.19,21.15,19.78l2.39,18.08c11.94,3.07,23.19,7.84,34.11,13.98l14.33-11.26
				c8.87-7.16,21.15-6.48,28.99,1.02l18.42,18.42c7.5,7.5,8.19,19.78,1.02,28.99l-11.26,14.33c6.14,10.57,10.91,22.17,13.98,34.11
				l18.08,2.39c11.26,1.36,19.78,10.23,19.78,21.15v25.92c0,10.91-8.19,19.78-19.78,21.15l-18.08,2.39
				c-3.07,11.94-7.84,23.19-13.98,34.11l11.26,14.33c7.16,8.87,6.82,21.15-1.02,28.99l-18.76,18.42c-7.5,7.5-19.78,8.19-28.99,1.02
				l-14.33-11.26c-10.57,6.14-22.17,10.91-34.11,13.98l-2.39,18.08C6684.01-1937.75,6675.15-1929.22,6664.23-1929.22z
				 M6641.72-1954.46h19.1l3.07-24.56c0.68-5.46,4.77-9.89,9.89-10.91c15.01-3.07,28.99-8.87,41.61-17.4
				c4.43-3.07,10.57-2.73,14.67,0.68l19.44,15.35l13.3-13.3l-15.35-19.44c-3.41-4.43-3.41-10.23-0.68-14.67
				c8.53-12.62,14.33-26.6,17.4-41.61c1.02-5.46,5.46-9.55,10.91-9.89l24.56-3.07v-19.1l-24.56-3.07
				c-5.46-0.68-9.89-4.77-10.91-9.89c-3.07-15.01-8.87-28.99-17.4-41.61c-3.07-4.43-2.73-10.57,0.68-14.67l15.35-19.44l-13.3-13.3
				l-19.44,15.35c-4.43,3.41-10.23,3.41-14.67,0.68c-12.62-8.53-26.6-14.33-41.61-17.4c-5.46-1.02-9.55-5.46-9.89-10.91l-3.07-24.56
				h-19.1l-3.07,24.56c-0.68,5.46-4.77,9.89-9.89,10.91c-15.01,3.07-28.99,8.87-41.61,17.4c-4.43,3.07-10.57,2.73-14.67-0.68
				l-19.44-15.35l-13.3,13.3l15.35,19.44c3.41,4.43,3.41,10.23,0.68,14.67c-8.53,12.62-14.33,26.6-17.4,41.61
				c-1.02,5.46-5.46,9.55-10.91,9.89l-24.56,3.07v19.1l24.56,3.07c5.46,0.68,9.89,4.78,10.91,9.89c3.07,15.01,8.87,28.99,17.4,41.61
				c3.07,4.43,2.73,10.57-0.68,14.67l-15.35,19.44l13.3,13.3l19.44-15.35c4.43-3.41,10.23-3.41,14.67-0.68
				c12.62,8.53,26.6,14.33,41.61,17.4c5.46,1.02,9.55,5.46,9.89,10.91L6641.72-1954.46z"/>
		</g>
		<g>
			<path class="st16" d="M6088.49-2595.69h-105.73c-6.82,0-12.62-5.8-12.62-12.62c0-19.78-5.8-26.95-13.98-36.84
				c-9.55-11.6-21.49-25.92-21.49-60.37c0-55.6,45.36-100.96,100.96-100.96c55.6,0,100.96,45.36,100.96,100.96
				c0,34.11-11.94,48.77-21.49,60.37c-8.19,9.89-13.98,17.05-13.98,36.84C6100.77-2601.49,6095.31-2595.69,6088.49-2595.69z
				 M5994.69-2620.93h81.86c2.73-20.12,11.26-30.7,19.1-40.25c8.53-10.23,15.69-19.1,15.69-44c0-41.95-34.11-76.06-76.06-76.06
				c-41.95,0-76.06,34.11-76.06,76.06c0,25.24,7.5,33.77,15.69,44C5983.44-2651.63,5991.96-2641.39,5994.69-2620.93z"/>
		</g>
		<g>
			<path class="st16" d="M6063.25-2523.38h-55.6c-13.64,0-24.9-11.26-24.9-24.9v-21.83c0-6.82,5.8-12.62,12.62-12.62h80.15
				c6.82,0,12.62,5.8,12.62,12.62v21.83C6088.15-2534.64,6076.89-2523.38,6063.25-2523.38z M6007.99-2548.62h54.91v-8.87h-54.91
				V-2548.62z"/>
		</g>
		<g>
			<path class="st16" d="M6035.62-2823.87c-6.82,0-12.62-5.8-12.62-12.62v-31.38c0-6.82,5.8-12.62,12.62-12.62
				c6.82,0,12.62,5.8,12.62,12.62v31.38C6048.24-2829.67,6042.44-2823.87,6035.62-2823.87z"/>
		</g>
		<g>
			<path class="st16" d="M6103.16-2805.79c-2.05,0-4.43-0.68-6.14-1.71c-6.14-3.41-8.19-11.26-4.77-17.05l15.69-27.29
				c3.41-6.14,11.26-8.19,17.05-4.78c6.14,3.41,8.19,11.26,4.77,17.05l-15.69,27.29
				C6111.68-2808.18,6107.25-2805.79,6103.16-2805.79z"/>
		</g>
		<g>
			<path class="st16" d="M6152.27-2756.68c-4.43,0-8.53-2.39-10.91-6.14c-3.41-6.14-1.36-13.64,4.78-17.05l27.29-15.69
				c6.14-3.41,13.64-1.36,17.05,4.78s1.36,13.64-4.77,17.05l-27.29,15.69C6156.7-2757.02,6154.66-2756.68,6152.27-2756.68z"/>
		</g>
		<g>
			<path class="st16" d="M6201.73-2689.15h-31.38c-6.82,0-12.62-5.8-12.62-12.62c0-6.82,5.8-12.62,12.62-12.62h31.38
				c6.82,0,12.62,5.8,12.62,12.62C6214.35-2694.94,6208.89-2689.15,6201.73-2689.15z"/>
		</g>
		<g>
			<path class="st16" d="M5968.09-2805.79c-4.43,0-8.53-2.39-10.91-6.14l-15.69-27.29c-3.41-6.14-1.36-13.64,4.77-17.05
				c6.14-3.41,13.64-1.36,17.05,4.78l15.69,27.29c3.41,6.14,1.36,13.64-4.77,17.05C5972.52-2806.48,5970.13-2805.79,5968.09-2805.79
				z"/>
		</g>
		<g>
			<path class="st16" d="M5918.63-2756.68c-2.05,0-4.43-0.68-6.14-1.71l-27.29-15.69c-6.14-3.41-8.19-11.26-4.77-17.05
				c3.41-6.14,11.26-8.19,17.05-4.78l27.29,15.69c6.14,3.41,8.19,11.26,4.77,17.05C5927.5-2758.73,5923.06-2756.68,5918.63-2756.68z
				"/>
		</g>
		<g>
			<path class="st16" d="M5900.55-2689.15h-31.38c-6.82,0-12.62-5.8-12.62-12.62c0-6.82,5.8-12.62,12.62-12.62h31.38
				c6.82,0,12.62,5.8,12.62,12.62C5913.17-2694.94,5907.72-2689.15,5900.55-2689.15z"/>
		</g>
		<g>
			<path class="st16" d="M6092.58-2557.49h-113.92c-6.82,0-12.62-5.8-12.62-12.62v-38.2c0-6.82,5.8-12.62,12.62-12.62h113.92
				c6.82,0,12.62,5.8,12.62,12.62v38.2C6105.2-2563.29,6099.4-2557.49,6092.58-2557.49z M5991.28-2582.73h88.68v-12.96h-88.68
				V-2582.73z"/>
		</g>
		<g>
			<path class="st16" d="M6035.62-2595.69c-6.82,0-12.62-5.8-12.62-12.62v-77.08c0-6.82,5.8-12.62,12.62-12.62
				c6.82,0,12.62,5.8,12.62,12.62v77.08C6048.24-2601.49,6042.44-2595.69,6035.62-2595.69z"/>
		</g>
		<g>
			<path class="st16" d="M6035.62-2672.77c-20.81,0-37.86-17.05-37.86-37.86s17.05-37.86,37.86-37.86
				c20.81,0,37.86,17.05,37.86,37.86S6056.43-2672.77,6035.62-2672.77z M6035.62-2723.94c-7.16,0-12.96,5.8-12.96,12.96
				c0,7.16,5.8,12.96,12.96,12.96s12.96-5.8,12.96-12.96C6048.58-2718.14,6042.78-2723.94,6035.62-2723.94z"/>
		</g>
		<g>
			<path class="st16" d="M6493.35-2231.08h-282.07c-16.71,0-30.36-13.64-30.36-30.36v-275.25c0-16.71,13.64-30.36,30.36-30.36
				h282.07c16.71,0,30.36,13.64,30.36,30.36v275.25C6523.71-2244.72,6510.06-2231.08,6493.35-2231.08z M6211.28-2541.8
				c-2.73,0-5.12,2.39-5.12,5.12v275.25c0,2.73,2.39,5.12,5.12,5.12h282.07c2.73,0,5.12-2.39,5.12-5.12v-275.25
				c0-2.73-2.39-5.12-5.12-5.12H6211.28L6211.28-2541.8z"/>
		</g>
		<g>
			<path class="st16" d="M6393.41-2412.19c-4.09,0-7.84-1.71-10.23-5.12l-30.7-41.61l-30.7,41.61c-3.07,4.43-8.87,6.14-13.98,4.43
				c-5.12-1.71-8.53-6.48-8.53-11.94v-129.61c0-6.82,5.8-12.62,12.62-12.62h81.52c6.82,0,12.62,5.8,12.62,12.62v129.61
				c0,5.46-3.41,10.23-8.53,11.94C6395.8-2412.53,6394.44-2412.19,6393.41-2412.19z M6324.17-2541.8v78.79l18.08-24.56
				c2.39-3.07,6.14-5.12,10.23-5.12l0,0c4.09,0,7.85,2.05,10.23,5.12l18.08,24.56v-78.79H6324.17z"/>
		</g>
		<g>
			<path class="st16" d="M6350.78-1988.23c-226.82,0-411-184.52-411-411c0-36.5,4.78-72.99,14.33-108.12
				c1.71-6.82,8.87-10.57,15.35-8.87c6.82,1.71,10.57,8.87,8.87,15.35c-8.87,33.08-13.64,67.19-13.64,101.64
				c0,212.83,173.27,386.1,386.1,386.1c40.93,0,81.18-6.48,119.72-19.1c6.48-2.05,13.64,1.36,15.69,8.19
				c2.05,6.48-1.36,13.64-8.19,15.69C6437.07-1995.05,6394.1-1988.23,6350.78-1988.23z M6737.56-2291.45c-1.02,0-2.05,0-3.07-0.34
				c-6.82-1.71-10.91-8.53-9.21-15.35c7.5-30.01,11.26-61.05,11.26-92.09c0-212.83-173.27-386.1-386.1-386.1
				c-31.04,0-62.08,3.75-92.09,11.26c-6.82,1.71-13.64-2.39-15.35-9.21c-1.71-6.82,2.39-13.64,9.21-15.35
				c32.06-7.84,65.15-11.94,98.23-11.94c226.82,0,411,184.52,411,411c0,33.08-4.09,66.17-11.94,98.23
				C6748.48-2295.54,6743.36-2291.45,6737.56-2291.45z"/>
		</g>
		<g>
			<path class="st16" d="M6737.56-2291.45c-1.02,0-2.05,0-3.41-0.34c-4.43-1.02-7.84-4.43-8.87-8.87l-23.88-89.02
				c-1.71-6.82,2.05-13.64,8.87-15.35s13.64,2.05,15.35,8.87l18.08,67.87l49.8-49.8c4.77-4.78,12.96-4.78,17.74,0
				c4.78,4.78,4.78,12.96,0,17.74l-65.15,65.15C6744.04-2292.81,6740.97-2291.45,6737.56-2291.45z"/>
		</g>
		<g>
			<path class="st16" d="M5989.92-2402.64c-5.46,0-10.57-3.75-12.28-9.21l-18.08-67.88l-49.8,49.8c-4.78,4.78-12.96,4.78-17.74,0
				c-4.77-4.77-4.77-12.96,0-17.74l65.15-65.15c3.07-3.07,7.85-4.43,12.28-3.41c4.43,1.02,7.84,4.43,8.87,8.87l23.88,89.02
				c1.71,6.82-2.05,13.64-8.87,15.35C5992.3-2402.64,5990.94-2402.64,5989.92-2402.64z"/>
		</g>
	</g>
	<g>
		<g>
			
				<linearGradient id="SVGID_00000120525123655176793740000008412494902287046847_" gradientUnits="userSpaceOnUse" x1="5856.5547" y1="-2404.8552" x2="6825.2212" y2="-2404.8552">
				<stop  offset="5.586592e-03" style="stop-color:#001B5D"/>
				<stop  offset="0.9916" style="stop-color:#002B6B"/>
			</linearGradient>
			<path style="fill:url(#SVGID_00000120525123655176793740000008412494902287046847_);" d="M6651.27-2021.65
				c-45.02,0-81.52-36.5-81.52-81.52c0-45.02,36.5-81.52,81.52-81.52s81.52,36.5,81.52,81.52
				C6732.79-2058.15,6695.95-2021.65,6651.27-2021.65z M6651.27-2159.45c-31.04,0-56.28,25.24-56.28,56.28
				c0,31.04,25.24,56.28,56.28,56.28s56.28-25.24,56.28-56.28C6707.55-2134.21,6682.31-2159.45,6651.27-2159.45z"/>
		</g>
		<g>
			
				<linearGradient id="SVGID_00000127754326992648025050000004864679900987764131_" gradientUnits="userSpaceOnUse" x1="5856.5547" y1="-2404.8552" x2="6825.2212" y2="-2404.8552">
				<stop  offset="5.586592e-03" style="stop-color:#001B5D"/>
				<stop  offset="0.9916" style="stop-color:#002B6B"/>
			</linearGradient>
			<path style="fill:url(#SVGID_00000127754326992648025050000004864679900987764131_);" d="M6664.23-1929.22h-25.92
				c-10.91,0-19.78-8.19-21.15-19.78l-2.39-18.08c-11.94-3.07-23.19-7.84-34.11-13.98l-14.33,11.26
				c-8.87,7.16-21.15,6.82-28.99-1.02l-18.42-18.42c-7.5-7.5-8.19-19.78-1.02-28.99l11.26-14.33
				c-6.14-10.57-10.91-22.17-13.98-34.11l-18.08-2.39c-11.26-1.36-19.78-10.23-19.78-21.15v-25.92c0-10.91,8.19-19.78,19.78-21.15
				l18.08-2.39c3.07-11.94,7.84-23.19,13.98-34.11l-11.26-14.33c-7.16-8.87-6.48-21.15,1.02-28.99l18.42-18.42
				c7.5-7.5,19.78-8.19,28.99-1.02l14.33,11.26c10.57-6.14,22.17-10.91,34.11-13.98l2.39-18.08c1.36-11.26,10.23-19.78,21.15-19.78
				h25.92c10.91,0,19.78,8.19,21.15,19.78l2.39,18.08c11.94,3.07,23.19,7.84,34.11,13.98l14.33-11.26
				c8.87-7.16,21.15-6.48,28.99,1.02l18.42,18.42c7.5,7.5,8.19,19.78,1.02,28.99l-11.26,14.33c6.14,10.57,10.91,22.17,13.98,34.11
				l18.08,2.39c11.26,1.36,19.78,10.23,19.78,21.15v25.92c0,10.91-8.19,19.78-19.78,21.15l-18.08,2.39
				c-3.07,11.94-7.84,23.19-13.98,34.11l11.26,14.33c7.16,8.87,6.82,21.15-1.02,28.99l-18.76,18.42c-7.5,7.5-19.78,8.19-28.99,1.02
				l-14.33-11.26c-10.57,6.14-22.17,10.91-34.11,13.98l-2.39,18.08C6684.01-1937.75,6675.15-1929.22,6664.23-1929.22z
				 M6641.72-1954.46h19.1l3.07-24.56c0.68-5.46,4.77-9.89,9.89-10.91c15.01-3.07,28.99-8.87,41.61-17.4
				c4.43-3.07,10.57-2.73,14.67,0.68l19.44,15.35l13.3-13.3l-15.35-19.44c-3.41-4.43-3.41-10.23-0.68-14.67
				c8.53-12.62,14.33-26.6,17.4-41.61c1.02-5.46,5.46-9.55,10.91-9.89l24.56-3.07v-19.1l-24.56-3.07
				c-5.46-0.68-9.89-4.77-10.91-9.89c-3.07-15.01-8.87-28.99-17.4-41.61c-3.07-4.43-2.73-10.57,0.68-14.67l15.35-19.44l-13.3-13.3
				l-19.44,15.35c-4.43,3.41-10.23,3.41-14.67,0.68c-12.62-8.53-26.6-14.33-41.61-17.4c-5.46-1.02-9.55-5.46-9.89-10.91l-3.07-24.56
				h-19.1l-3.07,24.56c-0.68,5.46-4.77,9.89-9.89,10.91c-15.01,3.07-28.99,8.87-41.61,17.4c-4.43,3.07-10.57,2.73-14.67-0.68
				l-19.44-15.35l-13.3,13.3l15.35,19.44c3.41,4.43,3.41,10.23,0.68,14.67c-8.53,12.62-14.33,26.6-17.4,41.61
				c-1.02,5.46-5.46,9.55-10.91,9.89l-24.56,3.07v19.1l24.56,3.07c5.46,0.68,9.89,4.78,10.91,9.89c3.07,15.01,8.87,28.99,17.4,41.61
				c3.07,4.43,2.73,10.57-0.68,14.67l-15.35,19.44l13.3,13.3l19.44-15.35c4.43-3.41,10.23-3.41,14.67-0.68
				c12.62,8.53,26.6,14.33,41.61,17.4c5.46,1.02,9.55,5.46,9.89,10.91L6641.72-1954.46z"/>
		</g>
		<g>
			
				<linearGradient id="SVGID_00000027574979426943034680000013335501207675413410_" gradientUnits="userSpaceOnUse" x1="5856.5547" y1="-2404.8552" x2="6825.2212" y2="-2404.8552">
				<stop  offset="5.586592e-03" style="stop-color:#001B5D"/>
				<stop  offset="0.9916" style="stop-color:#002B6B"/>
			</linearGradient>
			<path style="fill:url(#SVGID_00000027574979426943034680000013335501207675413410_);" d="M6088.49-2595.69h-105.73
				c-6.82,0-12.62-5.8-12.62-12.62c0-19.78-5.8-26.95-13.98-36.84c-9.55-11.6-21.49-25.92-21.49-60.37
				c0-55.6,45.36-100.96,100.96-100.96c55.6,0,100.96,45.36,100.96,100.96c0,34.11-11.94,48.77-21.49,60.37
				c-8.19,9.89-13.98,17.05-13.98,36.84C6100.77-2601.49,6095.31-2595.69,6088.49-2595.69z M5994.69-2620.93h81.86
				c2.73-20.12,11.26-30.7,19.1-40.25c8.53-10.23,15.69-19.1,15.69-44c0-41.95-34.11-76.06-76.06-76.06
				c-41.95,0-76.06,34.11-76.06,76.06c0,25.24,7.5,33.77,15.69,44C5983.44-2651.63,5991.96-2641.39,5994.69-2620.93z"/>
		</g>
		<g>
			
				<linearGradient id="SVGID_00000023968400231138905710000006280605393604507019_" gradientUnits="userSpaceOnUse" x1="5856.5547" y1="-2404.8552" x2="6825.2212" y2="-2404.8552">
				<stop  offset="5.586592e-03" style="stop-color:#001B5D"/>
				<stop  offset="0.9916" style="stop-color:#002B6B"/>
			</linearGradient>
			<path style="fill:url(#SVGID_00000023968400231138905710000006280605393604507019_);" d="M6063.25-2523.38h-55.6
				c-13.64,0-24.9-11.26-24.9-24.9v-21.83c0-6.82,5.8-12.62,12.62-12.62h80.15c6.82,0,12.62,5.8,12.62,12.62v21.83
				C6088.15-2534.64,6076.89-2523.38,6063.25-2523.38z M6007.99-2548.62h54.91v-8.87h-54.91V-2548.62z"/>
		</g>
		<g>
			
				<linearGradient id="SVGID_00000176036295320112352880000008479151877755650738_" gradientUnits="userSpaceOnUse" x1="5856.5547" y1="-2404.8552" x2="6825.2212" y2="-2404.8552">
				<stop  offset="5.586592e-03" style="stop-color:#001B5D"/>
				<stop  offset="0.9916" style="stop-color:#002B6B"/>
			</linearGradient>
			<path style="fill:url(#SVGID_00000176036295320112352880000008479151877755650738_);" d="M6035.62-2823.87
				c-6.82,0-12.62-5.8-12.62-12.62v-31.38c0-6.82,5.8-12.62,12.62-12.62c6.82,0,12.62,5.8,12.62,12.62v31.38
				C6048.24-2829.67,6042.44-2823.87,6035.62-2823.87z"/>
		</g>
		<g>
			
				<linearGradient id="SVGID_00000007428224040784207990000011191335629702013322_" gradientUnits="userSpaceOnUse" x1="5856.5547" y1="-2404.8552" x2="6825.2212" y2="-2404.8552">
				<stop  offset="5.586592e-03" style="stop-color:#001B5D"/>
				<stop  offset="0.9916" style="stop-color:#002B6B"/>
			</linearGradient>
			<path style="fill:url(#SVGID_00000007428224040784207990000011191335629702013322_);" d="M6103.16-2805.79
				c-2.05,0-4.43-0.68-6.14-1.71c-6.14-3.41-8.19-11.26-4.77-17.05l15.69-27.29c3.41-6.14,11.26-8.19,17.05-4.78
				c6.14,3.41,8.19,11.26,4.77,17.05l-15.69,27.29C6111.68-2808.18,6107.25-2805.79,6103.16-2805.79z"/>
		</g>
		<g>
			
				<linearGradient id="SVGID_00000138539548153341588230000002421363219101864093_" gradientUnits="userSpaceOnUse" x1="5856.5547" y1="-2404.8552" x2="6825.2212" y2="-2404.8552">
				<stop  offset="5.586592e-03" style="stop-color:#001B5D"/>
				<stop  offset="0.9916" style="stop-color:#002B6B"/>
			</linearGradient>
			<path style="fill:url(#SVGID_00000138539548153341588230000002421363219101864093_);" d="M6152.27-2756.68
				c-4.43,0-8.53-2.39-10.91-6.14c-3.41-6.14-1.36-13.64,4.78-17.05l27.29-15.69c6.14-3.41,13.64-1.36,17.05,4.78
				s1.36,13.64-4.77,17.05l-27.29,15.69C6156.7-2757.02,6154.66-2756.68,6152.27-2756.68z"/>
		</g>
		<g>
			
				<linearGradient id="SVGID_00000123424487533105283280000013067933829758136979_" gradientUnits="userSpaceOnUse" x1="5856.5547" y1="-2404.8552" x2="6825.2212" y2="-2404.8552">
				<stop  offset="5.586592e-03" style="stop-color:#001B5D"/>
				<stop  offset="0.9916" style="stop-color:#002B6B"/>
			</linearGradient>
			<path style="fill:url(#SVGID_00000123424487533105283280000013067933829758136979_);" d="M6201.73-2689.15h-31.38
				c-6.82,0-12.62-5.8-12.62-12.62c0-6.82,5.8-12.62,12.62-12.62h31.38c6.82,0,12.62,5.8,12.62,12.62
				C6214.35-2694.94,6208.89-2689.15,6201.73-2689.15z"/>
		</g>
		<g>
			
				<linearGradient id="SVGID_00000052821222754020926530000013821999705515469696_" gradientUnits="userSpaceOnUse" x1="5856.5547" y1="-2404.8552" x2="6825.2212" y2="-2404.8552">
				<stop  offset="5.586592e-03" style="stop-color:#001B5D"/>
				<stop  offset="0.9916" style="stop-color:#002B6B"/>
			</linearGradient>
			<path style="fill:url(#SVGID_00000052821222754020926530000013821999705515469696_);" d="M5968.09-2805.79
				c-4.43,0-8.53-2.39-10.91-6.14l-15.69-27.29c-3.41-6.14-1.36-13.64,4.77-17.05c6.14-3.41,13.64-1.36,17.05,4.78l15.69,27.29
				c3.41,6.14,1.36,13.64-4.77,17.05C5972.52-2806.48,5970.13-2805.79,5968.09-2805.79z"/>
		</g>
		<g>
			
				<linearGradient id="SVGID_00000148651983957144774550000001148897185362537108_" gradientUnits="userSpaceOnUse" x1="5856.5547" y1="-2404.8552" x2="6825.2212" y2="-2404.8552">
				<stop  offset="5.586592e-03" style="stop-color:#001B5D"/>
				<stop  offset="0.9916" style="stop-color:#002B6B"/>
			</linearGradient>
			<path style="fill:url(#SVGID_00000148651983957144774550000001148897185362537108_);" d="M5918.63-2756.68
				c-2.05,0-4.43-0.68-6.14-1.71l-27.29-15.69c-6.14-3.41-8.19-11.26-4.77-17.05c3.41-6.14,11.26-8.19,17.05-4.78l27.29,15.69
				c6.14,3.41,8.19,11.26,4.77,17.05C5927.5-2758.73,5923.06-2756.68,5918.63-2756.68z"/>
		</g>
		<g>
			
				<linearGradient id="SVGID_00000010993315306488776800000002497177777913898636_" gradientUnits="userSpaceOnUse" x1="5856.5547" y1="-2404.8552" x2="6825.2212" y2="-2404.8552">
				<stop  offset="5.586592e-03" style="stop-color:#001B5D"/>
				<stop  offset="0.9916" style="stop-color:#002B6B"/>
			</linearGradient>
			<path style="fill:url(#SVGID_00000010993315306488776800000002497177777913898636_);" d="M5900.55-2689.15h-31.38
				c-6.82,0-12.62-5.8-12.62-12.62c0-6.82,5.8-12.62,12.62-12.62h31.38c6.82,0,12.62,5.8,12.62,12.62
				C5913.17-2694.94,5907.72-2689.15,5900.55-2689.15z"/>
		</g>
		<g>
			
				<linearGradient id="SVGID_00000061462747510580236070000003985368642142354320_" gradientUnits="userSpaceOnUse" x1="5856.5547" y1="-2404.8552" x2="6825.2212" y2="-2404.8552">
				<stop  offset="5.586592e-03" style="stop-color:#001B5D"/>
				<stop  offset="0.9916" style="stop-color:#002B6B"/>
			</linearGradient>
			<path style="fill:url(#SVGID_00000061462747510580236070000003985368642142354320_);" d="M6092.58-2557.49h-113.92
				c-6.82,0-12.62-5.8-12.62-12.62v-38.2c0-6.82,5.8-12.62,12.62-12.62h113.92c6.82,0,12.62,5.8,12.62,12.62v38.2
				C6105.2-2563.29,6099.4-2557.49,6092.58-2557.49z M5991.28-2582.73h88.68v-12.96h-88.68V-2582.73z"/>
		</g>
		<g>
			
				<linearGradient id="SVGID_00000162338286584696791700000004178098128669255844_" gradientUnits="userSpaceOnUse" x1="5856.5547" y1="-2404.8552" x2="6825.2212" y2="-2404.8552">
				<stop  offset="5.586592e-03" style="stop-color:#001B5D"/>
				<stop  offset="0.9916" style="stop-color:#002B6B"/>
			</linearGradient>
			<path style="fill:url(#SVGID_00000162338286584696791700000004178098128669255844_);" d="M6035.62-2595.69
				c-6.82,0-12.62-5.8-12.62-12.62v-77.08c0-6.82,5.8-12.62,12.62-12.62c6.82,0,12.62,5.8,12.62,12.62v77.08
				C6048.24-2601.49,6042.44-2595.69,6035.62-2595.69z"/>
		</g>
		<g>
			
				<linearGradient id="SVGID_00000106865920146174570970000009655156754388837014_" gradientUnits="userSpaceOnUse" x1="5856.5547" y1="-2404.8552" x2="6825.2212" y2="-2404.8552">
				<stop  offset="5.586592e-03" style="stop-color:#001B5D"/>
				<stop  offset="0.9916" style="stop-color:#002B6B"/>
			</linearGradient>
			<path style="fill:url(#SVGID_00000106865920146174570970000009655156754388837014_);" d="M6035.62-2672.77
				c-20.81,0-37.86-17.05-37.86-37.86s17.05-37.86,37.86-37.86c20.81,0,37.86,17.05,37.86,37.86S6056.43-2672.77,6035.62-2672.77z
				 M6035.62-2723.94c-7.16,0-12.96,5.8-12.96,12.96c0,7.16,5.8,12.96,12.96,12.96s12.96-5.8,12.96-12.96
				C6048.58-2718.14,6042.78-2723.94,6035.62-2723.94z"/>
		</g>
		<g>
			
				<linearGradient id="SVGID_00000063599151660248850830000011118136916624754575_" gradientUnits="userSpaceOnUse" x1="5856.5547" y1="-2404.8552" x2="6825.2212" y2="-2404.8552">
				<stop  offset="5.586592e-03" style="stop-color:#001B5D"/>
				<stop  offset="0.9916" style="stop-color:#002B6B"/>
			</linearGradient>
			<path style="fill:url(#SVGID_00000063599151660248850830000011118136916624754575_);" d="M6493.35-2231.08h-282.07
				c-16.71,0-30.36-13.64-30.36-30.36v-275.25c0-16.71,13.64-30.36,30.36-30.36h282.07c16.71,0,30.36,13.64,30.36,30.36v275.25
				C6523.71-2244.72,6510.06-2231.08,6493.35-2231.08z M6211.28-2541.8c-2.73,0-5.12,2.39-5.12,5.12v275.25
				c0,2.73,2.39,5.12,5.12,5.12h282.07c2.73,0,5.12-2.39,5.12-5.12v-275.25c0-2.73-2.39-5.12-5.12-5.12H6211.28L6211.28-2541.8z"/>
		</g>
		<g>
			
				<linearGradient id="SVGID_00000165195793584828860490000014165256707551968174_" gradientUnits="userSpaceOnUse" x1="5856.5547" y1="-2404.8552" x2="6825.2212" y2="-2404.8552">
				<stop  offset="5.586592e-03" style="stop-color:#001B5D"/>
				<stop  offset="0.9916" style="stop-color:#002B6B"/>
			</linearGradient>
			<path style="fill:url(#SVGID_00000165195793584828860490000014165256707551968174_);" d="M6393.41-2412.19
				c-4.09,0-7.84-1.71-10.23-5.12l-30.7-41.61l-30.7,41.61c-3.07,4.43-8.87,6.14-13.98,4.43c-5.12-1.71-8.53-6.48-8.53-11.94
				v-129.61c0-6.82,5.8-12.62,12.62-12.62h81.52c6.82,0,12.62,5.8,12.62,12.62v129.61c0,5.46-3.41,10.23-8.53,11.94
				C6395.8-2412.53,6394.44-2412.19,6393.41-2412.19z M6324.17-2541.8v78.79l18.08-24.56c2.39-3.07,6.14-5.12,10.23-5.12l0,0
				c4.09,0,7.85,2.05,10.23,5.12l18.08,24.56v-78.79H6324.17z"/>
		</g>
		<g>
			
				<linearGradient id="SVGID_00000118355529023556790780000013979607817157295003_" gradientUnits="userSpaceOnUse" x1="5856.5547" y1="-2404.8552" x2="6825.2212" y2="-2404.8552">
				<stop  offset="5.586592e-03" style="stop-color:#001B5D"/>
				<stop  offset="0.9916" style="stop-color:#002B6B"/>
			</linearGradient>
			<path style="fill:url(#SVGID_00000118355529023556790780000013979607817157295003_);" d="M6350.78-1988.23
				c-226.82,0-411-184.52-411-411c0-36.5,4.78-72.99,14.33-108.12c1.71-6.82,8.87-10.57,15.35-8.87c6.82,1.71,10.57,8.87,8.87,15.35
				c-8.87,33.08-13.64,67.19-13.64,101.64c0,212.83,173.27,386.1,386.1,386.1c40.93,0,81.18-6.48,119.72-19.1
				c6.48-2.05,13.64,1.36,15.69,8.19c2.05,6.48-1.36,13.64-8.19,15.69C6437.07-1995.05,6394.1-1988.23,6350.78-1988.23z
				 M6737.56-2291.45c-1.02,0-2.05,0-3.07-0.34c-6.82-1.71-10.91-8.53-9.21-15.35c7.5-30.01,11.26-61.05,11.26-92.09
				c0-212.83-173.27-386.1-386.1-386.1c-31.04,0-62.08,3.75-92.09,11.26c-6.82,1.71-13.64-2.39-15.35-9.21
				c-1.71-6.82,2.39-13.64,9.21-15.35c32.06-7.84,65.15-11.94,98.23-11.94c226.82,0,411,184.52,411,411
				c0,33.08-4.09,66.17-11.94,98.23C6748.48-2295.54,6743.36-2291.45,6737.56-2291.45z"/>
		</g>
		<g>
			
				<linearGradient id="SVGID_00000108300534023821505460000000691109456375065791_" gradientUnits="userSpaceOnUse" x1="5856.5547" y1="-2404.8552" x2="6825.2212" y2="-2404.8552">
				<stop  offset="5.586592e-03" style="stop-color:#001B5D"/>
				<stop  offset="0.9916" style="stop-color:#002B6B"/>
			</linearGradient>
			<path style="fill:url(#SVGID_00000108300534023821505460000000691109456375065791_);" d="M6737.56-2291.45
				c-1.02,0-2.05,0-3.41-0.34c-4.43-1.02-7.84-4.43-8.87-8.87l-23.88-89.02c-1.71-6.82,2.05-13.64,8.87-15.35s13.64,2.05,15.35,8.87
				l18.08,67.87l49.8-49.8c4.77-4.78,12.96-4.78,17.74,0c4.78,4.78,4.78,12.96,0,17.74l-65.15,65.15
				C6744.04-2292.81,6740.97-2291.45,6737.56-2291.45z"/>
		</g>
		<g>
			
				<linearGradient id="SVGID_00000001642419848385173430000010539492007648072859_" gradientUnits="userSpaceOnUse" x1="5856.5547" y1="-2404.8552" x2="6825.2212" y2="-2404.8552">
				<stop  offset="5.586592e-03" style="stop-color:#001B5D"/>
				<stop  offset="0.9916" style="stop-color:#002B6B"/>
			</linearGradient>
			<path style="fill:url(#SVGID_00000001642419848385173430000010539492007648072859_);" d="M5989.92-2402.64
				c-5.46,0-10.57-3.75-12.28-9.21l-18.08-67.88l-49.8,49.8c-4.78,4.78-12.96,4.78-17.74,0c-4.77-4.77-4.77-12.96,0-17.74
				l65.15-65.15c3.07-3.07,7.85-4.43,12.28-3.41c4.43,1.02,7.84,4.43,8.87,8.87l23.88,89.02c1.71,6.82-2.05,13.64-8.87,15.35
				C5992.3-2402.64,5990.94-2402.64,5989.92-2402.64z"/>
		</g>
	</g>
</g>
<g>
	
		<linearGradient id="SVGID_00000146467511251567009650000012520569559393288859_" gradientUnits="userSpaceOnUse" x1="5" y1="255" x2="505" y2="255">
		<stop  offset="5.586592e-03" style="stop-color:#001B5D"/>
		<stop  offset="0.9916" style="stop-color:#002B6B"/>
	</linearGradient>
	<path style="fill-rule:evenodd;clip-rule:evenodd;fill:url(#SVGID_00000146467511251567009650000012520569559393288859_);" d="
		M255,4.93c138.05,0,250,111.95,250,250c0,138.2-111.95,250.15-250,250.15c-138.05,0-250-111.95-250-250.15
		C5,116.88,116.95,4.93,255,4.93L255,4.93z"/>
	<path class="st37" d="M254.71,16.24c61.92,0,118.33,23.5,160.67,62.07l-8.85,3.48l-4.79,5.08l1.16,5.95l5.8,0.87l3.48,8.7
		l10.01-4.06l1.59,11.75h-2.9l-8.27-1.16l-9.13,1.45l-8.85,12.47l-12.61,2.03l-1.74,10.73l5.37,1.31l-1.59,6.96l-12.47-2.61
		l-11.6,2.61l-2.32,6.38l1.88,13.34l6.82,3.19l11.31-0.14l7.54-0.58l2.47-6.09l11.89-15.52l7.83,1.59l7.69-6.96l1.45,5.37
		l18.99,12.9l-2.32,3.19l-8.56-0.58l3.34,4.79l5.22,1.16l6.23-2.61l-0.14-7.54l2.76-1.3l-2.18-2.32l-12.76-7.1l-3.34-9.43h10.59
		l3.34,3.34l9.14,7.83l0.44,9.43l9.42,10.15l3.48-13.78l6.52-3.62l1.16,11.31l6.38,6.96h2.61c2.61,6.67,5.08,13.49,7.1,20.3h-11.17
		l-11.89-8.7l-12.47,1.16v7.54h-3.92l-4.21-3.05l-21.75-5.37v-14.06l-27.26,2.17l-8.55,4.5h-10.88l-5.22-0.43l-13.2,7.25v13.78
		l-26.97,19.43l2.18,8.27h5.51l-1.45,7.97l-3.77,1.45l-0.29,20.59l23.35,26.54h10.15l0.58-1.6h18.27l5.22-4.93h10.3l5.8,5.8
		l15.37,1.6l-2.03,20.44l17.11,30.16l-9.14,17.26l0.72,8.12l7.11,6.96v19.58l9.28,12.47v12.32
		c-43.79,54.38-110.79,89.04-186.05,89.04c-123.55,0-225.2-93.97-237.53-214.33l0,0c-0.15-1.88-0.29-3.77-0.43-5.65v-0.15
		c-0.58-6.09-0.72-12.33-0.72-18.71v-1.45v-2.75l0.15-3.48l0.14-3.48v-2.03c0.15-1.59,0.15-3.05,0.29-4.5l0.15-1.16
		c2.03-26.68,8.56-52.06,18.71-75.7v13.05l10.15,4.93v19.29l9.71,16.53l7.83,1.16l1.01-5.65l-9.28-14.36L53,181.41h5.51l2.32,14.35
		l13.49,19.58l-3.48,6.38l8.56,13.05l21.32,5.37v-3.48l8.41,1.3l-0.72,6.09l6.67,1.16l10.3,2.9l14.65,16.53l18.56,1.45l1.89,15.22
		l-12.76,8.85l-0.58,13.63l-1.88,8.26l18.41,23.06l1.45,7.98c0,0,6.67,1.74,7.54,1.74c0.72,0,14.94,10.88,14.94,10.88v41.62
		l5.08,1.45l-3.48,19.29l8.56,11.31l-1.6,19.14l11.31,19.72l14.36,12.61l14.5,0.15l1.45-4.64l-10.73-8.99l0.72-4.35l1.88-5.51
		l0.44-5.51l-7.25-0.29l-3.63-4.5l5.95-5.8l0.87-4.35l-6.67-1.88l0.29-4.06l9.57-1.45l14.5-6.96l4.79-8.99l15.23-19.43l-3.48-15.23
		l4.79-7.97l13.92,0.29l9.42-7.39l3.05-29.3l10.44-13.34l1.74-8.41l-9.43-3.04l-6.38-10.44l-21.46-0.15l-16.97-6.52l-0.87-12.19
		l-5.66-9.86l-15.37-0.29l-8.85-13.92l-7.97-3.77l-0.43,4.21l-14.36,0.87l-5.22-7.4l-15.08-3.04l-12.33,14.36l-19.43-3.34
		l-1.45-21.9l-14.21-2.47l5.8-10.73l-1.74-6.23l-18.56,12.47l-11.75-1.31l-4.21-9.28l2.61-9.43l6.38-11.89l14.94-7.54h28.71v8.7
		l10.3,4.79l-0.87-14.94l7.54-7.54l14.94-9.86l1.16-6.96l14.94-15.52l15.95-8.85l-1.45-1.16l10.88-10.15l3.92,1.01l1.74,2.32
		l4.21-4.5l1.01-0.58l-4.49-0.58l-4.64-1.45v-4.5l2.46-1.88l5.37-0.15l2.32,1.16l2.17,4.21l2.61-0.29v-0.43l0.73,0.29l7.39-1.16
		l1.16-3.77l4.21,1.16v3.92l-3.92,2.76l0,0l0.58,4.35l13.49,4.21c0,0,0,0,0,0.15l3.19-0.29l0.15-5.8l-10.73-4.93l-0.58-2.9l8.85-2.9
		l0.43-8.56l-9.28-5.66l-0.58-14.35l-12.76,6.23h-4.64l1.16-11.02l-17.4-4.06l-7.1,5.37v16.68l-12.91,4.06l-5.22,10.73l-5.66,1.01
		v-13.92l-12.03-1.6l-6.09-4.06l-2.47-8.84l21.75-12.76l10.59-3.19l1.02,7.1l5.95-0.29l0.43-3.62l6.23-0.87l0.14-1.3l-2.75-1.01
		l-0.58-3.77l7.69-0.72l4.64-4.79l0.14-0.29h0.15l1.3-1.45l16.1-2.03l6.96,5.95l-18.56,10l23.64,5.51l3.05-7.83h10.3l3.77-6.96
		l-7.39-1.74v-8.7L242.1,47.12l-15.81,1.74l-8.99,4.64l0.58,11.46l-9.28-1.45l-1.45-6.23l8.99-8.12l-16.24-0.87l-4.64,1.45
		l-2.03,5.37l6.09,1.16l-1.3,5.94l-10.3,0.72l-1.6,4.06l-14.93,0.29c0,0-0.43-8.41-1.01-8.41c-0.58,0,11.75-0.29,11.75-0.29
		l8.84-8.7l-4.79-2.46l-6.52,6.38l-10.73-0.58l-6.53-8.99h-13.78l-14.35,10.73h13.19l1.16,3.92l-3.33,3.19l14.5,0.43l2.32,5.22
		l-16.53-0.58l-0.72-4.06l-10.3-2.18l-5.51-3.04h-8.85C158.28,31.61,204.68,16.24,254.71,16.24L254.71,16.24z"/>
</g>
<g>
	
		<linearGradient id="SVGID_00000081633004898878677310000001499215439639540902_" gradientUnits="userSpaceOnUse" x1="-1529.8575" y1="-1794.3181" x2="-1162.4026" y2="-1794.3181">
		<stop  offset="5.586592e-03" style="stop-color:#011B5D"/>
		<stop  offset="0.9916" style="stop-color:#012B6B"/>
	</linearGradient>
	<path style="fill:url(#SVGID_00000081633004898878677310000001499215439639540902_);" d="M-1169.09-1815.13
		c5.15-4.8,7.5-10.89,6.43-16.75c-1.08-5.86-5.41-10.55-11.88-12.88l-30.53-10.97c-2.35-0.83-4.19-2.58-5.2-4.9
		c-1-2.32-1.06-4.95-0.16-7.43l11.77-32.17c2.35-6.41,2.03-12.49-0.91-17.11c-3.33-5.26-9.15-7.73-16.72-6.41l-31.79,5.53
		c-5.09,0.88-9.52-2.85-10.08-8.25l-3.5-34.37c-1.14-11.34-8.2-16.42-14.68-16.42c-3.7,0-7.53,1.52-11.11,4.41l-25.73,20.76
		c-3.99,3.21-9.73,2.15-12.48-2.27l-17.97-28.7c-3.6-5.74-8.47-8.9-13.71-8.9c-5.98,0-11.2,4.06-14.34,11.16l-13.82,31.23
		c-2.12,4.8-7.63,6.78-12.03,4.23l-28.33-16.45c-7.22-4.2-14.83-3.42-19.46,1.76c-2.15,2.41-4.66,6.81-4.39,14.23l1.28,34.54
		c0.1,2.63-0.76,5.08-2.39,6.92c-1.63,1.82-3.89,2.84-6.46,2.84l-32.52-0.43c-6.69,0-12.1,2.93-14.85,8.04
		c-2.76,5.14-2.41,11.7,0.99,18.02l16.08,29.96c1.23,2.3,1.54,4.91,0.87,7.37c-0.68,2.45-2.27,4.47-4.47,5.68l-28.69,15.69
		c-6.08,3.33-9.72,8.67-9.97,14.63c-0.27,5.95,2.89,11.63,8.65,15.54l27.21,18.5c2.09,1.42,3.49,3.59,3.96,6.09
		c0.45,2.51-0.07,5.09-1.5,7.26l-18.62,28.21c-3.94,5.99-4.85,12.52-2.51,17.93c2.35,5.41,7.6,8.85,14.4,9.43l32.09,2.81
		c2.46,0.21,4.65,1.42,6.14,3.42c1.5,1.99,2.14,4.53,1.81,7.17l-4.27,34.26c-0.74,6.04,0.51,11.4,3.54,15.13
		c4.27,5.23,11.5,6.54,18.84,3.18l29.62-13.54c4.62-2.11,9.92,0.4,11.62,5.41l11.03,32.48c2.69,7.89,8.13,12.61,14.57,12.61
		c4.78,0,9.45-2.7,13.16-7.57l20.38-26.78c1.69-2.24,4.16-3.51,6.74-3.51c1.51,0,3.77,0.43,5.89,2.5l23.84,23.25
		c3.73,3.63,7.88,5.56,12.01,5.56c5.72,0,12.61-3.93,14.71-14.94l6.45-33.88c1.01-5.24,5.82-8.56,10.75-7.19l31.16,8.68
		c1.9,0.52,3.78,0.79,5.56,0.79c5.04,0,9.32-2.14,12.05-6.04c2.99-4.28,3.69-10.12,1.98-16.42l-8.94-33.22
		c-0.69-2.54-0.4-5.15,0.81-7.36c1.21-2.21,3.2-3.77,5.61-4.36l31.35-7.87c6.66-1.67,11.37-5.9,12.95-11.63
		c1.58-5.72-0.23-12.03-4.95-17.32l-22.29-24.95c-1.72-1.91-2.59-4.38-2.48-6.93c0.11-2.56,1.2-4.92,3.06-6.65L-1169.09-1815.13z
		 M-1203.91-1768.75l22.31,24.94c1.48,1.68,1.72,2.8,1.71,2.96c-0.09,0.18-0.85,1-2.95,1.52l-31.36,7.88
		c-6.09,1.52-11.17,5.51-14.29,11.24c-3.13,5.73-3.88,12.43-2.14,18.89l8.94,33.22c0.6,2.22,0.32,3.33,0.25,3.47
		c-0.14,0.1-1.61,0.34-3.29-0.12l-31.15-8.68c-1.89-0.52-3.83-0.79-5.75-0.79c-10.7,0-19.67,7.92-21.83,19.26l-6.45,33.88
		c-0.44,2.27-1.18,3.11-1.33,3.21c-0.38,0-1.41-0.37-2.82-1.76l-23.85-23.25c-4.17-4.06-9.52-6.31-15.07-6.31
		c-6.71,0-13.03,3.24-17.33,8.91l-20.38,26.78c-1.31,1.73-2.29,2.14-2.54,2.17c-0.22-0.1-1.03-0.85-1.74-2.96l-11.04-32.47
		c-3.28-9.62-11.5-15.85-20.94-15.85c-3.06,0-6.03,0.67-8.88,1.97l-29.62,13.52c-1.37,0.63-2.26,0.73-2.68,0.73l-0.51-0.06
		c-0.14-0.18-0.56-1.22-0.28-3.5l4.27-34.26c0.83-6.66-0.84-13.18-4.71-18.35c-3.87-5.16-9.45-8.31-15.68-8.84l-32.09-2.8
		c-2.16-0.19-3.02-0.88-3.13-1c-0.04-0.2,0.03-1.34,1.27-3.24l18.63-28.21c3.61-5.5,4.94-12.11,3.74-18.6
		c-1.19-6.5-4.77-12.06-10.06-15.64l-27.2-18.52c-1.83-1.23-2.29-2.26-2.32-2.42c0.05-0.19,0.61-1.18,2.53-2.22l28.68-15.71
		c5.58-3.05,9.62-8.23,11.38-14.58c1.75-6.37,0.99-13.06-2.13-18.89l-16.08-29.96c-1.08-2.02-1.05-3.15-1.01-3.32
		c0.12-0.15,0.99-0.72,3.19-0.72h0l32.47,0.43c6.21,0,11.96-2.62,16.19-7.35c4.24-4.75,6.44-11.03,6.19-17.68l-1.28-34.55
		c-0.08-2.33,0.44-3.33,0.85-3.48c0.34,0,1.29,0.11,2.84,1l28.33,16.44c3.31,1.93,7.03,2.94,10.73,2.94
		c8.68,0,16.41-5.29,20.15-13.77l13.83-31.25c0.93-2.09,1.83-2.72,1.97-2.76c0.2,0.02,1.17,0.49,2.38,2.42l17.96,28.7
		c4.21,6.7,11.13,10.68,18.55,10.68c4.87,0,9.53-1.67,13.49-4.87l25.74-20.76c1.72-1.39,2.72-1.46,2.94-1.48
		c0.15,0.12,0.81,1.03,1.04,3.33l3.5,34.38c1.38,13.54,12.94,23.4,25.86,21.14l31.79-5.53c1.77-0.31,3.13,0.09,3.23,0.16
		c0.09,0.2,0.28,1.33-0.5,3.48l-11.78,32.17c-2.29,6.25-2.13,13,0.48,19.01c2.61,6.02,7.31,10.5,13.26,12.64l30.54,10.97
		c2.04,0.73,2.73,1.61,2.79,1.75c0,0.21-0.33,1.32-1.96,2.82l-24.35,22.63c-4.74,4.39-7.5,10.45-7.79,17.06
		C-1210.47-1779.93-1208.25-1773.62-1203.91-1768.75z"/>
	
		<linearGradient id="SVGID_00000003081970395340118990000013179071294356462525_" gradientUnits="userSpaceOnUse" x1="-1259.5242" y1="-1588.2261" x2="-1097.7273" y2="-1588.2261">
		<stop  offset="5.586592e-03" style="stop-color:#011B5D"/>
		<stop  offset="0.9916" style="stop-color:#012B6B"/>
	</linearGradient>
	<path style="fill:url(#SVGID_00000003081970395340118990000013179071294356462525_);" d="M-1203.65-1633.78l-31.16-8.69
		c-8.72-2.44-17.35,3.35-19.15,12.84l-5.55,29.11l91.15,108.55l7.23-66.15l63.42-2.29l-104.16-124.07c-0.03,1.63,0.17,3.3,0.61,4.97
		l8.95,33.22C-1189.82-1636.98-1194.92-1631.36-1203.65-1633.78z"/>
	
		<linearGradient id="SVGID_00000053511030206699383920000007833888457329237147_" gradientUnits="userSpaceOnUse" x1="-1597.7273" y1="-1588.2318" x2="-1408.6627" y2="-1588.2318">
		<stop  offset="5.586592e-03" style="stop-color:#011B5D"/>
		<stop  offset="0.9916" style="stop-color:#012B6B"/>
	</linearGradient>
	<path style="fill:url(#SVGID_00000053511030206699383920000007833888457329237147_);" d="M-1468.16-1660.54
		c1.2-9.59-5.18-18.09-14.18-18.87l-4.62-0.42l-110.77,107.32l61.59,7.75l2.11,68.12l125.37-121.42l-0.51-1.53
		c-3.09-9.1-12.41-13.45-20.72-9.65l-29.64,13.54c-8.29,3.8-14.1-0.96-12.9-10.55L-1468.16-1660.54z"/>
	
		<linearGradient id="SVGID_00000034057264267948756660000011424728946620157581_" gradientUnits="userSpaceOnUse" x1="-1297.4261" y1="-1820.7065" x2="-1238.151" y2="-1820.7065">
		<stop  offset="5.586592e-03" style="stop-color:#011B5D"/>
		<stop  offset="0.9916" style="stop-color:#012B6B"/>
	</linearGradient>
	<path style="fill:url(#SVGID_00000034057264267948756660000011424728946620157581_);" d="M-1297.43-1820.71
		c0,17.57,13.27,31.83,29.64,31.83c16.37,0,29.64-14.26,29.64-31.83c0-17.59-13.27-31.83-29.64-31.83
		C-1284.15-1852.53-1297.43-1838.29-1297.43-1820.71z"/>
	
		<linearGradient id="SVGID_00000173130209145834187750000009692842291420574086_" gradientUnits="userSpaceOnUse" x1="-1302.062" y1="-1763.6506" x2="-1222.7762" y2="-1763.6506">
		<stop  offset="5.586592e-03" style="stop-color:#011B5D"/>
		<stop  offset="0.9916" style="stop-color:#012B6B"/>
	</linearGradient>
	<path style="fill:url(#SVGID_00000173130209145834187750000009692842291420574086_);" d="M-1284.94-1785.88
		c-6.46,0-12.4,2.39-17.12,6.35c11.94,7.95,19.98,22.01,20.27,38.1h59.02v-14.52c0-16.53-12.47-29.93-27.85-29.93H-1284.94z
		 M-1256.75-1746.56h-4.11l-3.43-24.24h-0.12l3.36-6.65h-13.47l3.36,6.65h-0.12l-3.43,24.24h-4.12l-6.39-36.04l1.89-0.1h31.07
		c0.64,0,1.27,0.04,1.9,0.1L-1256.75-1746.56z"/>
	
		<linearGradient id="SVGID_00000060005285608489299490000014315490673251360912_" gradientUnits="userSpaceOnUse" x1="-1457.3076" y1="-1820.7065" x2="-1398.0369" y2="-1820.7065">
		<stop  offset="5.586592e-03" style="stop-color:#011B5D"/>
		<stop  offset="0.9916" style="stop-color:#012B6B"/>
	</linearGradient>
	<path style="fill:url(#SVGID_00000060005285608489299490000014315490673251360912_);" d="M-1457.31-1820.71
		c0,17.57,13.27,31.83,29.63,31.83c16.38,0,29.64-14.26,29.64-31.83c0-17.59-13.27-31.83-29.64-31.83
		C-1444.04-1852.53-1457.31-1838.29-1457.31-1820.71z"/>
	
		<linearGradient id="SVGID_00000150096798528579744430000002607572399701633666_" gradientUnits="userSpaceOnUse" x1="-1472.6869" y1="-1763.6506" x2="-1393.3445" y2="-1763.6506">
		<stop  offset="5.586592e-03" style="stop-color:#011B5D"/>
		<stop  offset="0.9916" style="stop-color:#012B6B"/>
	</linearGradient>
	<path style="fill:url(#SVGID_00000150096798528579744430000002607572399701633666_);" d="M-1472.69-1755.95v14.52h59.13
		c0.3-16.08,8.3-30.11,20.22-38.06c-4.74-3.99-10.7-6.4-17.18-6.4h-34.31C-1460.22-1785.88-1472.69-1772.47-1472.69-1755.95z
		 M-1412.14-1782.71l1.89,0.1l-6.39,36.04h-4.12l-3.44-24.24h-0.12l3.37-6.65h-13.49l3.38,6.65h-0.13l-3.43,24.24h-4.1l-6.4-36.04
		l1.89-0.1H-1412.14z"/>
	
		<linearGradient id="SVGID_00000021839139235112305570000013430613193201451431_" gradientUnits="userSpaceOnUse" x1="-1388.1168" y1="-1829.8217" x2="-1307.3552" y2="-1829.8217">
		<stop  offset="5.586592e-03" style="stop-color:#011B5D"/>
		<stop  offset="0.9916" style="stop-color:#012B6B"/>
	</linearGradient>
	<path style="fill:url(#SVGID_00000021839139235112305570000013430613193201451431_);" d="M-1388.12-1829.82
		c0,23.97,18.08,43.38,40.38,43.38c22.31,0,40.38-19.41,40.38-43.38c0-23.95-18.06-43.38-40.38-43.38
		C-1370.04-1873.2-1388.12-1853.77-1388.12-1829.82z"/>
	
		<linearGradient id="SVGID_00000114759094767693739070000003514168411444953516_" gradientUnits="userSpaceOnUse" x1="-1409.0634" y1="-1752.0679" x2="-1286.3867" y2="-1752.0679">
		<stop  offset="5.586592e-03" style="stop-color:#011B5D"/>
		<stop  offset="0.9916" style="stop-color:#012B6B"/>
	</linearGradient>
	<path style="fill:url(#SVGID_00000114759094767693739070000003514168411444953516_);" d="M-1371.11-1782.35
		c-20.96,0-37.95,18.26-37.95,40.77v19.78h122.68v-19.78c0-22.52-17-40.77-37.96-40.77H-1371.11z M-1332.69-1728.78h-5.61h-18.87
		l4.67-33.02l-4.68,33.02h-5.61l-8.7-49.12c0.84-0.08,1.71-0.15,2.57-0.15h42.34c0.88,0,1.74,0.07,2.59,0.15L-1332.69-1728.78z"/>
	
		<linearGradient id="SVGID_00000173148811573372885950000015339086492690620606_" gradientUnits="userSpaceOnUse" x1="-1357.1577" y1="-1749.8269" x2="-1338.2919" y2="-1749.8269">
		<stop  offset="5.586592e-03" style="stop-color:#011B5D"/>
		<stop  offset="0.9916" style="stop-color:#012B6B"/>
	</linearGradient>
	<polygon style="fill:url(#SVGID_00000173148811573372885950000015339086492690620606_);" points="-1357.16,-1728.78 
		-1338.29,-1728.78 -1342.97,-1761.8 -1343.14,-1761.8 -1338.54,-1770.87 -1356.91,-1770.87 -1352.33,-1761.8 -1352.49,-1761.8 	"/>
</g>
<g>
	<g>
		
			<linearGradient id="SVGID_00000004505810642919134620000005012245971496363191_" gradientUnits="userSpaceOnUse" x1="5929.4512" y1="-792.5573" x2="6669.1011" y2="-792.5573">
			<stop  offset="5.586592e-03" style="stop-color:#001B5D"/>
			<stop  offset="0.9916" style="stop-color:#002B6B"/>
		</linearGradient>
		<path style="fill:url(#SVGID_00000004505810642919134620000005012245971496363191_);" d="M6352.53-422.73h-106.88
			c-29.69,0-53.44-24.12-53.44-53.44v-57.9l-40.82,40.82c-10.02,10.02-23.38,15.59-37.85,15.59c-14.47,0-27.83-5.57-37.85-15.59
			l-75.71-75.71c-10.02-10.02-15.59-23.38-15.59-37.85c0-14.47,5.57-27.83,15.59-37.85l40.82-40.82h-57.9
			c-29.69,0-53.44-24.12-53.44-53.44v-107.25c0-29.69,24.12-53.44,53.44-53.44h57.9l-40.82-40.82
			c-10.02-10.02-15.59-23.38-15.59-37.85s5.57-27.83,15.59-37.85l75.71-75.71c10.02-10.02,23.38-15.59,37.85-15.59
			c14.47,0,27.83,5.57,37.85,15.59l40.82,40.82v-57.9c0-29.69,24.12-53.44,53.44-53.44h107.25c29.69,0,53.44,24.12,53.44,53.44v57.9
			l40.82-40.82c20.78-20.78,54.93-20.78,75.71,0l75.71,75.71c10.02,10.02,15.59,23.38,15.59,37.85s-5.57,27.83-15.59,37.85
			l-40.82,40.82h57.9c29.69,0,53.44,24.12,53.44,53.44v106.88c0,29.69-24.12,53.44-53.44,53.44h-57.9l40.82,40.82
			c20.78,20.78,20.78,54.93,0,75.71l-75.71,75.71c-10.02,10.02-23.38,15.59-37.85,15.59c-14.47,0-27.83-5.57-37.85-15.59
			l-40.82-40.82v57.9C6406.35-446.48,6382.22-422.73,6352.53-422.73z M6195.18-583.43c2.6,0,5.2,0.74,7.79,1.86
			c4.82,2.23,9.65,4.08,14.47,5.94c7.42,2.6,12.25,10.02,12.25,17.81v81.65c0,8.54,7.05,15.59,15.59,15.59h107.25
			c8.54,0,15.59-7.05,15.59-15.59v-81.65c0-7.79,4.82-14.84,12.25-17.81c4.82-1.86,10.02-3.71,14.47-5.94
			c7.05-3.34,15.59-1.86,21.15,3.71l57.9,57.9c2.97,2.97,6.68,4.45,11.13,4.45c4.45,0,8.16-1.48,11.13-4.45l75.71-75.71
			c5.94-5.94,5.94-15.96,0-21.9l-57.9-57.9c-5.57-5.57-7.05-14.1-3.71-21.15c2.23-4.82,4.08-9.65,5.94-14.47
			c2.97-7.42,10.02-12.25,17.81-12.25h81.65c8.54,0,15.59-7.05,15.59-15.59v-107.25c0-8.54-7.05-15.59-15.59-15.59h-81.65
			c-7.79,0-14.85-4.82-17.81-12.25c-1.86-4.82-3.71-10.02-5.94-14.47c-3.34-7.05-1.86-15.59,3.71-21.15l57.9-57.9
			c2.97-2.97,4.45-6.68,4.45-11.13c0-4.08-1.48-8.16-4.45-11.13l-75.71-75.71c-5.94-5.94-15.96-5.94-21.9,0l-57.9,57.52
			c-5.57,5.57-14.1,7.05-21.15,3.71c-4.82-2.23-9.65-4.08-14.47-5.94c-7.42-2.97-12.25-10.02-12.25-17.81v-81.65
			c0-8.54-7.05-15.59-15.59-15.59h-107.25c-8.54,0-15.59,7.05-15.59,15.59v81.65c0,7.79-4.82,14.84-12.25,17.81
			c-4.82,1.86-10.02,3.71-14.47,5.94c-7.05,3.34-15.59,1.86-21.15-3.71l-57.9-57.9c-2.97-2.97-6.68-4.45-11.13-4.45
			c-4.08,0-8.17,1.48-11.13,4.45l-75.71,75.71c-2.97,2.97-4.45,6.68-4.45,11.13c0,4.08,1.48,8.16,4.45,11.13l57.9,57.9
			c5.57,5.57,7.05,14.1,3.71,21.15c-2.23,4.82-4.08,9.65-5.94,14.47c-2.6,7.42-10.02,12.25-17.81,12.25h-81.65
			c-8.54,0-15.59,7.05-15.59,15.59v107.25c0,8.54,7.05,15.59,15.59,15.59h81.65c7.79,0,14.85,4.82,17.81,12.25
			c1.86,4.82,3.71,9.65,5.94,14.47c3.34,7.05,1.86,15.59-3.71,21.15l-57.9,57.9c-2.97,2.97-4.45,6.68-4.45,11.13
			c0,4.08,1.48,8.16,4.45,11.13l75.71,75.71c2.97,2.97,6.68,4.45,11.13,4.45c4.08,0,8.16-1.48,11.13-4.45l57.9-57.9
			C6185.53-581.57,6190.35-583.43,6195.18-583.43z"/>
	</g>
	<g>
		
			<linearGradient id="SVGID_00000158008021662662818510000015241132265978823866_" gradientUnits="userSpaceOnUse" x1="6121.6934" y1="-792.7427" x2="6476.4878" y2="-792.7427">
			<stop  offset="5.586592e-03" style="stop-color:#001B5D"/>
			<stop  offset="0.9916" style="stop-color:#002B6B"/>
		</linearGradient>
		<path style="fill:url(#SVGID_00000158008021662662818510000015241132265978823866_);" d="M6299.09-615.35
			c-97.98,0-177.4-79.79-177.4-177.4s79.79-177.4,177.4-177.4c97.61,0,177.4,79.79,177.4,177.4S6397.07-615.35,6299.09-615.35z
			 M6299.09-932.29c-76.82,0-139.54,62.72-139.54,139.54s62.72,139.54,139.54,139.54c76.82,0,139.54-62.72,139.54-139.54
			S6375.91-932.29,6299.09-932.29z"/>
	</g>
	<g>
		
			<linearGradient id="SVGID_00000069369125898835146740000018375710421277567890_" gradientUnits="userSpaceOnUse" x1="6004.019" y1="-1354.439" x2="6364.5322" y2="-1354.439">
			<stop  offset="5.586592e-03" style="stop-color:#001B5D"/>
			<stop  offset="0.9916" style="stop-color:#002B6B"/>
		</linearGradient>
		<path style="fill:url(#SVGID_00000069369125898835146740000018375710421277567890_);" d="M6115.38-1069.97
			c-10.39,0-18.93-8.54-18.93-18.93v-269.81h-73.48c-7.05,0-13.36-3.71-16.7-10.02c-3.34-6.31-2.97-13.73,1.11-19.67l161.07-241.97
			c3.34-5.2,9.28-8.54,15.96-8.54c6.68,0,12.25,3.34,15.96,8.54l161.07,241.97c3.71,5.94,4.08,13.36,1.11,19.67
			c-3.34,6.31-9.65,10.02-16.7,10.02H6272v214.51c0,10.39-8.54,18.93-18.93,18.93s-18.93-8.54-18.93-18.93v-233.81
			c0-10.39,8.54-18.93,18.93-18.93h57.15l-126.55-188.53l-125.44,188.53h57.15c10.39,0,18.93,8.54,18.93,18.93v288.73
			C6134.68-1078.51,6126.15-1069.97,6115.38-1069.97z"/>
	</g>
	<g>
		
			<linearGradient id="SVGID_00000093156088441611412400000006799736542422088589_" gradientUnits="userSpaceOnUse" x1="6297.5781" y1="-1264.0703" x2="6658.0913" y2="-1264.0703">
			<stop  offset="5.586592e-03" style="stop-color:#001B5D"/>
			<stop  offset="0.9916" style="stop-color:#002B6B"/>
		</linearGradient>
		<path style="fill:url(#SVGID_00000093156088441611412400000006799736542422088589_);" d="M6409.31-1009.11
			c-10.39,0-18.93-8.54-18.93-18.93v-210.8h-73.85c-7.05,0-13.36-3.71-16.7-10.02c-3.34-6.31-2.97-13.73,1.11-19.67l161.07-241.97
			c3.34-5.2,9.28-8.54,15.96-8.54s12.25,3.34,15.96,8.54L6655-1268.52c3.71,5.94,4.08,13.36,1.11,19.67
			c-3.34,6.31-9.65,10.02-16.7,10.02h-73.85v196.32c0,10.39-8.54,18.93-18.93,18.93s-18.93-8.54-18.93-18.93v-215.25
			c0-10.39,8.54-18.93,18.93-18.93h57.15l-125.44-188.53l-125.44,188.53h57.15c10.39,0,18.93,8.54,18.93,18.93v229.73
			C6428.61-1017.64,6420.08-1009.11,6409.31-1009.11z"/>
	</g>
</g>
</svg>
