<?xml version="1.0" encoding="utf-8"?>
<!-- Generator: Adobe Illustrator 26.0.0, SVG Export Plug-In . SVG Version: 6.00 Build 0)  -->
<svg version="1.1" id="_x2018_ëîé_x5F_1" xmlns="http://www.w3.org/2000/svg" xmlns:xlink="http://www.w3.org/1999/xlink"
	 x="0px" y="0px" viewBox="0 0 510 510" style="enable-background:new 0 0 510 510;" xml:space="preserve">
<style type="text/css">
	.st0{fill-rule:evenodd;clip-rule:evenodd;fill:none;stroke:url(#SVGID_1_);stroke-width:13;stroke-miterlimit:10;}
	.st1{fill:none;stroke:url(#SVGID_00000078763756193856711700000013112773629394261673_);stroke-width:13;stroke-miterlimit:10;}
	.st2{fill:none;stroke:url(#SVGID_00000157284725633504961010000015733220027734471077_);stroke-width:13;stroke-miterlimit:10;}
	.st3{fill:none;stroke:url(#SVGID_00000065771173294575734910000000403381113494930361_);stroke-width:13;stroke-miterlimit:10;}
	.st4{fill:none;stroke:url(#SVGID_00000095334205909700917670000005971342206458534024_);stroke-width:13;stroke-miterlimit:10;}
	.st5{fill:none;stroke:url(#SVGID_00000148640917104072860880000013209908174564781708_);stroke-width:13;stroke-miterlimit:10;}
	.st6{fill:none;stroke:url(#SVGID_00000041980721377540290580000017173153130254659232_);stroke-width:13;stroke-miterlimit:10;}
	.st7{fill:url(#SVGID_00000170997996849278873570000018165699854208033948_);}
	.st8{fill:url(#SVGID_00000061454285204030796070000008885835504235985561_);}
	.st9{fill:url(#SVGID_00000013903995745795861440000010848696601589370810_);}
	.st10{fill:url(#SVGID_00000080890736137045314960000011086215888300510125_);}
	.st11{fill:url(#SVGID_00000103969709749741648880000013281612156711477644_);}
	.st12{fill:url(#SVGID_00000014604229193917837820000016491891840228467592_);}
	.st13{fill:url(#SVGID_00000006703652537627372810000000126965178551037824_);}
	.st14{fill:url(#SVGID_00000075154967778863602320000014801151384817415575_);}
	.st15{fill:url(#SVGID_00000000208499347934899780000009246533687744778925_);}
	.st16{fill:#FFFFFF;}
	.st17{fill:url(#SVGID_00000098943258849121322560000007249356750830112160_);}
	.st18{fill:url(#SVGID_00000181777439234606323580000000855451857301354642_);}
	.st19{fill:url(#SVGID_00000122719795130733977400000001953930399180688539_);}
	.st20{fill:url(#SVGID_00000060731005862285695690000008557156255621749384_);}
	.st21{fill:url(#SVGID_00000149365253936805568660000009718090340597843085_);}
	.st22{fill:url(#SVGID_00000150063199444460182860000010824126292025818245_);}
	.st23{fill:url(#SVGID_00000021799621454080980050000003341514346383624834_);}
	.st24{fill:url(#SVGID_00000099652927903065028240000002901169208915729046_);}
	.st25{fill:url(#SVGID_00000150814930703100220850000003449507723941298872_);}
	.st26{fill:url(#SVGID_00000065788722576390700480000004661210893645037985_);}
	.st27{fill:url(#SVGID_00000168097635311159446300000012192979484944358786_);}
	.st28{fill:url(#SVGID_00000064340373931320820120000002420260807420017595_);}
	.st29{fill:url(#SVGID_00000066483976203088376420000009266063983540884646_);}
	.st30{fill:url(#SVGID_00000111149893073671439630000013839346954589432229_);}
	.st31{fill:url(#SVGID_00000157306802680207236680000004562164610575561391_);}
	.st32{fill:url(#SVGID_00000005973514076055034100000012313055588702192309_);}
	.st33{fill:url(#SVGID_00000178919483239316420970000004817618165827133572_);}
	.st34{fill:url(#SVGID_00000125562688627860141390000009931568650903975079_);}
	.st35{fill:url(#SVGID_00000152249301533004082430000012114818491463004554_);}
	.st36{fill-rule:evenodd;clip-rule:evenodd;fill:url(#SVGID_00000137123695547795467240000012494274976885581996_);}
	.st37{fill-rule:evenodd;clip-rule:evenodd;fill:#FFFFFF;}
	.st38{fill:url(#SVGID_00000127011101663218921490000012341926178841098932_);}
	.st39{fill:url(#SVGID_00000141429624623122731290000003400708574162454710_);}
	.st40{fill:url(#SVGID_00000065061275810403310840000008037845134127999912_);}
	.st41{fill:url(#SVGID_00000080928379474337454560000006120247334528596631_);}
	.st42{fill:url(#SVGID_00000013177212127797328810000003941760179406437524_);}
	.st43{fill:url(#SVGID_00000124871170607123997030000000237598342133394104_);}
	.st44{fill:url(#SVGID_00000073706300914928671530000005830692540892891554_);}
	.st45{fill:url(#SVGID_00000031207506329122495680000004274078721584265631_);}
	.st46{fill:url(#SVGID_00000029014850526233526540000007235256633463694779_);}
	.st47{fill:url(#SVGID_00000027570611345942617380000009773337142641826198_);}
	.st48{fill:url(#SVGID_00000163064356146973651800000018176547756922158268_);}
	.st49{fill:url(#SVGID_00000120553384891629463540000009187388532595196288_);}
	.st50{fill:url(#SVGID_00000105404383980236904100000008028685242439799742_);}
	.st51{fill:url(#SVGID_00000131347608721599045100000006951156803131598245_);}
</style>
<g>
	<linearGradient id="SVGID_1_" gradientUnits="userSpaceOnUse" x1="-2533.1157" y1="-1679.829" x2="-2042.0104" y2="-1679.829">
		<stop  offset="5.586592e-03" style="stop-color:#001B5D"/>
		<stop  offset="0.9916" style="stop-color:#002B6B"/>
	</linearGradient>
	<path class="st0" d="M-2245.96-1918.88l8.99,56.07c15.12,4.18,29.48,10.15,42.85,17.68l46.26-31.98l58.79,58.7l-32.92,44.73
		c7.79,13.54,13.96,28.12,18.24,43.48l55.23,8.95v85.04l-55.07,7.69c-4.16,15.11-10.15,29.48-17.7,42.85l32.21,45.32l-58.79,59.28
		l-44.89-32.71c-13.88,7.97-28.86,14.26-44.65,18.58l-8.56,54.42h-83.72l-8.68-54.19c-15.8-4.25-30.79-10.46-44.7-18.35
		l-43.73,32.24l-60.72-59.28l19.35-26.3l-8.16-33.3l-13.92-30.57l-36.37-5.69v-85.04l53.69-8.76c4.27-15.37,10.42-29.96,18.2-43.5
		l-32.78-44.9l60.72-58.7l44.01,32.14c13.88-7.85,28.84-14.02,44.6-18.24l8.5-55.67H-2245.96L-2245.96-1918.88z M-2288.31-1817.46
		c-76.78,0-139.02,61.96-139.02,138.4c0,76.43,62.24,138.39,139.02,138.39c76.78,0,139.02-61.96,139.02-138.39
		C-2149.29-1755.5-2211.53-1817.46-2288.31-1817.46L-2288.31-1817.46z"/>
	
		<linearGradient id="SVGID_00000124130296187993457430000006755696221124819133_" gradientUnits="userSpaceOnUse" x1="-2424.4946" y1="-1689.314" x2="-2219.2224" y2="-1689.314">
		<stop  offset="5.586592e-03" style="stop-color:#001B5D"/>
		<stop  offset="0.9916" style="stop-color:#002B6B"/>
	</linearGradient>
	
		<polyline style="fill:none;stroke:url(#SVGID_00000124130296187993457430000006755696221124819133_);stroke-width:13;stroke-miterlimit:10;" points="
		-2420.63,-1657.07 -2356.88,-1704.18 -2310.82,-1663.44 -2222.79,-1721.35 	"/>
	
		<linearGradient id="SVGID_00000108303042089181299390000012782448537323186566_" gradientUnits="userSpaceOnUse" x1="-2259.0652" y1="-1708.6392" x2="-2207.6213" y2="-1708.6392">
		<stop  offset="5.586592e-03" style="stop-color:#001B5D"/>
		<stop  offset="0.9916" style="stop-color:#002B6B"/>
	</linearGradient>
	
		<polyline style="fill:none;stroke:url(#SVGID_00000108303042089181299390000012782448537323186566_);stroke-width:13;stroke-miterlimit:10;" points="
		-2259.07,-1726.04 -2217.14,-1726.04 -2232.37,-1687.1 	"/>
	
		<linearGradient id="SVGID_00000088845124854129431160000001693009159867072897_" gradientUnits="userSpaceOnUse" x1="-2379.0857" y1="-1612.5" x2="-2366.0857" y2="-1612.5">
		<stop  offset="5.586592e-03" style="stop-color:#001B5D"/>
		<stop  offset="0.9916" style="stop-color:#002B6B"/>
	</linearGradient>
	
		<line style="fill:none;stroke:url(#SVGID_00000088845124854129431160000001693009159867072897_);stroke-width:13;stroke-miterlimit:10;" x1="-2372.59" y1="-1648.16" x2="-2372.59" y2="-1576.84"/>
	
		<linearGradient id="SVGID_00000106845340319939510870000014824140885838767027_" gradientUnits="userSpaceOnUse" x1="-2320.5034" y1="-1573.5779" x2="-2307.3235" y2="-1573.5779">
		<stop  offset="5.586592e-03" style="stop-color:#001B5D"/>
		<stop  offset="0.9916" style="stop-color:#002B6B"/>
	</linearGradient>
	
		<line style="fill:none;stroke:url(#SVGID_00000106845340319939510870000014824140885838767027_);stroke-width:13;stroke-miterlimit:10;" x1="-2314" y1="-1600.74" x2="-2313.82" y2="-1546.42"/>
	
		<linearGradient id="SVGID_00000176017703189904606020000008778326905118775728_" gradientUnits="userSpaceOnUse" x1="-2264.9207" y1="-1593.5215" x2="-2251.7407" y2="-1593.5215">
		<stop  offset="5.586592e-03" style="stop-color:#001B5D"/>
		<stop  offset="0.9916" style="stop-color:#002B6B"/>
	</linearGradient>
	
		<line style="fill:none;stroke:url(#SVGID_00000176017703189904606020000008778326905118775728_);stroke-width:13;stroke-miterlimit:10;" x1="-2258.42" y1="-1637.79" x2="-2258.24" y2="-1549.25"/>
	
		<linearGradient id="SVGID_00000065073328529817392490000006803912710898331317_" gradientUnits="userSpaceOnUse" x1="-2206.5117" y1="-1617.9196" x2="-2193.3318" y2="-1617.9196">
		<stop  offset="5.586592e-03" style="stop-color:#001B5D"/>
		<stop  offset="0.9916" style="stop-color:#002B6B"/>
	</linearGradient>
	
		<line style="fill:none;stroke:url(#SVGID_00000065073328529817392490000006803912710898331317_);stroke-width:13;stroke-miterlimit:10;" x1="-2200.01" y1="-1662.19" x2="-2199.83" y2="-1573.65"/>
</g>
<g>
	
		<linearGradient id="SVGID_00000086682862985016889380000010140774220831021993_" gradientUnits="userSpaceOnUse" x1="5178.5854" y1="-2261.7483" x2="5430.896" y2="-2261.7483">
		<stop  offset="5.586592e-03" style="stop-color:#001B5D"/>
		<stop  offset="0.9916" style="stop-color:#002B6B"/>
	</linearGradient>
	<circle style="fill:url(#SVGID_00000086682862985016889380000010140774220831021993_);" cx="5304.74" cy="-2261.75" r="126.16"/>
	
		<linearGradient id="SVGID_00000088843815911194367510000009759115707602973337_" gradientUnits="userSpaceOnUse" x1="5137.6362" y1="-2046.5968" x2="5492.498" y2="-2046.5968">
		<stop  offset="5.586592e-03" style="stop-color:#001B5D"/>
		<stop  offset="0.9916" style="stop-color:#002B6B"/>
	</linearGradient>
	<path style="fill:url(#SVGID_00000088843815911194367510000009759115707602973337_);" d="M5492.5-2033.85v63.22h-282.41v-8.55
		c0-49.64-29.85-92.57-72.45-111.36c16.27-19.62,40.75-32.03,68.09-32.03h28.01c21.97,9.06,45.95,14.09,70.94,14.09
		c25.16,0,49.14-5.03,71.11-14.09h27.84C5452.58-2122.57,5492.5-2082.82,5492.5-2033.85z"/>
	
		<linearGradient id="SVGID_00000134233418443886065870000000511946581072221614_" gradientUnits="userSpaceOnUse" x1="4845.4917" y1="-2512.8977" x2="4903.5176" y2="-2512.8977">
		<stop  offset="5.586592e-03" style="stop-color:#001B5D"/>
		<stop  offset="0.9916" style="stop-color:#002B6B"/>
	</linearGradient>
	<path style="fill:url(#SVGID_00000134233418443886065870000000511946581072221614_);" d="M4903.52-2508.62
		c-19.79-1.51-39.24-3.69-58.03-6.37l3.52-2.18C4866.63-2513.82,4884.73-2510.97,4903.52-2508.62z"/>
	
		<linearGradient id="SVGID_00000138551888066086949030000002543866501843183258_" gradientUnits="userSpaceOnUse" x1="4903.5176" y1="-2507.2795" x2="4927.667" y2="-2507.2795">
		<stop  offset="5.586592e-03" style="stop-color:#001B5D"/>
		<stop  offset="0.9916" style="stop-color:#002B6B"/>
	</linearGradient>
	<path style="fill:url(#SVGID_00000138551888066086949030000002543866501843183258_);" d="M4927.67-2505.94
		c-8.22-0.67-16.27-1.68-24.15-2.68c7.71,0.67,15.6,1.17,23.48,1.68L4927.67-2505.94z"/>
	
		<linearGradient id="SVGID_00000113326534816246397720000009081773652081827245_" gradientUnits="userSpaceOnUse" x1="4546.8662" y1="-2631.1958" x2="5430.9004" y2="-2631.1958">
		<stop  offset="5.586592e-03" style="stop-color:#001B5D"/>
		<stop  offset="0.9916" style="stop-color:#002B6B"/>
	</linearGradient>
	<path style="fill:url(#SVGID_00000113326534816246397720000009081773652081827245_);" d="M5430.9-2683.83
		c0-98.67-197.9-178.66-442.02-178.66c-244.12,0-442.02,79.99-442.02,178.66c0,56.73,65.48,107.24,167.48,139.97l-31.23,98.31
		l118.44-76.45c39.04,7.4,81.17,12.54,125.43,15.05l61.91,107.05c0,0,53.09-91.81,61.91-107.05c44.25-2.51,86.39-7.66,125.43-15.05
		l118.44,76.45l-31.23-98.31C5365.42-2576.6,5430.9-2627.11,5430.9-2683.83z M4832.52-2707.68l-17.91,17.45
		c-3.18,3.1-4.63,7.56-3.88,11.93l4.23,24.64c1.89,11.01-9.67,19.41-19.56,14.21l-22.13-11.63c-3.93-2.06-8.62-2.06-12.54,0
		l-22.13,11.63c-9.89,5.2-21.45-3.2-19.56-14.21l4.23-24.64c0.75-4.37-0.7-8.83-3.88-11.93l-17.91-17.45
		c-8-7.8-3.58-21.39,7.47-22.99l24.74-3.6c4.39-0.64,8.19-3.4,10.15-7.37l11.07-22.42c4.94-10.02,19.23-10.02,24.17,0l11.07,22.42
		c1.96,3.98,5.76,6.74,10.15,7.37l24.74,3.6C4836.1-2729.06,4840.52-2715.48,4832.52-2707.68z M5083.97-2688.13l-25.99,25.33
		c-4.61,4.49-6.72,10.97-5.63,17.32l6.13,35.77c2.74,15.98-14.03,28.17-28.38,20.62l-32.12-16.89c-5.7-3-12.51-3-18.21,0
		l-32.12,16.89c-14.35,7.55-31.13-4.64-28.38-20.62l6.13-35.77c1.09-6.35-1.01-12.82-5.63-17.32l-25.99-25.33
		c-11.61-11.32-5.2-31.04,10.84-33.37l35.91-5.22c6.37-0.93,11.88-4.93,14.73-10.7l16.06-32.54c7.17-14.54,27.91-14.54,35.08,0
		l16.06,32.54c2.85,5.77,8.36,9.77,14.73,10.7l35.91,5.22C5089.17-2719.16,5095.58-2699.44,5083.97-2688.13z M5276.29-2707.68
		l-17.91,17.45c-3.18,3.1-4.63,7.56-3.88,11.93l4.23,24.64c1.89,11.01-9.67,19.41-19.56,14.21l-22.13-11.63
		c-3.93-2.06-8.62-2.06-12.54,0l-22.13,11.63c-9.89,5.2-21.45-3.2-19.56-14.21l4.23-24.64c0.75-4.37-0.7-8.83-3.88-11.93
		l-17.91-17.45c-8-7.8-3.58-21.39,7.47-22.99l24.74-3.6c4.39-0.64,8.19-3.4,10.15-7.37l11.07-22.42c4.94-10.02,19.23-10.02,24.17,0
		l11.07,22.42c1.96,3.98,5.76,6.74,10.15,7.37l24.74,3.6C5279.87-2729.06,5284.29-2715.48,5276.29-2707.68z"/>
	
		<linearGradient id="SVGID_00000013914903419798085770000017185574710376755383_" gradientUnits="userSpaceOnUse" x1="4547.3101" y1="-2261.2244" x2="4799.6211" y2="-2261.2244">
		<stop  offset="5.586592e-03" style="stop-color:#001B5D"/>
		<stop  offset="0.9916" style="stop-color:#002B6B"/>
	</linearGradient>
	<circle style="fill:url(#SVGID_00000013914903419798085770000017185574710376755383_);" cx="4673.47" cy="-2261.22" r="126.16"/>
	
		<linearGradient id="SVGID_00000067953524400908951160000007921920430251353266_" gradientUnits="userSpaceOnUse" x1="4485.7715" y1="-2046.0936" x2="4839.9619" y2="-2046.0936">
		<stop  offset="5.586592e-03" style="stop-color:#001B5D"/>
		<stop  offset="0.9916" style="stop-color:#002B6B"/>
	</linearGradient>
	<path style="fill:url(#SVGID_00000067953524400908951160000007921920430251353266_);" d="M4839.96-2090.54
		c-42.6,18.95-72.28,61.71-72.28,111.36v9.06h-281.91v-63.22c0-48.97,39.75-88.72,88.72-88.72h28.01
		c21.8,9.06,45.78,14.09,70.94,14.09c25.16,0,49.14-5.03,71.11-14.09h27.84C4799.55-2122.06,4823.86-2109.82,4839.96-2090.54z"/>
	
		<linearGradient id="SVGID_00000003087913670640235030000001467473983639350925_" gradientUnits="userSpaceOnUse" x1="4862.7275" y1="-2207.165" x2="5115.0386" y2="-2207.165">
		<stop  offset="5.586592e-03" style="stop-color:#001B5D"/>
		<stop  offset="0.9916" style="stop-color:#002B6B"/>
	</linearGradient>
	<circle style="fill:url(#SVGID_00000003087913670640235030000001467473983639350925_);" cx="4988.88" cy="-2207.17" r="126.16"/>
	
		<linearGradient id="SVGID_00000039127681218150872430000016528389745320529831_" gradientUnits="userSpaceOnUse" x1="4801.1807" y1="-1991.9755" x2="5176.5776" y2="-1991.9755">
		<stop  offset="5.586592e-03" style="stop-color:#001B5D"/>
		<stop  offset="0.9916" style="stop-color:#002B6B"/>
	</linearGradient>
	<path style="fill:url(#SVGID_00000039127681218150872430000016528389745320529831_);" d="M5176.58-1979.21v63.22h-375.4v-63.22
		c0-49.11,39.79-88.74,88.74-88.74h27.96c21.89,9.02,45.85,14.05,71,14.05c25.14,0,49.11-5.03,71-14.05h27.96
		C5136.79-2067.96,5176.58-2028.32,5176.58-1979.21z"/>
</g>
<g>
	<g>
		<g>
			<path class="st16" d="M-1227.91-119.69c-23.24,0-42.08-19.18-42.08-42.85s18.84-42.85,42.08-42.85
				c23.24,0,42.08,19.18,42.08,42.85S-1204.84-119.69-1227.91-119.69z M-1227.91-192.12c-16.02,0-29.05,13.27-29.05,29.58
				s13.03,29.58,29.05,29.58s29.05-13.27,29.05-29.58S-1211.88-192.12-1227.91-192.12z"/>
		</g>
		<g>
			<path class="st16" d="M-1221.22-71.11h-13.38c-5.63,0-10.21-4.3-10.92-10.4l-1.23-9.5c-6.16-1.61-11.97-4.12-17.61-7.35
				l-7.39,5.92c-4.58,3.76-10.92,3.59-14.96-0.54l-9.51-9.68c-3.87-3.94-4.23-10.4-0.53-15.24l5.81-7.53
				c-3.17-5.56-5.63-11.65-7.22-17.93l-9.33-1.25c-5.81-0.72-10.21-5.38-10.21-11.12v-13.62c0-5.74,4.23-10.4,10.21-11.12l9.33-1.25
				c1.58-6.27,4.05-12.19,7.22-17.93l-5.81-7.53c-3.7-4.66-3.35-11.12,0.53-15.24l9.51-9.68c3.87-3.94,10.21-4.3,14.96-0.54
				l7.39,5.92c5.46-3.23,11.44-5.74,17.61-7.35l1.23-9.5c0.7-5.92,5.28-10.4,10.92-10.4h13.38c5.63,0,10.21,4.3,10.92,10.4l1.23,9.5
				c6.16,1.61,11.97,4.12,17.61,7.35l7.39-5.92c4.58-3.76,10.92-3.41,14.96,0.54l9.51,9.68c3.87,3.94,4.23,10.4,0.53,15.24
				l-5.81,7.53c3.17,5.56,5.63,11.65,7.22,17.93l9.33,1.25c5.81,0.72,10.21,5.38,10.21,11.12v13.62c0,5.74-4.23,10.4-10.21,11.12
				l-9.33,1.25c-1.58,6.27-4.05,12.19-7.22,17.93l5.81,7.53c3.7,4.66,3.52,11.12-0.53,15.24l-9.68,9.68
				c-3.87,3.94-10.21,4.3-14.96,0.54l-7.39-5.92c-5.46,3.23-11.44,5.74-17.61,7.35l-1.23,9.5
				C-1211-75.59-1215.58-71.11-1221.22-71.11z M-1232.84-84.38h9.86l1.58-12.91c0.35-2.87,2.46-5.2,5.11-5.74
				c7.75-1.61,14.96-4.66,21.48-9.14c2.29-1.61,5.46-1.43,7.57,0.36l10.04,8.07l6.87-6.99l-7.92-10.22
				c-1.76-2.33-1.76-5.38-0.35-7.71c4.4-6.63,7.39-13.98,8.98-21.87c0.53-2.87,2.82-5.02,5.63-5.2l12.68-1.61v-10.04l-12.68-1.61
				c-2.82-0.36-5.11-2.51-5.63-5.2c-1.58-7.89-4.58-15.24-8.98-21.87c-1.58-2.33-1.41-5.56,0.35-7.71l7.92-10.22l-6.87-6.99
				l-10.04,8.07c-2.29,1.79-5.28,1.79-7.57,0.36c-6.51-4.48-13.73-7.53-21.48-9.14c-2.82-0.54-4.93-2.87-5.11-5.74l-1.58-12.91
				h-9.86l-1.58,12.91c-0.35,2.87-2.46,5.2-5.11,5.74c-7.75,1.61-14.96,4.66-21.48,9.14c-2.29,1.61-5.46,1.43-7.57-0.36l-10.04-8.07
				l-6.87,6.99l7.92,10.22c1.76,2.33,1.76,5.38,0.35,7.71c-4.4,6.63-7.39,13.98-8.98,21.87c-0.53,2.87-2.82,5.02-5.63,5.2
				l-12.68,1.61v10.04l12.68,1.61c2.82,0.36,5.11,2.51,5.63,5.2c1.58,7.89,4.58,15.24,8.98,21.87c1.58,2.33,1.41,5.56-0.35,7.71
				l-7.92,10.22l6.87,6.99l10.04-8.07c2.29-1.79,5.28-1.79,7.57-0.36c6.51,4.48,13.73,7.53,21.48,9.14
				c2.82,0.54,4.93,2.87,5.11,5.74L-1232.84-84.38z"/>
		</g>
		<g>
			<path class="st16" d="M-1518.4-421.41h-54.58c-3.52,0-6.51-3.05-6.51-6.63c0-10.4-2.99-14.16-7.22-19.36
				c-4.93-6.1-11.09-13.62-11.09-31.73c0-29.22,23.42-53.07,52.11-53.07c28.7,0,52.11,23.84,52.11,53.07
				c0,17.93-6.16,25.64-11.09,31.73c-4.23,5.2-7.22,8.96-7.22,19.36C-1512.06-424.46-1514.88-421.41-1518.4-421.41z
				 M-1566.81-434.68h42.25c1.41-10.58,5.81-16.13,9.86-21.15c4.4-5.38,8.1-10.04,8.1-23.13c0-22.05-17.61-39.98-39.26-39.98
				s-39.26,17.93-39.26,39.98c0,13.27,3.87,17.75,8.1,23.13C-1572.62-450.82-1568.22-445.44-1566.81-434.68z"/>
		</g>
		<g>
			<path class="st16" d="M-1531.43-383.41h-28.7c-7.04,0-12.85-5.92-12.85-13.09v-11.47c0-3.59,2.99-6.63,6.51-6.63h41.37
				c3.52,0,6.51,3.05,6.51,6.63v11.47C-1518.57-389.32-1524.38-383.41-1531.43-383.41z M-1559.95-396.67h28.35v-4.66h-28.35V-396.67
				z"/>
		</g>
		<g>
			<path class="st16" d="M-1545.69-541.35c-3.52,0-6.51-3.05-6.51-6.63v-16.49c0-3.59,2.99-6.63,6.51-6.63
				c3.52,0,6.51,3.05,6.51,6.63v16.49C-1539.17-544.4-1542.17-541.35-1545.69-541.35z"/>
		</g>
		<g>
			<path class="st16" d="M-1510.83-531.85c-1.06,0-2.29-0.36-3.17-0.9c-3.17-1.79-4.23-5.92-2.46-8.96l8.1-14.34
				c1.76-3.23,5.81-4.3,8.8-2.51c3.17,1.79,4.23,5.92,2.46,8.96l-8.1,14.34C-1506.43-533.1-1508.72-531.85-1510.83-531.85z"/>
		</g>
		<g>
			<path class="st16" d="M-1485.48-506.03c-2.29,0-4.4-1.25-5.63-3.23c-1.76-3.23-0.7-7.17,2.46-8.96l14.08-8.25
				c3.17-1.79,7.04-0.72,8.8,2.51c1.76,3.23,0.7,7.17-2.46,8.96l-14.08,8.25C-1483.19-506.21-1484.24-506.03-1485.48-506.03z"/>
		</g>
		<g>
			<path class="st16" d="M-1459.95-470.54h-16.2c-3.52,0-6.51-3.05-6.51-6.63c0-3.59,2.99-6.63,6.51-6.63h16.2
				c3.52,0,6.51,3.05,6.51,6.63C-1453.43-473.58-1456.25-470.54-1459.95-470.54z"/>
		</g>
		<g>
			<path class="st16" d="M-1580.55-531.85c-2.29,0-4.4-1.25-5.63-3.23l-8.1-14.34c-1.76-3.23-0.7-7.17,2.46-8.96
				c3.17-1.79,7.04-0.72,8.8,2.51l8.1,14.34c1.76,3.23,0.7,7.17-2.46,8.96C-1578.26-532.21-1579.49-531.85-1580.55-531.85z"/>
		</g>
		<g>
			<path class="st16" d="M-1606.07-506.03c-1.06,0-2.29-0.36-3.17-0.9l-14.08-8.25c-3.17-1.79-4.23-5.92-2.46-8.96
				c1.76-3.23,5.81-4.3,8.8-2.51l14.08,8.25c3.17,1.79,4.23,5.92,2.46,8.96C-1601.5-507.11-1603.79-506.03-1606.07-506.03z"/>
		</g>
		<g>
			<path class="st16" d="M-1615.41-470.54h-16.2c-3.52,0-6.51-3.05-6.51-6.63c0-3.59,2.99-6.63,6.51-6.63h16.2
				c3.52,0,6.51,3.05,6.51,6.63C-1608.89-473.58-1611.71-470.54-1615.41-470.54z"/>
		</g>
		<g>
			<path class="st16" d="M-1516.29-401.34h-58.8c-3.52,0-6.51-3.05-6.51-6.63v-20.08c0-3.59,2.99-6.63,6.51-6.63h58.8
				c3.52,0,6.51,3.05,6.51,6.63v20.08C-1509.77-404.38-1512.76-401.34-1516.29-401.34z M-1568.57-414.6h45.77v-6.81h-45.77V-414.6z"
				/>
		</g>
		<g>
			<path class="st16" d="M-1545.69-421.41c-3.52,0-6.51-3.05-6.51-6.63v-40.52c0-3.59,2.99-6.63,6.51-6.63
				c3.52,0,6.51,3.05,6.51,6.63v40.52C-1539.17-424.46-1542.17-421.41-1545.69-421.41z"/>
		</g>
		<g>
			<path class="st16" d="M-1545.69-461.93c-10.74,0-19.54-8.96-19.54-19.9s8.8-19.9,19.54-19.9c10.74,0,19.54,8.96,19.54,19.9
				S-1534.95-461.93-1545.69-461.93z M-1545.69-488.82c-3.7,0-6.69,3.05-6.69,6.81c0,3.76,2.99,6.81,6.69,6.81
				c3.7,0,6.69-3.05,6.69-6.81C-1539-485.77-1541.99-488.82-1545.69-488.82z"/>
		</g>
		<g>
			<path class="st16" d="M-1309.42-229.77h-145.6c-8.63,0-15.67-7.17-15.67-15.96V-390.4c0-8.78,7.04-15.96,15.67-15.96h145.6
				c8.63,0,15.67,7.17,15.67,15.96v144.68C-1293.75-236.94-1300.79-229.77-1309.42-229.77z M-1455.02-393.09
				c-1.41,0-2.64,1.25-2.64,2.69v144.68c0,1.43,1.23,2.69,2.64,2.69h145.6c1.41,0,2.64-1.25,2.64-2.69V-390.4
				c0-1.43-1.23-2.69-2.64-2.69H-1455.02L-1455.02-393.09z"/>
		</g>
		<g>
			<path class="st16" d="M-1361-324.96c-2.11,0-4.05-0.9-5.28-2.69l-15.85-21.87l-15.85,21.87c-1.58,2.33-4.58,3.23-7.22,2.33
				c-2.64-0.9-4.4-3.41-4.4-6.27v-68.12c0-3.59,2.99-6.63,6.51-6.63h42.08c3.52,0,6.51,3.05,6.51,6.63v68.12
				c0,2.87-1.76,5.38-4.4,6.27C-1359.77-325.14-1360.48-324.96-1361-324.96z M-1396.74-393.09v41.41l9.33-12.91
				c1.23-1.61,3.17-2.69,5.28-2.69l0,0c2.11,0,4.05,1.08,5.28,2.69l9.33,12.91v-41.41H-1396.74z"/>
		</g>
		<g>
			<path class="st16" d="M-1383.01-102.12c-117.08,0-212.15-96.99-212.15-216.03c0-19.18,2.46-38.36,7.39-56.83
				c0.88-3.59,4.58-5.56,7.92-4.66c3.52,0.9,5.46,4.66,4.58,8.07c-4.58,17.39-7.04,35.32-7.04,53.42
				c0,111.87,89.44,202.94,199.3,202.94c21.13,0,41.9-3.41,61.8-10.04c3.35-1.08,7.04,0.72,8.1,4.3c1.06,3.41-0.7,7.17-4.23,8.25
				C-1338.47-105.71-1360.65-102.12-1383.01-102.12z M-1183.36-261.5c-0.53,0-1.06,0-1.58-0.18c-3.52-0.9-5.63-4.48-4.75-8.07
				c3.87-15.78,5.81-32.09,5.81-48.4c0-111.87-89.44-202.94-199.3-202.94c-16.02,0-32.04,1.97-47.54,5.92
				c-3.52,0.9-7.04-1.25-7.92-4.84c-0.88-3.59,1.23-7.17,4.75-8.07c16.55-4.12,33.63-6.27,50.7-6.27
				c117.08,0,212.15,96.99,212.15,216.03c0,17.39-2.11,34.78-6.16,51.63C-1177.73-263.65-1180.37-261.5-1183.36-261.5z"/>
		</g>
		<g>
			<path class="st16" d="M-1183.36-261.5c-0.53,0-1.06,0-1.76-0.18c-2.29-0.54-4.05-2.33-4.58-4.66l-12.32-46.79
				c-0.88-3.59,1.06-7.17,4.58-8.07c3.52-0.9,7.04,1.08,7.92,4.66l9.33,35.68l25.7-26.17c2.46-2.51,6.69-2.51,9.15,0
				c2.46,2.51,2.46,6.81,0,9.32l-33.63,34.24C-1180.02-262.22-1181.6-261.5-1183.36-261.5z"/>
		</g>
		<g>
			<path class="st16" d="M-1569.28-319.94c-2.82,0-5.46-1.97-6.34-4.84l-9.33-35.68l-25.7,26.17c-2.46,2.51-6.69,2.51-9.15,0
				c-2.46-2.51-2.46-6.81,0-9.32l33.63-34.24c1.58-1.61,4.05-2.33,6.34-1.79c2.29,0.54,4.05,2.33,4.58,4.66l12.32,46.79
				c0.88,3.59-1.06,7.17-4.58,8.07C-1568.05-319.94-1568.75-319.94-1569.28-319.94z"/>
		</g>
	</g>
	<g>
		<g>
			
				<linearGradient id="SVGID_00000035503455999190365150000004204555867284343433_" gradientUnits="userSpaceOnUse" x1="5" y1="255" x2="505" y2="255" gradientTransform="matrix(1 0 0 1 -1643.1168 -576.1099)">
				<stop  offset="5.586592e-03" style="stop-color:#001B5D"/>
				<stop  offset="0.9916" style="stop-color:#002B6B"/>
			</linearGradient>
			<path style="fill:url(#SVGID_00000035503455999190365150000004204555867284343433_);" d="M-1227.91-119.69
				c-23.24,0-42.08-19.18-42.08-42.85s18.84-42.85,42.08-42.85c23.24,0,42.08,19.18,42.08,42.85S-1204.84-119.69-1227.91-119.69z
				 M-1227.91-192.12c-16.02,0-29.05,13.27-29.05,29.58s13.03,29.58,29.05,29.58s29.05-13.27,29.05-29.58
				S-1211.88-192.12-1227.91-192.12z"/>
		</g>
		<g>
			
				<linearGradient id="SVGID_00000130625393741503271260000000766993881819129247_" gradientUnits="userSpaceOnUse" x1="5" y1="255" x2="505" y2="255" gradientTransform="matrix(1 0 0 1 -1643.1168 -576.1099)">
				<stop  offset="5.586592e-03" style="stop-color:#001B5D"/>
				<stop  offset="0.9916" style="stop-color:#002B6B"/>
			</linearGradient>
			<path style="fill:url(#SVGID_00000130625393741503271260000000766993881819129247_);" d="M-1221.22-71.11h-13.38
				c-5.63,0-10.21-4.3-10.92-10.4l-1.23-9.5c-6.16-1.61-11.97-4.12-17.61-7.35l-7.39,5.92c-4.58,3.76-10.92,3.59-14.96-0.54
				l-9.51-9.68c-3.87-3.94-4.23-10.4-0.53-15.24l5.81-7.53c-3.17-5.56-5.63-11.65-7.22-17.93l-9.33-1.25
				c-5.81-0.72-10.21-5.38-10.21-11.12v-13.62c0-5.74,4.23-10.4,10.21-11.12l9.33-1.25c1.58-6.27,4.05-12.19,7.22-17.93l-5.81-7.53
				c-3.7-4.66-3.35-11.12,0.53-15.24l9.51-9.68c3.87-3.94,10.21-4.3,14.96-0.54l7.39,5.92c5.46-3.23,11.44-5.74,17.61-7.35l1.23-9.5
				c0.7-5.92,5.28-10.4,10.92-10.4h13.38c5.63,0,10.21,4.3,10.92,10.4l1.23,9.5c6.16,1.61,11.97,4.12,17.61,7.35l7.39-5.92
				c4.58-3.76,10.92-3.41,14.96,0.54l9.51,9.68c3.87,3.94,4.23,10.4,0.53,15.24l-5.81,7.53c3.17,5.56,5.63,11.65,7.22,17.93
				l9.33,1.25c5.81,0.72,10.21,5.38,10.21,11.12v13.62c0,5.74-4.23,10.4-10.21,11.12l-9.33,1.25c-1.58,6.27-4.05,12.19-7.22,17.93
				l5.81,7.53c3.7,4.66,3.52,11.12-0.53,15.24l-9.68,9.68c-3.87,3.94-10.21,4.3-14.96,0.54l-7.39-5.92
				c-5.46,3.23-11.44,5.74-17.61,7.35l-1.23,9.5C-1211-75.59-1215.58-71.11-1221.22-71.11z M-1232.84-84.38h9.86l1.58-12.91
				c0.35-2.87,2.46-5.2,5.11-5.74c7.75-1.61,14.96-4.66,21.48-9.14c2.29-1.61,5.46-1.43,7.57,0.36l10.04,8.07l6.87-6.99l-7.92-10.22
				c-1.76-2.33-1.76-5.38-0.35-7.71c4.4-6.63,7.39-13.98,8.98-21.87c0.53-2.87,2.82-5.02,5.63-5.2l12.68-1.61v-10.04l-12.68-1.61
				c-2.82-0.36-5.11-2.51-5.63-5.2c-1.58-7.89-4.58-15.24-8.98-21.87c-1.58-2.33-1.41-5.56,0.35-7.71l7.92-10.22l-6.87-6.99
				l-10.04,8.07c-2.29,1.79-5.28,1.79-7.57,0.36c-6.51-4.48-13.73-7.53-21.48-9.14c-2.82-0.54-4.93-2.87-5.11-5.74l-1.58-12.91
				h-9.86l-1.58,12.91c-0.35,2.87-2.46,5.2-5.11,5.74c-7.75,1.61-14.96,4.66-21.48,9.14c-2.29,1.61-5.46,1.43-7.57-0.36l-10.04-8.07
				l-6.87,6.99l7.92,10.22c1.76,2.33,1.76,5.38,0.35,7.71c-4.4,6.63-7.39,13.98-8.98,21.87c-0.53,2.87-2.82,5.02-5.63,5.2
				l-12.68,1.61v10.04l12.68,1.61c2.82,0.36,5.11,2.51,5.63,5.2c1.58,7.89,4.58,15.24,8.98,21.87c1.58,2.33,1.41,5.56-0.35,7.71
				l-7.92,10.22l6.87,6.99l10.04-8.07c2.29-1.79,5.28-1.79,7.57-0.36c6.51,4.48,13.73,7.53,21.48,9.14
				c2.82,0.54,4.93,2.87,5.11,5.74L-1232.84-84.38z"/>
		</g>
		<g>
			
				<linearGradient id="SVGID_00000057127008837421485690000013256907508061879433_" gradientUnits="userSpaceOnUse" x1="5" y1="255" x2="505" y2="255" gradientTransform="matrix(1 0 0 1 -1643.1168 -576.1099)">
				<stop  offset="5.586592e-03" style="stop-color:#001B5D"/>
				<stop  offset="0.9916" style="stop-color:#002B6B"/>
			</linearGradient>
			<path style="fill:url(#SVGID_00000057127008837421485690000013256907508061879433_);" d="M-1518.4-421.41h-54.58
				c-3.52,0-6.51-3.05-6.51-6.63c0-10.4-2.99-14.16-7.22-19.36c-4.93-6.1-11.09-13.62-11.09-31.73c0-29.22,23.42-53.07,52.11-53.07
				c28.7,0,52.11,23.84,52.11,53.07c0,17.93-6.16,25.64-11.09,31.73c-4.23,5.2-7.22,8.96-7.22,19.36
				C-1512.06-424.46-1514.88-421.41-1518.4-421.41z M-1566.81-434.68h42.25c1.41-10.58,5.81-16.13,9.86-21.15
				c4.4-5.38,8.1-10.04,8.1-23.13c0-22.05-17.61-39.98-39.26-39.98s-39.26,17.93-39.26,39.98c0,13.27,3.87,17.75,8.1,23.13
				C-1572.62-450.82-1568.22-445.44-1566.81-434.68z"/>
		</g>
		<g>
			
				<linearGradient id="SVGID_00000152264620175435895030000015584873301504346556_" gradientUnits="userSpaceOnUse" x1="5" y1="255" x2="505" y2="255" gradientTransform="matrix(1 0 0 1 -1643.1168 -576.1099)">
				<stop  offset="5.586592e-03" style="stop-color:#001B5D"/>
				<stop  offset="0.9916" style="stop-color:#002B6B"/>
			</linearGradient>
			<path style="fill:url(#SVGID_00000152264620175435895030000015584873301504346556_);" d="M-1531.43-383.41h-28.7
				c-7.04,0-12.85-5.92-12.85-13.09v-11.47c0-3.59,2.99-6.63,6.51-6.63h41.37c3.52,0,6.51,3.05,6.51,6.63v11.47
				C-1518.57-389.32-1524.38-383.41-1531.43-383.41z M-1559.95-396.67h28.35v-4.66h-28.35V-396.67z"/>
		</g>
		<g>
			
				<linearGradient id="SVGID_00000017501288561606008640000007752714089386825133_" gradientUnits="userSpaceOnUse" x1="5" y1="255" x2="505" y2="255" gradientTransform="matrix(1 0 0 1 -1643.1168 -576.1099)">
				<stop  offset="5.586592e-03" style="stop-color:#001B5D"/>
				<stop  offset="0.9916" style="stop-color:#002B6B"/>
			</linearGradient>
			<path style="fill:url(#SVGID_00000017501288561606008640000007752714089386825133_);" d="M-1545.69-541.35
				c-3.52,0-6.51-3.05-6.51-6.63v-16.49c0-3.59,2.99-6.63,6.51-6.63c3.52,0,6.51,3.05,6.51,6.63v16.49
				C-1539.17-544.4-1542.17-541.35-1545.69-541.35z"/>
		</g>
		<g>
			
				<linearGradient id="SVGID_00000029004517134416587400000004286012780060534433_" gradientUnits="userSpaceOnUse" x1="5" y1="255" x2="505" y2="255" gradientTransform="matrix(1 0 0 1 -1643.1168 -576.1099)">
				<stop  offset="5.586592e-03" style="stop-color:#001B5D"/>
				<stop  offset="0.9916" style="stop-color:#002B6B"/>
			</linearGradient>
			<path style="fill:url(#SVGID_00000029004517134416587400000004286012780060534433_);" d="M-1510.83-531.85
				c-1.06,0-2.29-0.36-3.17-0.9c-3.17-1.79-4.23-5.92-2.46-8.96l8.1-14.34c1.76-3.23,5.81-4.3,8.8-2.51
				c3.17,1.79,4.23,5.92,2.46,8.96l-8.1,14.34C-1506.43-533.1-1508.72-531.85-1510.83-531.85z"/>
		</g>
		<g>
			
				<linearGradient id="SVGID_00000137101480979815236080000012968163597493470388_" gradientUnits="userSpaceOnUse" x1="5" y1="255" x2="505" y2="255" gradientTransform="matrix(1 0 0 1 -1643.1168 -576.1099)">
				<stop  offset="5.586592e-03" style="stop-color:#001B5D"/>
				<stop  offset="0.9916" style="stop-color:#002B6B"/>
			</linearGradient>
			<path style="fill:url(#SVGID_00000137101480979815236080000012968163597493470388_);" d="M-1485.48-506.03
				c-2.29,0-4.4-1.25-5.63-3.23c-1.76-3.23-0.7-7.17,2.46-8.96l14.08-8.25c3.17-1.79,7.04-0.72,8.8,2.51
				c1.76,3.23,0.7,7.17-2.46,8.96l-14.08,8.25C-1483.19-506.21-1484.24-506.03-1485.48-506.03z"/>
		</g>
		<g>
			
				<linearGradient id="SVGID_00000168799467700384507830000007778824201804634519_" gradientUnits="userSpaceOnUse" x1="5" y1="255" x2="505" y2="255" gradientTransform="matrix(1 0 0 1 -1643.1168 -576.1099)">
				<stop  offset="5.586592e-03" style="stop-color:#001B5D"/>
				<stop  offset="0.9916" style="stop-color:#002B6B"/>
			</linearGradient>
			<path style="fill:url(#SVGID_00000168799467700384507830000007778824201804634519_);" d="M-1459.95-470.54h-16.2
				c-3.52,0-6.51-3.05-6.51-6.63c0-3.59,2.99-6.63,6.51-6.63h16.2c3.52,0,6.51,3.05,6.51,6.63
				C-1453.43-473.58-1456.25-470.54-1459.95-470.54z"/>
		</g>
		<g>
			
				<linearGradient id="SVGID_00000044900360066296036100000017503260988088372378_" gradientUnits="userSpaceOnUse" x1="5" y1="255" x2="505" y2="255" gradientTransform="matrix(1 0 0 1 -1643.1168 -576.1099)">
				<stop  offset="5.586592e-03" style="stop-color:#001B5D"/>
				<stop  offset="0.9916" style="stop-color:#002B6B"/>
			</linearGradient>
			<path style="fill:url(#SVGID_00000044900360066296036100000017503260988088372378_);" d="M-1580.55-531.85
				c-2.29,0-4.4-1.25-5.63-3.23l-8.1-14.34c-1.76-3.23-0.7-7.17,2.46-8.96c3.17-1.79,7.04-0.72,8.8,2.51l8.1,14.34
				c1.76,3.23,0.7,7.17-2.46,8.96C-1578.26-532.21-1579.49-531.85-1580.55-531.85z"/>
		</g>
		<g>
			
				<linearGradient id="SVGID_00000104665303470778069230000011792831445829050513_" gradientUnits="userSpaceOnUse" x1="5" y1="255" x2="505" y2="255" gradientTransform="matrix(1 0 0 1 -1643.1168 -576.1099)">
				<stop  offset="5.586592e-03" style="stop-color:#001B5D"/>
				<stop  offset="0.9916" style="stop-color:#002B6B"/>
			</linearGradient>
			<path style="fill:url(#SVGID_00000104665303470778069230000011792831445829050513_);" d="M-1606.07-506.03
				c-1.06,0-2.29-0.36-3.17-0.9l-14.08-8.25c-3.17-1.79-4.23-5.92-2.46-8.96c1.76-3.23,5.81-4.3,8.8-2.51l14.08,8.25
				c3.17,1.79,4.23,5.92,2.46,8.96C-1601.5-507.11-1603.79-506.03-1606.07-506.03z"/>
		</g>
		<g>
			
				<linearGradient id="SVGID_00000011746160145758827930000018311580752411587737_" gradientUnits="userSpaceOnUse" x1="5" y1="255" x2="505" y2="255" gradientTransform="matrix(1 0 0 1 -1643.1168 -576.1099)">
				<stop  offset="5.586592e-03" style="stop-color:#001B5D"/>
				<stop  offset="0.9916" style="stop-color:#002B6B"/>
			</linearGradient>
			<path style="fill:url(#SVGID_00000011746160145758827930000018311580752411587737_);" d="M-1615.41-470.54h-16.2
				c-3.52,0-6.51-3.05-6.51-6.63c0-3.59,2.99-6.63,6.51-6.63h16.2c3.52,0,6.51,3.05,6.51,6.63
				C-1608.89-473.58-1611.71-470.54-1615.41-470.54z"/>
		</g>
		<g>
			
				<linearGradient id="SVGID_00000015338569743938421780000006226154704207489165_" gradientUnits="userSpaceOnUse" x1="5" y1="255" x2="505" y2="255" gradientTransform="matrix(1 0 0 1 -1643.1168 -576.1099)">
				<stop  offset="5.586592e-03" style="stop-color:#001B5D"/>
				<stop  offset="0.9916" style="stop-color:#002B6B"/>
			</linearGradient>
			<path style="fill:url(#SVGID_00000015338569743938421780000006226154704207489165_);" d="M-1516.29-401.34h-58.8
				c-3.52,0-6.51-3.05-6.51-6.63v-20.08c0-3.59,2.99-6.63,6.51-6.63h58.8c3.52,0,6.51,3.05,6.51,6.63v20.08
				C-1509.77-404.38-1512.76-401.34-1516.29-401.34z M-1568.57-414.6h45.77v-6.81h-45.77V-414.6z"/>
		</g>
		<g>
			
				<linearGradient id="SVGID_00000103266553059593378240000016532908797048400818_" gradientUnits="userSpaceOnUse" x1="5" y1="255" x2="505" y2="255" gradientTransform="matrix(1 0 0 1 -1643.1168 -576.1099)">
				<stop  offset="5.586592e-03" style="stop-color:#001B5D"/>
				<stop  offset="0.9916" style="stop-color:#002B6B"/>
			</linearGradient>
			<path style="fill:url(#SVGID_00000103266553059593378240000016532908797048400818_);" d="M-1545.69-421.41
				c-3.52,0-6.51-3.05-6.51-6.63v-40.52c0-3.59,2.99-6.63,6.51-6.63c3.52,0,6.51,3.05,6.51,6.63v40.52
				C-1539.17-424.46-1542.17-421.41-1545.69-421.41z"/>
		</g>
		<g>
			
				<linearGradient id="SVGID_00000108282342480615897940000012161759513760590497_" gradientUnits="userSpaceOnUse" x1="5" y1="255" x2="505" y2="255" gradientTransform="matrix(1 0 0 1 -1643.1168 -576.1099)">
				<stop  offset="5.586592e-03" style="stop-color:#001B5D"/>
				<stop  offset="0.9916" style="stop-color:#002B6B"/>
			</linearGradient>
			<path style="fill:url(#SVGID_00000108282342480615897940000012161759513760590497_);" d="M-1545.69-461.93
				c-10.74,0-19.54-8.96-19.54-19.9s8.8-19.9,19.54-19.9c10.74,0,19.54,8.96,19.54,19.9S-1534.95-461.93-1545.69-461.93z
				 M-1545.69-488.82c-3.7,0-6.69,3.05-6.69,6.81c0,3.76,2.99,6.81,6.69,6.81c3.7,0,6.69-3.05,6.69-6.81
				C-1539-485.77-1541.99-488.82-1545.69-488.82z"/>
		</g>
		<g>
			
				<linearGradient id="SVGID_00000113351224595111137530000007252847594557165476_" gradientUnits="userSpaceOnUse" x1="5" y1="255" x2="505" y2="255" gradientTransform="matrix(1 0 0 1 -1643.1168 -576.1099)">
				<stop  offset="5.586592e-03" style="stop-color:#001B5D"/>
				<stop  offset="0.9916" style="stop-color:#002B6B"/>
			</linearGradient>
			<path style="fill:url(#SVGID_00000113351224595111137530000007252847594557165476_);" d="M-1309.42-229.77h-145.6
				c-8.63,0-15.67-7.17-15.67-15.96V-390.4c0-8.78,7.04-15.96,15.67-15.96h145.6c8.63,0,15.67,7.17,15.67,15.96v144.68
				C-1293.75-236.94-1300.79-229.77-1309.42-229.77z M-1455.02-393.09c-1.41,0-2.64,1.25-2.64,2.69v144.68
				c0,1.43,1.23,2.69,2.64,2.69h145.6c1.41,0,2.64-1.25,2.64-2.69V-390.4c0-1.43-1.23-2.69-2.64-2.69H-1455.02L-1455.02-393.09z"/>
		</g>
		<g>
			
				<linearGradient id="SVGID_00000030487265690622728270000016262349350778337968_" gradientUnits="userSpaceOnUse" x1="5" y1="255" x2="505" y2="255" gradientTransform="matrix(1 0 0 1 -1643.1168 -576.1099)">
				<stop  offset="5.586592e-03" style="stop-color:#001B5D"/>
				<stop  offset="0.9916" style="stop-color:#002B6B"/>
			</linearGradient>
			<path style="fill:url(#SVGID_00000030487265690622728270000016262349350778337968_);" d="M-1361-324.96
				c-2.11,0-4.05-0.9-5.28-2.69l-15.85-21.87l-15.85,21.87c-1.58,2.33-4.58,3.23-7.22,2.33c-2.64-0.9-4.4-3.41-4.4-6.27v-68.12
				c0-3.59,2.99-6.63,6.51-6.63h42.08c3.52,0,6.51,3.05,6.51,6.63v68.12c0,2.87-1.76,5.38-4.4,6.27
				C-1359.77-325.14-1360.48-324.96-1361-324.96z M-1396.74-393.09v41.41l9.33-12.91c1.23-1.61,3.17-2.69,5.28-2.69l0,0
				c2.11,0,4.05,1.08,5.28,2.69l9.33,12.91v-41.41H-1396.74z"/>
		</g>
		<g>
			
				<linearGradient id="SVGID_00000004518583119508728300000002914227205137632148_" gradientUnits="userSpaceOnUse" x1="5" y1="255" x2="505" y2="255" gradientTransform="matrix(1 0 0 1 -1643.1168 -576.1099)">
				<stop  offset="5.586592e-03" style="stop-color:#001B5D"/>
				<stop  offset="0.9916" style="stop-color:#002B6B"/>
			</linearGradient>
			<path style="fill:url(#SVGID_00000004518583119508728300000002914227205137632148_);" d="M-1383.01-102.12
				c-117.08,0-212.15-96.99-212.15-216.03c0-19.18,2.46-38.36,7.39-56.83c0.88-3.59,4.58-5.56,7.92-4.66
				c3.52,0.9,5.46,4.66,4.58,8.07c-4.58,17.39-7.04,35.32-7.04,53.42c0,111.87,89.44,202.94,199.3,202.94
				c21.13,0,41.9-3.41,61.8-10.04c3.35-1.08,7.04,0.72,8.1,4.3c1.06,3.41-0.7,7.17-4.23,8.25
				C-1338.47-105.71-1360.65-102.12-1383.01-102.12z M-1183.36-261.5c-0.53,0-1.06,0-1.58-0.18c-3.52-0.9-5.63-4.48-4.75-8.07
				c3.87-15.78,5.81-32.09,5.81-48.4c0-111.87-89.44-202.94-199.3-202.94c-16.02,0-32.04,1.97-47.54,5.92
				c-3.52,0.9-7.04-1.25-7.92-4.84c-0.88-3.59,1.23-7.17,4.75-8.07c16.55-4.12,33.63-6.27,50.7-6.27
				c117.08,0,212.15,96.99,212.15,216.03c0,17.39-2.11,34.78-6.16,51.63C-1177.73-263.65-1180.37-261.5-1183.36-261.5z"/>
		</g>
		<g>
			
				<linearGradient id="SVGID_00000021805777679556560320000004042361061435143825_" gradientUnits="userSpaceOnUse" x1="5" y1="255" x2="505" y2="255" gradientTransform="matrix(1 0 0 1 -1643.1168 -576.1099)">
				<stop  offset="5.586592e-03" style="stop-color:#001B5D"/>
				<stop  offset="0.9916" style="stop-color:#002B6B"/>
			</linearGradient>
			<path style="fill:url(#SVGID_00000021805777679556560320000004042361061435143825_);" d="M-1183.36-261.5
				c-0.53,0-1.06,0-1.76-0.18c-2.29-0.54-4.05-2.33-4.58-4.66l-12.32-46.79c-0.88-3.59,1.06-7.17,4.58-8.07
				c3.52-0.9,7.04,1.08,7.92,4.66l9.33,35.68l25.7-26.17c2.46-2.51,6.69-2.51,9.15,0c2.46,2.51,2.46,6.81,0,9.32l-33.63,34.24
				C-1180.02-262.22-1181.6-261.5-1183.36-261.5z"/>
		</g>
		<g>
			
				<linearGradient id="SVGID_00000108988336790779669050000014329006964377498508_" gradientUnits="userSpaceOnUse" x1="5" y1="255" x2="505" y2="255" gradientTransform="matrix(1 0 0 1 -1643.1168 -576.1099)">
				<stop  offset="5.586592e-03" style="stop-color:#001B5D"/>
				<stop  offset="0.9916" style="stop-color:#002B6B"/>
			</linearGradient>
			<path style="fill:url(#SVGID_00000108988336790779669050000014329006964377498508_);" d="M-1569.28-319.94
				c-2.82,0-5.46-1.97-6.34-4.84l-9.33-35.68l-25.7,26.17c-2.46,2.51-6.69,2.51-9.15,0c-2.46-2.51-2.46-6.81,0-9.32l33.63-34.24
				c1.58-1.61,4.05-2.33,6.34-1.79c2.29,0.54,4.05,2.33,4.58,4.66l12.32,46.79c0.88,3.59-1.06,7.17-4.58,8.07
				C-1568.05-319.94-1568.75-319.94-1569.28-319.94z"/>
		</g>
	</g>
</g>
<g>
	
		<linearGradient id="SVGID_00000124874807034913224940000000931130845994354832_" gradientUnits="userSpaceOnUse" x1="-1638.1168" y1="-1069.9724" x2="-1138.1168" y2="-1069.9724">
		<stop  offset="5.586592e-03" style="stop-color:#001B5D"/>
		<stop  offset="0.9916" style="stop-color:#002B6B"/>
	</linearGradient>
	<path style="fill-rule:evenodd;clip-rule:evenodd;fill:url(#SVGID_00000124874807034913224940000000931130845994354832_);" d="
		M-1388.12-1320.05c138.05,0,250,111.95,250,250c0,138.2-111.95,250.15-250,250.15c-138.05,0-250-111.95-250-250.15
		C-1638.12-1208.1-1526.17-1320.05-1388.12-1320.05L-1388.12-1320.05z"/>
	<path class="st37" d="M-1388.41-1308.74c61.92,0,118.33,23.5,160.67,62.07l-8.85,3.48l-4.79,5.08l1.16,5.95l5.8,0.87l3.48,8.7
		l10.01-4.06l1.59,11.75h-2.9l-8.27-1.16l-9.13,1.45l-8.85,12.47l-12.61,2.03l-1.74,10.73l5.37,1.31l-1.59,6.96l-12.47-2.61
		l-11.6,2.61l-2.32,6.38l1.88,13.34l6.82,3.19l11.31-0.14l7.54-0.58l2.47-6.09l11.89-15.52l7.83,1.59l7.69-6.96l1.45,5.37
		l18.99,12.9l-2.32,3.19l-8.56-0.58l3.34,4.79l5.22,1.16l6.23-2.61l-0.14-7.54l2.76-1.3l-2.18-2.32l-12.76-7.1l-3.34-9.43h10.59
		l3.34,3.34l9.14,7.83l0.44,9.43l9.42,10.15l3.48-13.78l6.52-3.62l1.16,11.31l6.38,6.96h2.61c2.61,6.67,5.08,13.49,7.1,20.3h-11.17
		l-11.89-8.7l-12.47,1.16v7.54h-3.92l-4.21-3.05l-21.75-5.37v-14.06l-27.26,2.17l-8.55,4.5h-10.88l-5.22-0.43l-13.2,7.25v13.78
		l-26.97,19.43l2.18,8.27h5.51l-1.45,7.97l-3.77,1.45l-0.29,20.59l23.35,26.54h10.15l0.58-1.6h18.27l5.22-4.93h10.3l5.8,5.8
		l15.37,1.6l-2.03,20.44l17.11,30.16l-9.14,17.25l0.72,8.12l7.11,6.96v19.58l9.28,12.47v12.32
		c-43.79,54.38-110.79,89.04-186.05,89.04c-123.55,0-225.2-93.97-237.53-214.33l0,0c-0.15-1.88-0.29-3.77-0.43-5.65v-0.15
		c-0.58-6.09-0.72-12.33-0.72-18.71v-1.45v-2.75l0.15-3.48l0.14-3.48v-2.03c0.15-1.59,0.15-3.05,0.29-4.5l0.15-1.16
		c2.03-26.68,8.56-52.06,18.71-75.7v13.05l10.15,4.93v19.29l9.71,16.53l7.83,1.16l1.01-5.66l-9.28-14.36l-1.88-13.92h5.51
		l2.32,14.35l13.49,19.58l-3.48,6.38l8.56,13.05l21.32,5.37v-3.48l8.41,1.3l-0.72,6.09l6.67,1.16l10.3,2.9l14.65,16.53l18.56,1.45
		l1.89,15.22l-12.76,8.85l-0.58,13.63l-1.88,8.26l18.41,23.06l1.45,7.98c0,0,6.67,1.74,7.54,1.74c0.72,0,14.94,10.88,14.94,10.88
		v41.62l5.08,1.45l-3.48,19.29l8.56,11.31l-1.6,19.14l11.31,19.72l14.36,12.61l14.5,0.15l1.45-4.64l-10.73-8.99l0.72-4.35l1.88-5.51
		l0.44-5.51l-7.25-0.29l-3.63-4.5l5.95-5.8l0.87-4.35l-6.67-1.88l0.29-4.06l9.57-1.45l14.5-6.96l4.79-8.99l15.23-19.43l-3.48-15.23
		l4.79-7.97l13.92,0.29l9.42-7.39l3.05-29.3l10.44-13.34l1.74-8.41l-9.43-3.04l-6.38-10.44l-21.46-0.15l-16.97-6.52l-0.87-12.19
		l-5.66-9.86l-15.37-0.29l-8.85-13.92l-7.97-3.77l-0.43,4.21l-14.36,0.87l-5.22-7.4l-15.08-3.04l-12.32,14.36l-19.43-3.34
		l-1.45-21.9l-14.21-2.47l5.8-10.73l-1.74-6.23l-18.56,12.47l-11.75-1.31l-4.21-9.28l2.61-9.43l6.38-11.89l14.94-7.54h28.71v8.7
		l10.3,4.79l-0.87-14.94l7.54-7.54l14.94-9.86l1.16-6.96l14.94-15.52l15.95-8.85l-1.45-1.16l10.88-10.15l3.92,1.01l1.74,2.32
		l4.21-4.5l1.01-0.58l-4.49-0.58l-4.64-1.45v-4.5l2.46-1.88l5.37-0.15l2.32,1.16l2.17,4.21l2.61-0.29v-0.43l0.73,0.29l7.39-1.16
		l1.16-3.77l4.21,1.16v3.92l-3.92,2.76l0,0l0.58,4.35l13.49,4.21c0,0,0,0,0,0.15l3.19-0.29l0.15-5.8l-10.73-4.93l-0.58-2.9l8.85-2.9
		l0.43-8.56l-9.28-5.66l-0.58-14.35l-12.76,6.23h-4.64l1.16-11.02l-17.4-4.06l-7.1,5.37v16.68l-12.91,4.06l-5.22,10.73l-5.66,1.01
		v-13.92l-12.03-1.6l-6.09-4.06l-2.47-8.84l21.75-12.76l10.59-3.19l1.02,7.1l5.95-0.29l0.43-3.62l6.23-0.87l0.14-1.3l-2.75-1.01
		l-0.58-3.77l7.69-0.72l4.64-4.79l0.14-0.29h0.15l1.3-1.45l16.1-2.03l6.96,5.95l-18.56,10l23.64,5.51l3.05-7.83h10.3l3.77-6.96
		l-7.39-1.74v-8.7l-22.77-10.15l-15.81,1.74l-8.99,4.64l0.58,11.46l-9.28-1.45l-1.45-6.23l8.99-8.12l-16.24-0.87l-4.64,1.45
		l-2.03,5.37l6.09,1.16l-1.3,5.94l-10.3,0.72l-1.6,4.06l-14.93,0.29c0,0-0.43-8.41-1.01-8.41c-0.58,0,11.75-0.29,11.75-0.29
		l8.84-8.7l-4.79-2.46l-6.52,6.38l-10.73-0.58l-6.53-8.99h-13.78l-14.35,10.73h13.19l1.16,3.92l-3.33,3.19l14.5,0.43l2.32,5.22
		l-16.53-0.58l-0.72-4.06l-10.3-2.18l-5.51-3.04h-8.85C-1484.84-1293.36-1438.43-1308.74-1388.41-1308.74L-1388.41-1308.74z"/>
</g>
<g>
	
		<linearGradient id="SVGID_00000008845326876573479530000017299636009986696609_" gradientUnits="userSpaceOnUse" x1="-1529.8575" y1="-1794.3181" x2="-1162.4026" y2="-1794.3181">
		<stop  offset="5.586592e-03" style="stop-color:#011B5D"/>
		<stop  offset="0.9916" style="stop-color:#012B6B"/>
	</linearGradient>
	<path style="fill:url(#SVGID_00000008845326876573479530000017299636009986696609_);" d="M-1169.09-1815.13
		c5.15-4.8,7.5-10.89,6.43-16.75c-1.08-5.86-5.41-10.55-11.88-12.88l-30.53-10.97c-2.35-0.83-4.19-2.58-5.2-4.9
		c-1-2.32-1.06-4.95-0.16-7.43l11.77-32.17c2.35-6.41,2.03-12.49-0.91-17.11c-3.33-5.26-9.15-7.73-16.72-6.41l-31.79,5.53
		c-5.09,0.88-9.52-2.85-10.08-8.25l-3.5-34.37c-1.14-11.34-8.2-16.42-14.68-16.42c-3.7,0-7.53,1.52-11.11,4.41l-25.73,20.76
		c-3.99,3.21-9.73,2.15-12.48-2.27l-17.97-28.7c-3.6-5.74-8.47-8.9-13.71-8.9c-5.98,0-11.2,4.06-14.34,11.16l-13.82,31.23
		c-2.12,4.8-7.63,6.78-12.03,4.23l-28.33-16.45c-7.22-4.2-14.83-3.42-19.46,1.76c-2.15,2.41-4.66,6.81-4.39,14.23l1.28,34.54
		c0.1,2.63-0.76,5.08-2.39,6.92c-1.63,1.82-3.89,2.84-6.46,2.84l-32.52-0.43c-6.69,0-12.1,2.93-14.85,8.04
		c-2.76,5.14-2.41,11.7,0.99,18.02l16.08,29.96c1.23,2.3,1.54,4.91,0.87,7.37c-0.68,2.45-2.27,4.47-4.47,5.68l-28.69,15.69
		c-6.08,3.33-9.72,8.67-9.97,14.63c-0.27,5.95,2.89,11.63,8.65,15.54l27.21,18.5c2.09,1.42,3.49,3.59,3.96,6.09
		c0.45,2.51-0.07,5.09-1.5,7.26l-18.62,28.21c-3.94,5.99-4.85,12.52-2.51,17.93c2.35,5.41,7.6,8.85,14.4,9.43l32.09,2.81
		c2.46,0.21,4.65,1.42,6.14,3.42c1.5,1.99,2.14,4.53,1.81,7.17l-4.27,34.26c-0.74,6.04,0.51,11.4,3.54,15.13
		c4.27,5.23,11.5,6.54,18.84,3.18l29.62-13.54c4.62-2.11,9.92,0.4,11.62,5.41l11.03,32.48c2.69,7.89,8.13,12.61,14.57,12.61
		c4.78,0,9.45-2.7,13.16-7.57l20.38-26.78c1.69-2.24,4.16-3.51,6.74-3.51c1.51,0,3.77,0.43,5.89,2.5l23.84,23.25
		c3.73,3.63,7.88,5.56,12.01,5.56c5.72,0,12.61-3.93,14.71-14.94l6.45-33.88c1.01-5.24,5.82-8.56,10.75-7.19l31.16,8.68
		c1.9,0.52,3.78,0.79,5.56,0.79c5.04,0,9.32-2.14,12.05-6.04c2.99-4.28,3.69-10.12,1.98-16.42l-8.94-33.22
		c-0.69-2.54-0.4-5.15,0.81-7.36c1.21-2.21,3.2-3.77,5.61-4.36l31.35-7.87c6.66-1.67,11.37-5.9,12.95-11.63
		c1.58-5.72-0.23-12.03-4.95-17.32l-22.29-24.95c-1.72-1.91-2.59-4.38-2.48-6.93c0.11-2.56,1.2-4.92,3.06-6.65L-1169.09-1815.13z
		 M-1203.91-1768.75l22.31,24.94c1.48,1.68,1.72,2.8,1.71,2.96c-0.09,0.18-0.85,1-2.95,1.52l-31.36,7.88
		c-6.09,1.52-11.17,5.51-14.29,11.24c-3.13,5.73-3.88,12.43-2.14,18.89l8.94,33.22c0.6,2.22,0.32,3.33,0.25,3.47
		c-0.14,0.1-1.61,0.34-3.29-0.12l-31.15-8.68c-1.89-0.52-3.83-0.79-5.75-0.79c-10.7,0-19.67,7.92-21.83,19.26l-6.45,33.88
		c-0.44,2.27-1.18,3.11-1.33,3.21c-0.38,0-1.41-0.37-2.82-1.76l-23.85-23.25c-4.17-4.06-9.52-6.31-15.07-6.31
		c-6.71,0-13.03,3.24-17.33,8.91l-20.38,26.78c-1.31,1.73-2.29,2.14-2.54,2.17c-0.22-0.1-1.03-0.85-1.74-2.96l-11.04-32.47
		c-3.28-9.62-11.5-15.85-20.94-15.85c-3.06,0-6.03,0.67-8.88,1.97l-29.62,13.52c-1.37,0.63-2.26,0.73-2.68,0.73l-0.51-0.06
		c-0.14-0.18-0.56-1.22-0.28-3.5l4.27-34.26c0.83-6.66-0.84-13.18-4.71-18.35c-3.87-5.16-9.45-8.31-15.68-8.84l-32.09-2.8
		c-2.16-0.19-3.02-0.88-3.13-1c-0.04-0.2,0.03-1.34,1.27-3.24l18.63-28.21c3.61-5.5,4.94-12.11,3.74-18.6
		c-1.19-6.5-4.77-12.06-10.06-15.64l-27.2-18.52c-1.83-1.23-2.29-2.26-2.32-2.42c0.05-0.19,0.61-1.18,2.53-2.22l28.68-15.71
		c5.58-3.05,9.62-8.23,11.38-14.58c1.75-6.37,0.99-13.06-2.13-18.89l-16.08-29.96c-1.08-2.02-1.05-3.15-1.01-3.32
		c0.12-0.15,0.99-0.72,3.19-0.72h0l32.47,0.43c6.21,0,11.96-2.62,16.19-7.35c4.24-4.75,6.44-11.03,6.19-17.68l-1.28-34.55
		c-0.08-2.33,0.44-3.33,0.85-3.48c0.34,0,1.29,0.11,2.84,1l28.33,16.44c3.31,1.93,7.03,2.94,10.73,2.94
		c8.68,0,16.41-5.29,20.15-13.77l13.83-31.25c0.93-2.09,1.83-2.72,1.97-2.76c0.2,0.02,1.17,0.49,2.38,2.42l17.96,28.7
		c4.21,6.7,11.13,10.68,18.55,10.68c4.87,0,9.53-1.67,13.49-4.87l25.74-20.76c1.72-1.39,2.72-1.46,2.94-1.48
		c0.15,0.12,0.81,1.03,1.04,3.33l3.5,34.38c1.38,13.54,12.94,23.4,25.86,21.14l31.79-5.53c1.77-0.31,3.13,0.09,3.23,0.16
		c0.09,0.2,0.28,1.33-0.5,3.48l-11.78,32.17c-2.29,6.25-2.13,13,0.48,19.01c2.61,6.02,7.31,10.5,13.26,12.64l30.54,10.97
		c2.04,0.73,2.73,1.61,2.79,1.75c0,0.21-0.33,1.32-1.96,2.82l-24.35,22.63c-4.74,4.39-7.5,10.45-7.79,17.06
		C-1210.47-1779.93-1208.25-1773.62-1203.91-1768.75z"/>
	
		<linearGradient id="SVGID_00000134942788039260510040000010943355547000225436_" gradientUnits="userSpaceOnUse" x1="-1259.5242" y1="-1588.2261" x2="-1097.7273" y2="-1588.2261">
		<stop  offset="5.586592e-03" style="stop-color:#011B5D"/>
		<stop  offset="0.9916" style="stop-color:#012B6B"/>
	</linearGradient>
	<path style="fill:url(#SVGID_00000134942788039260510040000010943355547000225436_);" d="M-1203.65-1633.78l-31.16-8.69
		c-8.72-2.44-17.35,3.35-19.15,12.84l-5.55,29.11l91.15,108.55l7.23-66.15l63.42-2.29l-104.16-124.07c-0.03,1.63,0.17,3.3,0.61,4.97
		l8.95,33.22C-1189.82-1636.98-1194.92-1631.36-1203.65-1633.78z"/>
	
		<linearGradient id="SVGID_00000108990197448908985190000015131936292212904884_" gradientUnits="userSpaceOnUse" x1="-1597.7273" y1="-1588.2318" x2="-1408.6627" y2="-1588.2318">
		<stop  offset="5.586592e-03" style="stop-color:#011B5D"/>
		<stop  offset="0.9916" style="stop-color:#012B6B"/>
	</linearGradient>
	<path style="fill:url(#SVGID_00000108990197448908985190000015131936292212904884_);" d="M-1468.16-1660.54
		c1.2-9.59-5.18-18.09-14.18-18.87l-4.62-0.42l-110.77,107.32l61.59,7.75l2.11,68.12l125.37-121.42l-0.51-1.53
		c-3.09-9.1-12.41-13.45-20.72-9.65l-29.64,13.54c-8.29,3.8-14.1-0.96-12.9-10.55L-1468.16-1660.54z"/>
	
		<linearGradient id="SVGID_00000123408222203097686010000007312969400934275975_" gradientUnits="userSpaceOnUse" x1="-1297.4261" y1="-1820.7065" x2="-1238.151" y2="-1820.7065">
		<stop  offset="5.586592e-03" style="stop-color:#011B5D"/>
		<stop  offset="0.9916" style="stop-color:#012B6B"/>
	</linearGradient>
	<path style="fill:url(#SVGID_00000123408222203097686010000007312969400934275975_);" d="M-1297.43-1820.71
		c0,17.57,13.27,31.83,29.64,31.83c16.37,0,29.64-14.26,29.64-31.83c0-17.59-13.27-31.83-29.64-31.83
		C-1284.15-1852.53-1297.43-1838.29-1297.43-1820.71z"/>
	
		<linearGradient id="SVGID_00000078727987031886934560000016935293927040482730_" gradientUnits="userSpaceOnUse" x1="-1302.062" y1="-1763.6506" x2="-1222.7762" y2="-1763.6506">
		<stop  offset="5.586592e-03" style="stop-color:#011B5D"/>
		<stop  offset="0.9916" style="stop-color:#012B6B"/>
	</linearGradient>
	<path style="fill:url(#SVGID_00000078727987031886934560000016935293927040482730_);" d="M-1284.94-1785.88
		c-6.46,0-12.4,2.39-17.12,6.35c11.94,7.95,19.98,22.01,20.27,38.1h59.02v-14.52c0-16.53-12.47-29.93-27.85-29.93H-1284.94z
		 M-1256.75-1746.56h-4.11l-3.43-24.24h-0.12l3.36-6.65h-13.47l3.36,6.65h-0.12l-3.43,24.24h-4.12l-6.39-36.04l1.89-0.1h31.07
		c0.64,0,1.27,0.04,1.9,0.1L-1256.75-1746.56z"/>
	
		<linearGradient id="SVGID_00000133500530559886160250000013000650972106327739_" gradientUnits="userSpaceOnUse" x1="-1457.3076" y1="-1820.7065" x2="-1398.0369" y2="-1820.7065">
		<stop  offset="5.586592e-03" style="stop-color:#011B5D"/>
		<stop  offset="0.9916" style="stop-color:#012B6B"/>
	</linearGradient>
	<path style="fill:url(#SVGID_00000133500530559886160250000013000650972106327739_);" d="M-1457.31-1820.71
		c0,17.57,13.27,31.83,29.63,31.83c16.38,0,29.64-14.26,29.64-31.83c0-17.59-13.27-31.83-29.64-31.83
		C-1444.04-1852.53-1457.31-1838.29-1457.31-1820.71z"/>
	
		<linearGradient id="SVGID_00000141433443999069077750000006491327878337041849_" gradientUnits="userSpaceOnUse" x1="-1472.6869" y1="-1763.6506" x2="-1393.3445" y2="-1763.6506">
		<stop  offset="5.586592e-03" style="stop-color:#011B5D"/>
		<stop  offset="0.9916" style="stop-color:#012B6B"/>
	</linearGradient>
	<path style="fill:url(#SVGID_00000141433443999069077750000006491327878337041849_);" d="M-1472.69-1755.95v14.52h59.13
		c0.3-16.08,8.3-30.11,20.22-38.06c-4.74-3.99-10.7-6.4-17.18-6.4h-34.31C-1460.22-1785.88-1472.69-1772.47-1472.69-1755.95z
		 M-1412.14-1782.71l1.89,0.1l-6.39,36.04h-4.12l-3.44-24.24h-0.12l3.37-6.65h-13.49l3.38,6.65h-0.13l-3.43,24.24h-4.1l-6.4-36.04
		l1.89-0.1H-1412.14z"/>
	
		<linearGradient id="SVGID_00000026856837325732072910000015085147494312661898_" gradientUnits="userSpaceOnUse" x1="-1388.1168" y1="-1829.8217" x2="-1307.3552" y2="-1829.8217">
		<stop  offset="5.586592e-03" style="stop-color:#011B5D"/>
		<stop  offset="0.9916" style="stop-color:#012B6B"/>
	</linearGradient>
	<path style="fill:url(#SVGID_00000026856837325732072910000015085147494312661898_);" d="M-1388.12-1829.82
		c0,23.97,18.08,43.38,40.38,43.38c22.31,0,40.38-19.41,40.38-43.38c0-23.95-18.06-43.38-40.38-43.38
		C-1370.04-1873.2-1388.12-1853.77-1388.12-1829.82z"/>
	
		<linearGradient id="SVGID_00000083072758387069053970000018195041360901213826_" gradientUnits="userSpaceOnUse" x1="-1409.0634" y1="-1752.0679" x2="-1286.3867" y2="-1752.0679">
		<stop  offset="5.586592e-03" style="stop-color:#011B5D"/>
		<stop  offset="0.9916" style="stop-color:#012B6B"/>
	</linearGradient>
	<path style="fill:url(#SVGID_00000083072758387069053970000018195041360901213826_);" d="M-1371.11-1782.35
		c-20.96,0-37.95,18.26-37.95,40.77v19.78h122.68v-19.78c0-22.52-17-40.77-37.96-40.77H-1371.11z M-1332.69-1728.78h-5.61h-18.87
		l4.67-33.02l-4.68,33.02h-5.61l-8.7-49.12c0.84-0.08,1.71-0.15,2.57-0.15h42.34c0.88,0,1.74,0.07,2.59,0.15L-1332.69-1728.78z"/>
	
		<linearGradient id="SVGID_00000032621455558070604120000007009312859483730080_" gradientUnits="userSpaceOnUse" x1="-1357.1577" y1="-1749.8269" x2="-1338.2919" y2="-1749.8269">
		<stop  offset="5.586592e-03" style="stop-color:#011B5D"/>
		<stop  offset="0.9916" style="stop-color:#012B6B"/>
	</linearGradient>
	<polygon style="fill:url(#SVGID_00000032621455558070604120000007009312859483730080_);" points="-1357.16,-1728.78 
		-1338.29,-1728.78 -1342.97,-1761.8 -1343.14,-1761.8 -1338.54,-1770.87 -1356.91,-1770.87 -1352.33,-1761.8 -1352.49,-1761.8 	"/>
</g>
<g>
	<g>
		
			<linearGradient id="SVGID_00000017489922534938949220000008907102517680078992_" gradientUnits="userSpaceOnUse" x1="106.8682" y1="349.3495" x2="402.9763" y2="349.3495">
			<stop  offset="5.586592e-03" style="stop-color:#001B5D"/>
			<stop  offset="0.9916" style="stop-color:#002B6B"/>
		</linearGradient>
		<path style="fill:url(#SVGID_00000017489922534938949220000008907102517680078992_);" d="M276.24,497.4h-42.79
			c-11.89,0-21.39-9.66-21.39-21.39v-23.18l-16.34,16.34c-4.01,4.01-9.36,6.24-15.15,6.24c-5.79,0-11.14-2.23-15.15-6.24
			l-30.31-30.31c-4.01-4.01-6.24-9.36-6.24-15.15c0-5.79,2.23-11.14,6.24-15.15l16.34-16.34h-23.18c-11.89,0-21.39-9.66-21.39-21.39
			v-42.94c0-11.89,9.66-21.39,21.39-21.39h23.18l-16.34-16.34c-4.01-4.01-6.24-9.36-6.24-15.15s2.23-11.14,6.24-15.15l30.31-30.31
			c4.01-4.01,9.36-6.24,15.15-6.24c5.79,0,11.14,2.23,15.15,6.24l16.34,16.34v-23.18c0-11.89,9.66-21.39,21.39-21.39h42.94
			c11.89,0,21.39,9.66,21.39,21.39v23.18l16.34-16.34c8.32-8.32,21.99-8.32,30.31,0l30.31,30.31c4.01,4.01,6.24,9.36,6.24,15.15
			c0,5.79-2.23,11.14-6.24,15.15l-16.34,16.34h23.18c11.89,0,21.39,9.66,21.39,21.39v42.79c0,11.89-9.66,21.39-21.39,21.39H358.4
			l16.34,16.34c8.32,8.32,8.32,21.99,0,30.31l-30.31,30.31c-4.01,4.01-9.36,6.24-15.15,6.24c-5.79,0-11.14-2.23-15.15-6.24
			l-16.34-16.34v23.18C297.79,487.89,288.13,497.4,276.24,497.4z M213.25,433.07c1.04,0,2.08,0.3,3.12,0.74
			c1.93,0.89,3.86,1.63,5.79,2.38c2.97,1.04,4.9,4.01,4.9,7.13v32.69c0,3.42,2.82,6.24,6.24,6.24h42.94c3.42,0,6.24-2.82,6.24-6.24
			v-32.69c0-3.12,1.93-5.94,4.9-7.13c1.93-0.74,4.01-1.49,5.79-2.38c2.82-1.34,6.24-0.74,8.47,1.49l23.18,23.18
			c1.19,1.19,2.67,1.78,4.46,1.78s3.27-0.59,4.46-1.78l30.31-30.31c2.38-2.38,2.38-6.39,0-8.77l-23.18-23.18
			c-2.23-2.23-2.82-5.65-1.49-8.47c0.89-1.93,1.63-3.86,2.38-5.79c1.19-2.97,4.01-4.9,7.13-4.9h32.69c3.42,0,6.24-2.82,6.24-6.24
			v-42.94c0-3.42-2.82-6.24-6.24-6.24H348.9c-3.12,0-5.94-1.93-7.13-4.9c-0.74-1.93-1.49-4.01-2.38-5.79
			c-1.34-2.82-0.74-6.24,1.49-8.47l23.18-23.18c1.19-1.19,1.78-2.67,1.78-4.46c0-1.63-0.59-3.27-1.78-4.46l-30.31-30.31
			c-2.38-2.38-6.39-2.38-8.77,0L301.8,263.1c-2.23,2.23-5.65,2.82-8.47,1.49c-1.93-0.89-3.86-1.63-5.79-2.38
			c-2.97-1.19-4.9-4.01-4.9-7.13v-32.69c0-3.42-2.82-6.24-6.24-6.24h-42.94c-3.42,0-6.24,2.82-6.24,6.24v32.69
			c0,3.12-1.93,5.94-4.9,7.13c-1.93,0.74-4.01,1.49-5.79,2.38c-2.82,1.34-6.24,0.74-8.47-1.49l-23.18-23.18
			c-1.19-1.19-2.67-1.78-4.46-1.78c-1.63,0-3.27,0.59-4.46,1.78l-30.31,30.31c-1.19,1.19-1.78,2.67-1.78,4.46
			c0,1.63,0.59,3.27,1.78,4.46l23.18,23.18c2.23,2.23,2.82,5.65,1.49,8.47c-0.89,1.93-1.63,3.86-2.38,5.79
			c-1.04,2.97-4.01,4.9-7.13,4.9h-32.69c-3.42,0-6.24,2.82-6.24,6.24v42.94c0,3.42,2.82,6.24,6.24,6.24h32.69
			c3.12,0,5.94,1.93,7.13,4.9c0.74,1.93,1.49,3.86,2.38,5.79c1.34,2.82,0.74,6.24-1.49,8.47l-23.18,23.18
			c-1.19,1.19-1.78,2.67-1.78,4.46c0,1.63,0.59,3.27,1.78,4.46l30.31,30.31c1.19,1.19,2.67,1.78,4.46,1.78
			c1.63,0,3.27-0.59,4.46-1.78l23.18-23.18C209.38,433.81,211.32,433.07,213.25,433.07z"/>
	</g>
	<g>
		
			<linearGradient id="SVGID_00000036219310171010671830000004901972931010082235_" gradientUnits="userSpaceOnUse" x1="183.8295" y1="349.2752" x2="325.8663" y2="349.2752">
			<stop  offset="5.586592e-03" style="stop-color:#001B5D"/>
			<stop  offset="0.9916" style="stop-color:#002B6B"/>
		</linearGradient>
		<path style="fill:url(#SVGID_00000036219310171010671830000004901972931010082235_);" d="M254.85,420.29
			c-39.22,0-71.02-31.94-71.02-71.02s31.94-71.02,71.02-71.02s71.02,31.94,71.02,71.02C325.87,388.35,294.07,420.29,254.85,420.29z
			 M254.85,293.41c-30.75,0-55.86,25.11-55.86,55.86s25.11,55.86,55.86,55.86s55.86-25.11,55.86-55.86S285.6,293.41,254.85,293.41z"
			/>
	</g>
	<g>
		
			<linearGradient id="SVGID_00000093153131807282593980000017862305718883284883_" gradientUnits="userSpaceOnUse" x1="136.7204" y1="124.4084" x2="281.0465" y2="124.4084">
			<stop  offset="5.586592e-03" style="stop-color:#001B5D"/>
			<stop  offset="0.9916" style="stop-color:#002B6B"/>
		</linearGradient>
		<path style="fill:url(#SVGID_00000093153131807282593980000017862305718883284883_);" d="M181.3,238.29
			c-4.16,0-7.58-3.42-7.58-7.58V122.7h-29.42c-2.82,0-5.35-1.49-6.69-4.01c-1.34-2.53-1.19-5.5,0.45-7.87l64.48-96.87
			c1.34-2.08,3.71-3.42,6.39-3.42c2.67,0,4.9,1.34,6.39,3.42l64.48,96.87c1.49,2.38,1.63,5.35,0.45,7.87
			c-1.34,2.53-3.86,4.01-6.69,4.01H244v85.88c0,4.16-3.42,7.58-7.58,7.58s-7.58-3.42-7.58-7.58v-93.6c0-4.16,3.42-7.58,7.58-7.58
			h22.88l-50.66-75.48l-50.22,75.48h22.88c4.16,0,7.58,3.42,7.58,7.58v115.59C189.03,234.87,185.61,238.29,181.3,238.29z"/>
	</g>
	<g>
		
			<linearGradient id="SVGID_00000174583579874670617920000001420538517925457792_" gradientUnits="userSpaceOnUse" x1="254.2425" y1="160.5862" x2="398.5686" y2="160.5862">
			<stop  offset="5.586592e-03" style="stop-color:#001B5D"/>
			<stop  offset="0.9916" style="stop-color:#002B6B"/>
		</linearGradient>
		<path style="fill:url(#SVGID_00000174583579874670617920000001420538517925457792_);" d="M298.97,262.66
			c-4.16,0-7.58-3.42-7.58-7.58v-84.39h-29.57c-2.82,0-5.35-1.49-6.69-4.01s-1.19-5.5,0.45-7.87l64.48-96.87
			c1.34-2.08,3.71-3.42,6.39-3.42s4.9,1.34,6.39,3.42l64.48,96.87c1.49,2.38,1.63,5.35,0.45,7.87c-1.34,2.53-3.86,4.01-6.69,4.01
			h-29.57v78.6c0,4.16-3.42,7.58-7.58,7.58c-4.16,0-7.58-3.42-7.58-7.58v-86.17c0-4.16,3.42-7.58,7.58-7.58h22.88l-50.22-75.48
			l-50.22,75.48h22.88c4.16,0,7.58,3.42,7.58,7.58v91.97C306.7,259.24,303.28,262.66,298.97,262.66z"/>
	</g>
</g>
</svg>
