<?xml version="1.0" encoding="utf-8"?>
<!-- Generator: Adobe Illustrator 26.0.0, SVG Export Plug-In . SVG Version: 6.00 Build 0)  -->
<svg version="1.1" id="_x2018_ëîé_x5F_1" xmlns="http://www.w3.org/2000/svg" xmlns:xlink="http://www.w3.org/1999/xlink"
	 x="0px" y="0px" viewBox="0 0 510 510" style="enable-background:new 0 0 510 510;" xml:space="preserve">
<style type="text/css">
	.st0{fill-rule:evenodd;clip-rule:evenodd;fill:none;stroke:url(#SVGID_1_);stroke-width:13;stroke-miterlimit:10;}
	.st1{fill:none;stroke:url(#SVGID_00000128447061771867725320000008386331860782637755_);stroke-width:13;stroke-miterlimit:10;}
	.st2{fill:none;stroke:url(#SVGID_00000181803335167405420410000000679037825447054977_);stroke-width:13;stroke-miterlimit:10;}
	.st3{fill:none;stroke:url(#SVGID_00000103986748743255133870000011789948177839575946_);stroke-width:13;stroke-miterlimit:10;}
	.st4{fill:none;stroke:url(#SVGID_00000166663112605084938610000013492458675621230007_);stroke-width:13;stroke-miterlimit:10;}
	.st5{fill:none;stroke:url(#SVGID_00000016064910249558996640000014823325258577508771_);stroke-width:13;stroke-miterlimit:10;}
	.st6{fill:none;stroke:url(#SVGID_00000111882993307872893500000017367962087670966670_);stroke-width:13;stroke-miterlimit:10;}
	.st7{fill:url(#SVGID_00000023254730335786945430000003942294064754665358_);}
	.st8{fill:url(#SVGID_00000148647388426650834350000014612204730358552737_);}
	.st9{fill:url(#SVGID_00000078027003169024017110000008479962093830209722_);}
	.st10{fill:url(#SVGID_00000165196060533517099920000014807129675649520032_);}
	.st11{fill:url(#SVGID_00000076581539003499601890000006522604594962651563_);}
	.st12{fill:url(#SVGID_00000059296249036505208470000016036700820903768235_);}
	.st13{fill:url(#SVGID_00000169515558740107458070000007432944128529006526_);}
	.st14{fill:url(#SVGID_00000023260173480738659850000007136840384720372386_);}
	.st15{fill:url(#SVGID_00000142155677834930783370000011083614272335295139_);}
	.st16{fill:#FFFFFF;}
	.st17{fill:url(#SVGID_00000121237623314691977640000007607040215995889833_);}
	.st18{fill:url(#SVGID_00000141443042332494604420000003131989611207457448_);}
	.st19{fill:url(#SVGID_00000096040852427203987400000012445275831779196073_);}
	.st20{fill:url(#SVGID_00000089550801270677793990000009354519640747200665_);}
	.st21{fill:url(#SVGID_00000101790257404812834310000006947809889676668297_);}
	.st22{fill:url(#SVGID_00000176753888691984998370000016117842931839330717_);}
	.st23{fill:url(#SVGID_00000068644223066271864900000014022918281460252035_);}
	.st24{fill:url(#SVGID_00000103982269896807187950000015838100738100820661_);}
	.st25{fill:url(#SVGID_00000048488342214643970490000011865263535822590887_);}
	.st26{fill:url(#SVGID_00000026850654914965809470000015629394821687048602_);}
	.st27{fill:url(#SVGID_00000083808194586545472940000007218063524986470066_);}
	.st28{fill:url(#SVGID_00000002372212771172805680000010598423340770428550_);}
	.st29{fill:url(#SVGID_00000005965558508764623030000002344455080228436631_);}
	.st30{fill:url(#SVGID_00000166639333913247098620000005179882332951730571_);}
	.st31{fill:url(#SVGID_00000018950718459284367520000013115232425587884675_);}
	.st32{fill:url(#SVGID_00000172415529659302317280000004681726855893421467_);}
	.st33{fill:url(#SVGID_00000040559042046820207510000009606773578855624120_);}
	.st34{fill:url(#SVGID_00000136407075410813365930000007588779890564885640_);}
	.st35{fill:url(#SVGID_00000105422026159142261750000005951897278695921076_);}
	.st36{fill-rule:evenodd;clip-rule:evenodd;fill:url(#SVGID_00000013883489030384664910000010573804220533413308_);}
	.st37{fill-rule:evenodd;clip-rule:evenodd;fill:#FFFFFF;}
	.st38{fill:url(#SVGID_00000158722277092545217140000003116976918315564985_);}
	.st39{fill:url(#SVGID_00000134928612011265152220000003786283829515279236_);}
	.st40{fill:url(#SVGID_00000049203759826860153960000017169871771612454830_);}
	.st41{fill:url(#SVGID_00000067218174995491850490000006681292352191174035_);}
	.st42{fill:url(#SVGID_00000054953076128950344760000018168889406102582697_);}
	.st43{fill:url(#SVGID_00000161600206622484172150000011650377941600192920_);}
	.st44{fill:url(#SVGID_00000014606548457509404870000000539879799630419365_);}
	.st45{fill:url(#SVGID_00000183224519298227170940000010902653460729046423_);}
	.st46{fill:url(#SVGID_00000107554247438067675310000014347761967281640578_);}
	.st47{fill:url(#SVGID_00000176035113594979805360000006895973069783568036_);}
	.st48{fill:url(#SVGID_00000051351605888580965860000014168280755561777038_);}
	.st49{fill:url(#SVGID_00000061449158361797302950000006113547920172161926_);}
	.st50{fill:url(#SVGID_00000175321943096714776210000003731884905291132584_);}
	.st51{fill:url(#SVGID_00000057140865533258830050000010291154463673354162_);}
</style>
<g>
	<linearGradient id="SVGID_1_" gradientUnits="userSpaceOnUse" x1="-2533.1157" y1="-1679.829" x2="-2042.0104" y2="-1679.829">
		<stop  offset="5.586592e-03" style="stop-color:#001B5D"/>
		<stop  offset="0.9916" style="stop-color:#002B6B"/>
	</linearGradient>
	<path class="st0" d="M-2245.96-1918.88l8.99,56.07c15.12,4.18,29.48,10.15,42.85,17.68l46.26-31.98l58.79,58.7l-32.92,44.73
		c7.79,13.54,13.96,28.12,18.24,43.48l55.23,8.95v85.04l-55.07,7.69c-4.16,15.11-10.15,29.48-17.7,42.85l32.21,45.32l-58.79,59.28
		l-44.89-32.71c-13.88,7.97-28.86,14.26-44.65,18.58l-8.56,54.42h-83.72l-8.68-54.19c-15.8-4.25-30.79-10.46-44.7-18.35
		l-43.73,32.24l-60.72-59.28l19.35-26.3l-8.16-33.3l-13.92-30.57l-36.37-5.69v-85.04l53.69-8.76c4.27-15.37,10.42-29.96,18.2-43.5
		l-32.78-44.9l60.72-58.7l44.01,32.14c13.88-7.85,28.84-14.02,44.6-18.24l8.5-55.67H-2245.96L-2245.96-1918.88z M-2288.31-1817.46
		c-76.78,0-139.02,61.96-139.02,138.4c0,76.43,62.24,138.39,139.02,138.39c76.78,0,139.02-61.96,139.02-138.39
		C-2149.29-1755.5-2211.53-1817.46-2288.31-1817.46L-2288.31-1817.46z"/>
	
		<linearGradient id="SVGID_00000062162330632690315820000009959837209228046527_" gradientUnits="userSpaceOnUse" x1="-2424.4946" y1="-1689.314" x2="-2219.2224" y2="-1689.314">
		<stop  offset="5.586592e-03" style="stop-color:#001B5D"/>
		<stop  offset="0.9916" style="stop-color:#002B6B"/>
	</linearGradient>
	
		<polyline style="fill:none;stroke:url(#SVGID_00000062162330632690315820000009959837209228046527_);stroke-width:13;stroke-miterlimit:10;" points="
		-2420.63,-1657.07 -2356.88,-1704.18 -2310.82,-1663.44 -2222.79,-1721.35 	"/>
	
		<linearGradient id="SVGID_00000000904159275562255890000011835043350688638381_" gradientUnits="userSpaceOnUse" x1="-2259.0652" y1="-1708.6392" x2="-2207.6213" y2="-1708.6392">
		<stop  offset="5.586592e-03" style="stop-color:#001B5D"/>
		<stop  offset="0.9916" style="stop-color:#002B6B"/>
	</linearGradient>
	
		<polyline style="fill:none;stroke:url(#SVGID_00000000904159275562255890000011835043350688638381_);stroke-width:13;stroke-miterlimit:10;" points="
		-2259.07,-1726.04 -2217.14,-1726.04 -2232.37,-1687.1 	"/>
	
		<linearGradient id="SVGID_00000087406047478952192200000017610369977930077084_" gradientUnits="userSpaceOnUse" x1="-2379.0857" y1="-1612.5" x2="-2366.0857" y2="-1612.5">
		<stop  offset="5.586592e-03" style="stop-color:#001B5D"/>
		<stop  offset="0.9916" style="stop-color:#002B6B"/>
	</linearGradient>
	
		<line style="fill:none;stroke:url(#SVGID_00000087406047478952192200000017610369977930077084_);stroke-width:13;stroke-miterlimit:10;" x1="-2372.59" y1="-1648.16" x2="-2372.59" y2="-1576.84"/>
	
		<linearGradient id="SVGID_00000129926495107109109390000003426612663895495815_" gradientUnits="userSpaceOnUse" x1="-2320.5034" y1="-1573.5779" x2="-2307.3235" y2="-1573.5779">
		<stop  offset="5.586592e-03" style="stop-color:#001B5D"/>
		<stop  offset="0.9916" style="stop-color:#002B6B"/>
	</linearGradient>
	
		<line style="fill:none;stroke:url(#SVGID_00000129926495107109109390000003426612663895495815_);stroke-width:13;stroke-miterlimit:10;" x1="-2314" y1="-1600.74" x2="-2313.82" y2="-1546.42"/>
	
		<linearGradient id="SVGID_00000163764737044410724620000009606562843227224254_" gradientUnits="userSpaceOnUse" x1="-2264.9207" y1="-1593.5215" x2="-2251.7407" y2="-1593.5215">
		<stop  offset="5.586592e-03" style="stop-color:#001B5D"/>
		<stop  offset="0.9916" style="stop-color:#002B6B"/>
	</linearGradient>
	
		<line style="fill:none;stroke:url(#SVGID_00000163764737044410724620000009606562843227224254_);stroke-width:13;stroke-miterlimit:10;" x1="-2258.42" y1="-1637.79" x2="-2258.24" y2="-1549.25"/>
	
		<linearGradient id="SVGID_00000082340470791650548340000012269329382716893086_" gradientUnits="userSpaceOnUse" x1="-2206.5117" y1="-1617.9196" x2="-2193.3318" y2="-1617.9196">
		<stop  offset="5.586592e-03" style="stop-color:#001B5D"/>
		<stop  offset="0.9916" style="stop-color:#002B6B"/>
	</linearGradient>
	
		<line style="fill:none;stroke:url(#SVGID_00000082340470791650548340000012269329382716893086_);stroke-width:13;stroke-miterlimit:10;" x1="-2200.01" y1="-1662.19" x2="-2199.83" y2="-1573.65"/>
</g>
<g>
	
		<linearGradient id="SVGID_00000108273103127819883020000017137187133245374090_" gradientUnits="userSpaceOnUse" x1="347.2518" y1="322.3419" x2="470.5746" y2="322.3419">
		<stop  offset="5.586592e-03" style="stop-color:#001B5D"/>
		<stop  offset="0.9916" style="stop-color:#002B6B"/>
	</linearGradient>
	<circle style="fill:url(#SVGID_00000108273103127819883020000017137187133245374090_);" cx="408.91" cy="322.34" r="61.66"/>
	
		<linearGradient id="SVGID_00000062901892840352697430000009619227039340038076_" gradientUnits="userSpaceOnUse" x1="327.237" y1="427.5023" x2="500.684" y2="427.5023">
		<stop  offset="5.586592e-03" style="stop-color:#001B5D"/>
		<stop  offset="0.9916" style="stop-color:#002B6B"/>
	</linearGradient>
	<path style="fill:url(#SVGID_00000062901892840352697430000009619227039340038076_);" d="M500.68,433.73v30.9H362.65v-4.18
		c0-24.26-14.59-45.25-35.41-54.43c7.95-9.59,19.92-15.66,33.28-15.66h13.69c10.74,4.43,22.46,6.89,34.67,6.89
		c12.3,0,24.02-2.46,34.76-6.89h13.61C481.18,390.37,500.68,409.8,500.68,433.73z"/>
	
		<linearGradient id="SVGID_00000155833857451990059760000006482947752295766443_" gradientUnits="userSpaceOnUse" x1="184.4444" y1="199.5867" x2="212.8058" y2="199.5867">
		<stop  offset="5.586592e-03" style="stop-color:#001B5D"/>
		<stop  offset="0.9916" style="stop-color:#002B6B"/>
	</linearGradient>
	<path style="fill:url(#SVGID_00000155833857451990059760000006482947752295766443_);" d="M212.81,201.68
		c-9.67-0.74-19.18-1.8-28.36-3.11l1.72-1.07C194.77,199.14,203.63,200.53,212.81,201.68z"/>
	
		<linearGradient id="SVGID_00000081620672859099143600000002140183545649534628_" gradientUnits="userSpaceOnUse" x1="212.8058" y1="202.3327" x2="224.6094" y2="202.3327">
		<stop  offset="5.586592e-03" style="stop-color:#001B5D"/>
		<stop  offset="0.9916" style="stop-color:#002B6B"/>
	</linearGradient>
	<path style="fill:url(#SVGID_00000081620672859099143600000002140183545649534628_);" d="M224.61,202.99
		c-4.02-0.33-7.95-0.82-11.8-1.31c3.77,0.33,7.62,0.57,11.48,0.82L224.61,202.99z"/>
	
		<linearGradient id="SVGID_00000101824607355641362160000016926167532873270927_" gradientUnits="userSpaceOnUse" x1="38.484" y1="141.7657" x2="470.5766" y2="141.7657">
		<stop  offset="5.586592e-03" style="stop-color:#001B5D"/>
		<stop  offset="0.9916" style="stop-color:#002B6B"/>
	</linearGradient>
	<path style="fill:url(#SVGID_00000101824607355641362160000016926167532873270927_);" d="M470.58,116.04
		c0-48.23-96.73-87.32-216.05-87.32S38.48,67.81,38.48,116.04c0,27.73,32.01,52.42,81.86,68.41l-15.26,48.05l57.89-37.37
		c19.08,3.61,39.68,6.13,61.3,7.36l30.26,52.32c0,0,25.95-44.87,30.26-52.32c21.63-1.23,42.22-3.74,61.3-7.36l57.89,37.37
		l-15.26-48.05C438.57,168.45,470.58,143.76,470.58,116.04z M178.1,104.38l-8.75,8.53c-1.55,1.51-2.26,3.69-1.9,5.83l2.07,12.05
		c0.92,5.38-4.73,9.49-9.56,6.94l-10.82-5.69c-1.92-1.01-4.21-1.01-6.13,0l-10.82,5.69c-4.83,2.54-10.48-1.56-9.56-6.94l2.07-12.05
		c0.37-2.14-0.34-4.32-1.9-5.83l-8.75-8.53c-3.91-3.81-1.75-10.45,3.65-11.24l12.09-1.76c2.15-0.31,4-1.66,4.96-3.6l5.41-10.96
		c2.42-4.9,9.4-4.9,11.82,0l5.41,10.96c0.96,1.94,2.82,3.29,4.96,3.6l12.09,1.76C179.86,93.93,182.01,100.57,178.1,104.38z
		 M301,113.94l-12.7,12.38c-2.25,2.2-3.28,5.36-2.75,8.46l3,17.48c1.34,7.81-6.86,13.77-13.87,10.08l-15.7-8.25
		c-2.78-1.47-6.11-1.47-8.9,0l-15.7,8.25c-7.01,3.69-15.21-2.27-13.87-10.08l3-17.48c0.53-3.1-0.5-6.27-2.75-8.46l-12.7-12.38
		c-5.67-5.53-2.54-15.17,5.3-16.31l17.55-2.55c3.11-0.45,5.81-2.41,7.2-5.23l7.85-15.9c3.51-7.11,13.64-7.11,17.15,0l7.85,15.9
		c1.39,2.82,4.08,4.78,7.2,5.23l17.55,2.55C303.55,98.77,306.68,108.41,301,113.94z M395.01,104.38l-8.75,8.53
		c-1.55,1.51-2.26,3.69-1.9,5.83l2.07,12.05c0.92,5.38-4.73,9.49-9.56,6.94l-10.82-5.69c-1.92-1.01-4.21-1.01-6.13,0l-10.82,5.69
		c-4.83,2.54-10.48-1.56-9.56-6.94l2.07-12.05c0.37-2.14-0.34-4.32-1.9-5.83l-8.75-8.53c-3.91-3.81-1.75-10.45,3.65-11.24
		l12.09-1.76c2.15-0.31,4-1.66,4.96-3.6l5.41-10.96c2.42-4.9,9.4-4.9,11.82,0l5.41,10.96c0.96,1.94,2.82,3.29,4.96,3.6l12.09,1.76
		C396.76,93.93,398.92,100.57,395.01,104.38z"/>
	
		<linearGradient id="SVGID_00000069386162088054507770000014189891158593415333_" gradientUnits="userSpaceOnUse" x1="38.7011" y1="322.598" x2="162.024" y2="322.598">
		<stop  offset="5.586592e-03" style="stop-color:#001B5D"/>
		<stop  offset="0.9916" style="stop-color:#002B6B"/>
	</linearGradient>
	<circle style="fill:url(#SVGID_00000069386162088054507770000014189891158593415333_);" cx="100.36" cy="322.6" r="61.66"/>
	
		<linearGradient id="SVGID_00000011717103185281404730000016376097273149697463_" gradientUnits="userSpaceOnUse" x1="8.6225" y1="427.7482" x2="181.7415" y2="427.7482">
		<stop  offset="5.586592e-03" style="stop-color:#001B5D"/>
		<stop  offset="0.9916" style="stop-color:#002B6B"/>
	</linearGradient>
	<path style="fill:url(#SVGID_00000011717103185281404730000016376097273149697463_);" d="M181.74,406.03
		c-20.82,9.26-35.33,30.16-35.33,54.43v4.43H8.62v-30.9c0-23.93,19.43-43.36,43.36-43.36h13.69c10.66,4.43,22.38,6.89,34.67,6.89
		s24.02-2.46,34.76-6.89h13.61C161.99,390.62,173.87,396.6,181.74,406.03z"/>
	
		<linearGradient id="SVGID_00000026848630197373492900000005634183287283103884_" gradientUnits="userSpaceOnUse" x1="192.8689" y1="349.0208" x2="316.1917" y2="349.0208">
		<stop  offset="5.586592e-03" style="stop-color:#001B5D"/>
		<stop  offset="0.9916" style="stop-color:#002B6B"/>
	</linearGradient>
	<circle style="fill:url(#SVGID_00000026848630197373492900000005634183287283103884_);" cx="254.53" cy="349.02" r="61.66"/>
	
		<linearGradient id="SVGID_00000018944705977300708840000002947854156812142231_" gradientUnits="userSpaceOnUse" x1="162.7862" y1="454.1997" x2="346.2703" y2="454.1997">
		<stop  offset="5.586592e-03" style="stop-color:#001B5D"/>
		<stop  offset="0.9916" style="stop-color:#002B6B"/>
	</linearGradient>
	<path style="fill:url(#SVGID_00000018944705977300708840000002947854156812142231_);" d="M346.27,460.44v30.9H162.79v-30.9
		c0-24,19.45-43.38,43.38-43.38h13.66c10.7,4.41,22.41,6.87,34.7,6.87c12.29,0,24-2.46,34.7-6.87h13.66
		C326.82,417.06,346.27,436.43,346.27,460.44z"/>
</g>
<g>
	<g>
		<g>
			<path class="st16" d="M-1227.91-119.69c-23.24,0-42.08-19.18-42.08-42.85s18.84-42.85,42.08-42.85
				c23.24,0,42.08,19.18,42.08,42.85S-1204.84-119.69-1227.91-119.69z M-1227.91-192.12c-16.02,0-29.05,13.27-29.05,29.58
				s13.03,29.58,29.05,29.58s29.05-13.27,29.05-29.58S-1211.88-192.12-1227.91-192.12z"/>
		</g>
		<g>
			<path class="st16" d="M-1221.22-71.11h-13.38c-5.63,0-10.21-4.3-10.92-10.4l-1.23-9.5c-6.16-1.61-11.97-4.12-17.61-7.35
				l-7.39,5.92c-4.58,3.76-10.92,3.59-14.96-0.54l-9.51-9.68c-3.87-3.94-4.23-10.4-0.53-15.24l5.81-7.53
				c-3.17-5.56-5.63-11.65-7.22-17.93l-9.33-1.25c-5.81-0.72-10.21-5.38-10.21-11.12v-13.62c0-5.74,4.23-10.4,10.21-11.12l9.33-1.25
				c1.58-6.27,4.05-12.19,7.22-17.93l-5.81-7.53c-3.7-4.66-3.35-11.12,0.53-15.24l9.51-9.68c3.87-3.94,10.21-4.3,14.96-0.54
				l7.39,5.92c5.46-3.23,11.44-5.74,17.61-7.35l1.23-9.5c0.7-5.92,5.28-10.4,10.92-10.4h13.38c5.63,0,10.21,4.3,10.92,10.4l1.23,9.5
				c6.16,1.61,11.97,4.12,17.61,7.35l7.39-5.92c4.58-3.76,10.92-3.41,14.96,0.54l9.51,9.68c3.87,3.94,4.23,10.4,0.53,15.24
				l-5.81,7.53c3.17,5.56,5.63,11.65,7.22,17.93l9.33,1.25c5.81,0.72,10.21,5.38,10.21,11.12v13.62c0,5.74-4.23,10.4-10.21,11.12
				l-9.33,1.25c-1.58,6.27-4.05,12.19-7.22,17.93l5.81,7.53c3.7,4.66,3.52,11.12-0.53,15.24l-9.68,9.68
				c-3.87,3.94-10.21,4.3-14.96,0.54l-7.39-5.92c-5.46,3.23-11.44,5.74-17.61,7.35l-1.23,9.5
				C-1211-75.59-1215.58-71.11-1221.22-71.11z M-1232.84-84.38h9.86l1.58-12.91c0.35-2.87,2.46-5.2,5.11-5.74
				c7.75-1.61,14.96-4.66,21.48-9.14c2.29-1.61,5.46-1.43,7.57,0.36l10.04,8.07l6.87-6.99l-7.92-10.22
				c-1.76-2.33-1.76-5.38-0.35-7.71c4.4-6.63,7.39-13.98,8.98-21.87c0.53-2.87,2.82-5.02,5.63-5.2l12.68-1.61v-10.04l-12.68-1.61
				c-2.82-0.36-5.11-2.51-5.63-5.2c-1.58-7.89-4.58-15.24-8.98-21.87c-1.58-2.33-1.41-5.56,0.35-7.71l7.92-10.22l-6.87-6.99
				l-10.04,8.07c-2.29,1.79-5.28,1.79-7.57,0.36c-6.51-4.48-13.73-7.53-21.48-9.14c-2.82-0.54-4.93-2.87-5.11-5.74l-1.58-12.91
				h-9.86l-1.58,12.91c-0.35,2.87-2.46,5.2-5.11,5.74c-7.75,1.61-14.96,4.66-21.48,9.14c-2.29,1.61-5.46,1.43-7.57-0.36l-10.04-8.07
				l-6.87,6.99l7.92,10.22c1.76,2.33,1.76,5.38,0.35,7.71c-4.4,6.63-7.39,13.98-8.98,21.87c-0.53,2.87-2.82,5.02-5.63,5.2
				l-12.68,1.61v10.04l12.68,1.61c2.82,0.36,5.11,2.51,5.63,5.2c1.58,7.89,4.58,15.24,8.98,21.87c1.58,2.33,1.41,5.56-0.35,7.71
				l-7.92,10.22l6.87,6.99l10.04-8.07c2.29-1.79,5.28-1.79,7.57-0.36c6.51,4.48,13.73,7.53,21.48,9.14
				c2.82,0.54,4.93,2.87,5.11,5.74L-1232.84-84.38z"/>
		</g>
		<g>
			<path class="st16" d="M-1518.4-421.41h-54.58c-3.52,0-6.51-3.05-6.51-6.63c0-10.4-2.99-14.16-7.22-19.36
				c-4.93-6.1-11.09-13.62-11.09-31.73c0-29.22,23.42-53.07,52.11-53.07c28.7,0,52.11,23.84,52.11,53.07
				c0,17.93-6.16,25.64-11.09,31.73c-4.23,5.2-7.22,8.96-7.22,19.36C-1512.06-424.46-1514.88-421.41-1518.4-421.41z
				 M-1566.81-434.68h42.25c1.41-10.58,5.81-16.13,9.86-21.15c4.4-5.38,8.1-10.04,8.1-23.13c0-22.05-17.61-39.98-39.26-39.98
				s-39.26,17.93-39.26,39.98c0,13.27,3.87,17.75,8.1,23.13C-1572.62-450.82-1568.22-445.44-1566.81-434.68z"/>
		</g>
		<g>
			<path class="st16" d="M-1531.43-383.41h-28.7c-7.04,0-12.85-5.92-12.85-13.09v-11.47c0-3.59,2.99-6.63,6.51-6.63h41.37
				c3.52,0,6.51,3.05,6.51,6.63v11.47C-1518.57-389.32-1524.38-383.41-1531.43-383.41z M-1559.95-396.67h28.35v-4.66h-28.35V-396.67
				z"/>
		</g>
		<g>
			<path class="st16" d="M-1545.69-541.35c-3.52,0-6.51-3.05-6.51-6.63v-16.49c0-3.59,2.99-6.63,6.51-6.63
				c3.52,0,6.51,3.05,6.51,6.63v16.49C-1539.17-544.4-1542.17-541.35-1545.69-541.35z"/>
		</g>
		<g>
			<path class="st16" d="M-1510.83-531.85c-1.06,0-2.29-0.36-3.17-0.9c-3.17-1.79-4.23-5.92-2.46-8.96l8.1-14.34
				c1.76-3.23,5.81-4.3,8.8-2.51c3.17,1.79,4.23,5.92,2.46,8.96l-8.1,14.34C-1506.43-533.1-1508.72-531.85-1510.83-531.85z"/>
		</g>
		<g>
			<path class="st16" d="M-1485.48-506.03c-2.29,0-4.4-1.25-5.63-3.23c-1.76-3.23-0.7-7.17,2.46-8.96l14.08-8.25
				c3.17-1.79,7.04-0.72,8.8,2.51c1.76,3.23,0.7,7.17-2.46,8.96l-14.08,8.25C-1483.19-506.21-1484.24-506.03-1485.48-506.03z"/>
		</g>
		<g>
			<path class="st16" d="M-1459.95-470.54h-16.2c-3.52,0-6.51-3.05-6.51-6.63c0-3.59,2.99-6.63,6.51-6.63h16.2
				c3.52,0,6.51,3.05,6.51,6.63C-1453.43-473.58-1456.25-470.54-1459.95-470.54z"/>
		</g>
		<g>
			<path class="st16" d="M-1580.55-531.85c-2.29,0-4.4-1.25-5.63-3.23l-8.1-14.34c-1.76-3.23-0.7-7.17,2.46-8.96
				c3.17-1.79,7.04-0.72,8.8,2.51l8.1,14.34c1.76,3.23,0.7,7.17-2.46,8.96C-1578.26-532.21-1579.49-531.85-1580.55-531.85z"/>
		</g>
		<g>
			<path class="st16" d="M-1606.07-506.03c-1.06,0-2.29-0.36-3.17-0.9l-14.08-8.25c-3.17-1.79-4.23-5.92-2.46-8.96
				c1.76-3.23,5.81-4.3,8.8-2.51l14.08,8.25c3.17,1.79,4.23,5.92,2.46,8.96C-1601.5-507.11-1603.79-506.03-1606.07-506.03z"/>
		</g>
		<g>
			<path class="st16" d="M-1615.41-470.54h-16.2c-3.52,0-6.51-3.05-6.51-6.63c0-3.59,2.99-6.63,6.51-6.63h16.2
				c3.52,0,6.51,3.05,6.51,6.63C-1608.89-473.58-1611.71-470.54-1615.41-470.54z"/>
		</g>
		<g>
			<path class="st16" d="M-1516.29-401.34h-58.8c-3.52,0-6.51-3.05-6.51-6.63v-20.08c0-3.59,2.99-6.63,6.51-6.63h58.8
				c3.52,0,6.51,3.05,6.51,6.63v20.08C-1509.77-404.38-1512.76-401.34-1516.29-401.34z M-1568.57-414.6h45.77v-6.81h-45.77V-414.6z"
				/>
		</g>
		<g>
			<path class="st16" d="M-1545.69-421.41c-3.52,0-6.51-3.05-6.51-6.63v-40.52c0-3.59,2.99-6.63,6.51-6.63
				c3.52,0,6.51,3.05,6.51,6.63v40.52C-1539.17-424.46-1542.17-421.41-1545.69-421.41z"/>
		</g>
		<g>
			<path class="st16" d="M-1545.69-461.93c-10.74,0-19.54-8.96-19.54-19.9s8.8-19.9,19.54-19.9c10.74,0,19.54,8.96,19.54,19.9
				S-1534.95-461.93-1545.69-461.93z M-1545.69-488.82c-3.7,0-6.69,3.05-6.69,6.81c0,3.76,2.99,6.81,6.69,6.81
				c3.7,0,6.69-3.05,6.69-6.81C-1539-485.77-1541.99-488.82-1545.69-488.82z"/>
		</g>
		<g>
			<path class="st16" d="M-1309.42-229.77h-145.6c-8.63,0-15.67-7.17-15.67-15.96V-390.4c0-8.78,7.04-15.96,15.67-15.96h145.6
				c8.63,0,15.67,7.17,15.67,15.96v144.68C-1293.75-236.94-1300.79-229.77-1309.42-229.77z M-1455.02-393.09
				c-1.41,0-2.64,1.25-2.64,2.69v144.68c0,1.43,1.23,2.69,2.64,2.69h145.6c1.41,0,2.64-1.25,2.64-2.69V-390.4
				c0-1.43-1.23-2.69-2.64-2.69H-1455.02L-1455.02-393.09z"/>
		</g>
		<g>
			<path class="st16" d="M-1361-324.96c-2.11,0-4.05-0.9-5.28-2.69l-15.85-21.87l-15.85,21.87c-1.58,2.33-4.58,3.23-7.22,2.33
				c-2.64-0.9-4.4-3.41-4.4-6.27v-68.12c0-3.59,2.99-6.63,6.51-6.63h42.08c3.52,0,6.51,3.05,6.51,6.63v68.12
				c0,2.87-1.76,5.38-4.4,6.27C-1359.77-325.14-1360.48-324.96-1361-324.96z M-1396.74-393.09v41.41l9.33-12.91
				c1.23-1.61,3.17-2.69,5.28-2.69l0,0c2.11,0,4.05,1.08,5.28,2.69l9.33,12.91v-41.41H-1396.74z"/>
		</g>
		<g>
			<path class="st16" d="M-1383.01-102.12c-117.08,0-212.15-96.99-212.15-216.03c0-19.18,2.46-38.36,7.39-56.83
				c0.88-3.59,4.58-5.56,7.92-4.66c3.52,0.9,5.46,4.66,4.58,8.07c-4.58,17.39-7.04,35.32-7.04,53.42
				c0,111.87,89.44,202.94,199.3,202.94c21.13,0,41.9-3.41,61.8-10.04c3.35-1.08,7.04,0.72,8.1,4.3c1.06,3.41-0.7,7.17-4.23,8.25
				C-1338.47-105.71-1360.65-102.12-1383.01-102.12z M-1183.36-261.5c-0.53,0-1.06,0-1.58-0.18c-3.52-0.9-5.63-4.48-4.75-8.07
				c3.87-15.78,5.81-32.09,5.81-48.4c0-111.87-89.44-202.94-199.3-202.94c-16.02,0-32.04,1.97-47.54,5.92
				c-3.52,0.9-7.04-1.25-7.92-4.84c-0.88-3.59,1.23-7.17,4.75-8.07c16.55-4.12,33.63-6.27,50.7-6.27
				c117.08,0,212.15,96.99,212.15,216.03c0,17.39-2.11,34.78-6.16,51.63C-1177.73-263.65-1180.37-261.5-1183.36-261.5z"/>
		</g>
		<g>
			<path class="st16" d="M-1183.36-261.5c-0.53,0-1.06,0-1.76-0.18c-2.29-0.54-4.05-2.33-4.58-4.66l-12.32-46.79
				c-0.88-3.59,1.06-7.17,4.58-8.07c3.52-0.9,7.04,1.08,7.92,4.66l9.33,35.68l25.7-26.17c2.46-2.51,6.69-2.51,9.15,0
				c2.46,2.51,2.46,6.81,0,9.32l-33.63,34.24C-1180.02-262.22-1181.6-261.5-1183.36-261.5z"/>
		</g>
		<g>
			<path class="st16" d="M-1569.28-319.94c-2.82,0-5.46-1.97-6.34-4.84l-9.33-35.68l-25.7,26.17c-2.46,2.51-6.69,2.51-9.15,0
				c-2.46-2.51-2.46-6.81,0-9.32l33.63-34.24c1.58-1.61,4.05-2.33,6.34-1.79c2.29,0.54,4.05,2.33,4.58,4.66l12.32,46.79
				c0.88,3.59-1.06,7.17-4.58,8.07C-1568.05-319.94-1568.75-319.94-1569.28-319.94z"/>
		</g>
	</g>
	<g>
		<g>
			
				<linearGradient id="SVGID_00000086666047286922760320000014747810818745736879_" gradientUnits="userSpaceOnUse" x1="5" y1="255" x2="505" y2="255" gradientTransform="matrix(1 0 0 1 -1643.1168 -576.1099)">
				<stop  offset="5.586592e-03" style="stop-color:#001B5D"/>
				<stop  offset="0.9916" style="stop-color:#002B6B"/>
			</linearGradient>
			<path style="fill:url(#SVGID_00000086666047286922760320000014747810818745736879_);" d="M-1227.91-119.69
				c-23.24,0-42.08-19.18-42.08-42.85s18.84-42.85,42.08-42.85c23.24,0,42.08,19.18,42.08,42.85S-1204.84-119.69-1227.91-119.69z
				 M-1227.91-192.12c-16.02,0-29.05,13.27-29.05,29.58s13.03,29.58,29.05,29.58s29.05-13.27,29.05-29.58
				S-1211.88-192.12-1227.91-192.12z"/>
		</g>
		<g>
			
				<linearGradient id="SVGID_00000083058407763976225280000010818681616151164311_" gradientUnits="userSpaceOnUse" x1="5" y1="255" x2="505" y2="255" gradientTransform="matrix(1 0 0 1 -1643.1168 -576.1099)">
				<stop  offset="5.586592e-03" style="stop-color:#001B5D"/>
				<stop  offset="0.9916" style="stop-color:#002B6B"/>
			</linearGradient>
			<path style="fill:url(#SVGID_00000083058407763976225280000010818681616151164311_);" d="M-1221.22-71.11h-13.38
				c-5.63,0-10.21-4.3-10.92-10.4l-1.23-9.5c-6.16-1.61-11.97-4.12-17.61-7.35l-7.39,5.92c-4.58,3.76-10.92,3.59-14.96-0.54
				l-9.51-9.68c-3.87-3.94-4.23-10.4-0.53-15.24l5.81-7.53c-3.17-5.56-5.63-11.65-7.22-17.93l-9.33-1.25
				c-5.81-0.72-10.21-5.38-10.21-11.12v-13.62c0-5.74,4.23-10.4,10.21-11.12l9.33-1.25c1.58-6.27,4.05-12.19,7.22-17.93l-5.81-7.53
				c-3.7-4.66-3.35-11.12,0.53-15.24l9.51-9.68c3.87-3.94,10.21-4.3,14.96-0.54l7.39,5.92c5.46-3.23,11.44-5.74,17.61-7.35l1.23-9.5
				c0.7-5.92,5.28-10.4,10.92-10.4h13.38c5.63,0,10.21,4.3,10.92,10.4l1.23,9.5c6.16,1.61,11.97,4.12,17.61,7.35l7.39-5.92
				c4.58-3.76,10.92-3.41,14.96,0.54l9.51,9.68c3.87,3.94,4.23,10.4,0.53,15.24l-5.81,7.53c3.17,5.56,5.63,11.65,7.22,17.93
				l9.33,1.25c5.81,0.72,10.21,5.38,10.21,11.12v13.62c0,5.74-4.23,10.4-10.21,11.12l-9.33,1.25c-1.58,6.27-4.05,12.19-7.22,17.93
				l5.81,7.53c3.7,4.66,3.52,11.12-0.53,15.24l-9.68,9.68c-3.87,3.94-10.21,4.3-14.96,0.54l-7.39-5.92
				c-5.46,3.23-11.44,5.74-17.61,7.35l-1.23,9.5C-1211-75.59-1215.58-71.11-1221.22-71.11z M-1232.84-84.38h9.86l1.58-12.91
				c0.35-2.87,2.46-5.2,5.11-5.74c7.75-1.61,14.96-4.66,21.48-9.14c2.29-1.61,5.46-1.43,7.57,0.36l10.04,8.07l6.87-6.99l-7.92-10.22
				c-1.76-2.33-1.76-5.38-0.35-7.71c4.4-6.63,7.39-13.98,8.98-21.87c0.53-2.87,2.82-5.02,5.63-5.2l12.68-1.61v-10.04l-12.68-1.61
				c-2.82-0.36-5.11-2.51-5.63-5.2c-1.58-7.89-4.58-15.24-8.98-21.87c-1.58-2.33-1.41-5.56,0.35-7.71l7.92-10.22l-6.87-6.99
				l-10.04,8.07c-2.29,1.79-5.28,1.79-7.57,0.36c-6.51-4.48-13.73-7.53-21.48-9.14c-2.82-0.54-4.93-2.87-5.11-5.74l-1.58-12.91
				h-9.86l-1.58,12.91c-0.35,2.87-2.46,5.2-5.11,5.74c-7.75,1.61-14.96,4.66-21.48,9.14c-2.29,1.61-5.46,1.43-7.57-0.36l-10.04-8.07
				l-6.87,6.99l7.92,10.22c1.76,2.33,1.76,5.38,0.35,7.71c-4.4,6.63-7.39,13.98-8.98,21.87c-0.53,2.87-2.82,5.02-5.63,5.2
				l-12.68,1.61v10.04l12.68,1.61c2.82,0.36,5.11,2.51,5.63,5.2c1.58,7.89,4.58,15.24,8.98,21.87c1.58,2.33,1.41,5.56-0.35,7.71
				l-7.92,10.22l6.87,6.99l10.04-8.07c2.29-1.79,5.28-1.79,7.57-0.36c6.51,4.48,13.73,7.53,21.48,9.14
				c2.82,0.54,4.93,2.87,5.11,5.74L-1232.84-84.38z"/>
		</g>
		<g>
			
				<linearGradient id="SVGID_00000142889611499517307310000017815296774598956222_" gradientUnits="userSpaceOnUse" x1="5" y1="255" x2="505" y2="255" gradientTransform="matrix(1 0 0 1 -1643.1168 -576.1099)">
				<stop  offset="5.586592e-03" style="stop-color:#001B5D"/>
				<stop  offset="0.9916" style="stop-color:#002B6B"/>
			</linearGradient>
			<path style="fill:url(#SVGID_00000142889611499517307310000017815296774598956222_);" d="M-1518.4-421.41h-54.58
				c-3.52,0-6.51-3.05-6.51-6.63c0-10.4-2.99-14.16-7.22-19.36c-4.93-6.1-11.09-13.62-11.09-31.73c0-29.22,23.42-53.07,52.11-53.07
				c28.7,0,52.11,23.84,52.11,53.07c0,17.93-6.16,25.64-11.09,31.73c-4.23,5.2-7.22,8.96-7.22,19.36
				C-1512.06-424.46-1514.88-421.41-1518.4-421.41z M-1566.81-434.68h42.25c1.41-10.58,5.81-16.13,9.86-21.15
				c4.4-5.38,8.1-10.04,8.1-23.13c0-22.05-17.61-39.98-39.26-39.98s-39.26,17.93-39.26,39.98c0,13.27,3.87,17.75,8.1,23.13
				C-1572.62-450.82-1568.22-445.44-1566.81-434.68z"/>
		</g>
		<g>
			
				<linearGradient id="SVGID_00000076601339533111324900000007058047785822651049_" gradientUnits="userSpaceOnUse" x1="5" y1="255" x2="505" y2="255" gradientTransform="matrix(1 0 0 1 -1643.1168 -576.1099)">
				<stop  offset="5.586592e-03" style="stop-color:#001B5D"/>
				<stop  offset="0.9916" style="stop-color:#002B6B"/>
			</linearGradient>
			<path style="fill:url(#SVGID_00000076601339533111324900000007058047785822651049_);" d="M-1531.43-383.41h-28.7
				c-7.04,0-12.85-5.92-12.85-13.09v-11.47c0-3.59,2.99-6.63,6.51-6.63h41.37c3.52,0,6.51,3.05,6.51,6.63v11.47
				C-1518.57-389.32-1524.38-383.41-1531.43-383.41z M-1559.95-396.67h28.35v-4.66h-28.35V-396.67z"/>
		</g>
		<g>
			
				<linearGradient id="SVGID_00000152225883334920061560000010105427240051381949_" gradientUnits="userSpaceOnUse" x1="5" y1="255" x2="505" y2="255" gradientTransform="matrix(1 0 0 1 -1643.1168 -576.1099)">
				<stop  offset="5.586592e-03" style="stop-color:#001B5D"/>
				<stop  offset="0.9916" style="stop-color:#002B6B"/>
			</linearGradient>
			<path style="fill:url(#SVGID_00000152225883334920061560000010105427240051381949_);" d="M-1545.69-541.35
				c-3.52,0-6.51-3.05-6.51-6.63v-16.49c0-3.59,2.99-6.63,6.51-6.63c3.52,0,6.51,3.05,6.51,6.63v16.49
				C-1539.17-544.4-1542.17-541.35-1545.69-541.35z"/>
		</g>
		<g>
			
				<linearGradient id="SVGID_00000054224433264943558960000009842037053492111236_" gradientUnits="userSpaceOnUse" x1="5" y1="255" x2="505" y2="255" gradientTransform="matrix(1 0 0 1 -1643.1168 -576.1099)">
				<stop  offset="5.586592e-03" style="stop-color:#001B5D"/>
				<stop  offset="0.9916" style="stop-color:#002B6B"/>
			</linearGradient>
			<path style="fill:url(#SVGID_00000054224433264943558960000009842037053492111236_);" d="M-1510.83-531.85
				c-1.06,0-2.29-0.36-3.17-0.9c-3.17-1.79-4.23-5.92-2.46-8.96l8.1-14.34c1.76-3.23,5.81-4.3,8.8-2.51
				c3.17,1.79,4.23,5.92,2.46,8.96l-8.1,14.34C-1506.43-533.1-1508.72-531.85-1510.83-531.85z"/>
		</g>
		<g>
			
				<linearGradient id="SVGID_00000000943881940643399950000012522502098706722727_" gradientUnits="userSpaceOnUse" x1="5" y1="255" x2="505" y2="255" gradientTransform="matrix(1 0 0 1 -1643.1168 -576.1099)">
				<stop  offset="5.586592e-03" style="stop-color:#001B5D"/>
				<stop  offset="0.9916" style="stop-color:#002B6B"/>
			</linearGradient>
			<path style="fill:url(#SVGID_00000000943881940643399950000012522502098706722727_);" d="M-1485.48-506.03
				c-2.29,0-4.4-1.25-5.63-3.23c-1.76-3.23-0.7-7.17,2.46-8.96l14.08-8.25c3.17-1.79,7.04-0.72,8.8,2.51
				c1.76,3.23,0.7,7.17-2.46,8.96l-14.08,8.25C-1483.19-506.21-1484.24-506.03-1485.48-506.03z"/>
		</g>
		<g>
			
				<linearGradient id="SVGID_00000121259151485893151950000015848379788564945543_" gradientUnits="userSpaceOnUse" x1="5" y1="255" x2="505" y2="255" gradientTransform="matrix(1 0 0 1 -1643.1168 -576.1099)">
				<stop  offset="5.586592e-03" style="stop-color:#001B5D"/>
				<stop  offset="0.9916" style="stop-color:#002B6B"/>
			</linearGradient>
			<path style="fill:url(#SVGID_00000121259151485893151950000015848379788564945543_);" d="M-1459.95-470.54h-16.2
				c-3.52,0-6.51-3.05-6.51-6.63c0-3.59,2.99-6.63,6.51-6.63h16.2c3.52,0,6.51,3.05,6.51,6.63
				C-1453.43-473.58-1456.25-470.54-1459.95-470.54z"/>
		</g>
		<g>
			
				<linearGradient id="SVGID_00000078022199302845475080000014494209491306029498_" gradientUnits="userSpaceOnUse" x1="5" y1="255" x2="505" y2="255" gradientTransform="matrix(1 0 0 1 -1643.1168 -576.1099)">
				<stop  offset="5.586592e-03" style="stop-color:#001B5D"/>
				<stop  offset="0.9916" style="stop-color:#002B6B"/>
			</linearGradient>
			<path style="fill:url(#SVGID_00000078022199302845475080000014494209491306029498_);" d="M-1580.55-531.85
				c-2.29,0-4.4-1.25-5.63-3.23l-8.1-14.34c-1.76-3.23-0.7-7.17,2.46-8.96c3.17-1.79,7.04-0.72,8.8,2.51l8.1,14.34
				c1.76,3.23,0.7,7.17-2.46,8.96C-1578.26-532.21-1579.49-531.85-1580.55-531.85z"/>
		</g>
		<g>
			
				<linearGradient id="SVGID_00000056402712413000450010000013817128498040298163_" gradientUnits="userSpaceOnUse" x1="5" y1="255" x2="505" y2="255" gradientTransform="matrix(1 0 0 1 -1643.1168 -576.1099)">
				<stop  offset="5.586592e-03" style="stop-color:#001B5D"/>
				<stop  offset="0.9916" style="stop-color:#002B6B"/>
			</linearGradient>
			<path style="fill:url(#SVGID_00000056402712413000450010000013817128498040298163_);" d="M-1606.07-506.03
				c-1.06,0-2.29-0.36-3.17-0.9l-14.08-8.25c-3.17-1.79-4.23-5.92-2.46-8.96c1.76-3.23,5.81-4.3,8.8-2.51l14.08,8.25
				c3.17,1.79,4.23,5.92,2.46,8.96C-1601.5-507.11-1603.79-506.03-1606.07-506.03z"/>
		</g>
		<g>
			
				<linearGradient id="SVGID_00000146488091936430689030000004200093047921516163_" gradientUnits="userSpaceOnUse" x1="5" y1="255" x2="505" y2="255" gradientTransform="matrix(1 0 0 1 -1643.1168 -576.1099)">
				<stop  offset="5.586592e-03" style="stop-color:#001B5D"/>
				<stop  offset="0.9916" style="stop-color:#002B6B"/>
			</linearGradient>
			<path style="fill:url(#SVGID_00000146488091936430689030000004200093047921516163_);" d="M-1615.41-470.54h-16.2
				c-3.52,0-6.51-3.05-6.51-6.63c0-3.59,2.99-6.63,6.51-6.63h16.2c3.52,0,6.51,3.05,6.51,6.63
				C-1608.89-473.58-1611.71-470.54-1615.41-470.54z"/>
		</g>
		<g>
			
				<linearGradient id="SVGID_00000163764371938966548860000008568097593062640283_" gradientUnits="userSpaceOnUse" x1="5" y1="255" x2="505" y2="255" gradientTransform="matrix(1 0 0 1 -1643.1168 -576.1099)">
				<stop  offset="5.586592e-03" style="stop-color:#001B5D"/>
				<stop  offset="0.9916" style="stop-color:#002B6B"/>
			</linearGradient>
			<path style="fill:url(#SVGID_00000163764371938966548860000008568097593062640283_);" d="M-1516.29-401.34h-58.8
				c-3.52,0-6.51-3.05-6.51-6.63v-20.08c0-3.59,2.99-6.63,6.51-6.63h58.8c3.52,0,6.51,3.05,6.51,6.63v20.08
				C-1509.77-404.38-1512.76-401.34-1516.29-401.34z M-1568.57-414.6h45.77v-6.81h-45.77V-414.6z"/>
		</g>
		<g>
			
				<linearGradient id="SVGID_00000072974301207057856960000002032640004792238498_" gradientUnits="userSpaceOnUse" x1="5" y1="255" x2="505" y2="255" gradientTransform="matrix(1 0 0 1 -1643.1168 -576.1099)">
				<stop  offset="5.586592e-03" style="stop-color:#001B5D"/>
				<stop  offset="0.9916" style="stop-color:#002B6B"/>
			</linearGradient>
			<path style="fill:url(#SVGID_00000072974301207057856960000002032640004792238498_);" d="M-1545.69-421.41
				c-3.52,0-6.51-3.05-6.51-6.63v-40.52c0-3.59,2.99-6.63,6.51-6.63c3.52,0,6.51,3.05,6.51,6.63v40.52
				C-1539.17-424.46-1542.17-421.41-1545.69-421.41z"/>
		</g>
		<g>
			
				<linearGradient id="SVGID_00000158709057092409168970000005042700304407911301_" gradientUnits="userSpaceOnUse" x1="5" y1="255" x2="505" y2="255" gradientTransform="matrix(1 0 0 1 -1643.1168 -576.1099)">
				<stop  offset="5.586592e-03" style="stop-color:#001B5D"/>
				<stop  offset="0.9916" style="stop-color:#002B6B"/>
			</linearGradient>
			<path style="fill:url(#SVGID_00000158709057092409168970000005042700304407911301_);" d="M-1545.69-461.93
				c-10.74,0-19.54-8.96-19.54-19.9s8.8-19.9,19.54-19.9c10.74,0,19.54,8.96,19.54,19.9S-1534.95-461.93-1545.69-461.93z
				 M-1545.69-488.82c-3.7,0-6.69,3.05-6.69,6.81c0,3.76,2.99,6.81,6.69,6.81c3.7,0,6.69-3.05,6.69-6.81
				C-1539-485.77-1541.99-488.82-1545.69-488.82z"/>
		</g>
		<g>
			
				<linearGradient id="SVGID_00000049924961807876118300000008258180695968783279_" gradientUnits="userSpaceOnUse" x1="5" y1="255" x2="505" y2="255" gradientTransform="matrix(1 0 0 1 -1643.1168 -576.1099)">
				<stop  offset="5.586592e-03" style="stop-color:#001B5D"/>
				<stop  offset="0.9916" style="stop-color:#002B6B"/>
			</linearGradient>
			<path style="fill:url(#SVGID_00000049924961807876118300000008258180695968783279_);" d="M-1309.42-229.77h-145.6
				c-8.63,0-15.67-7.17-15.67-15.96V-390.4c0-8.78,7.04-15.96,15.67-15.96h145.6c8.63,0,15.67,7.17,15.67,15.96v144.68
				C-1293.75-236.94-1300.79-229.77-1309.42-229.77z M-1455.02-393.09c-1.41,0-2.64,1.25-2.64,2.69v144.68
				c0,1.43,1.23,2.69,2.64,2.69h145.6c1.41,0,2.64-1.25,2.64-2.69V-390.4c0-1.43-1.23-2.69-2.64-2.69H-1455.02L-1455.02-393.09z"/>
		</g>
		<g>
			
				<linearGradient id="SVGID_00000139261232822653262810000017116369987605725079_" gradientUnits="userSpaceOnUse" x1="5" y1="255" x2="505" y2="255" gradientTransform="matrix(1 0 0 1 -1643.1168 -576.1099)">
				<stop  offset="5.586592e-03" style="stop-color:#001B5D"/>
				<stop  offset="0.9916" style="stop-color:#002B6B"/>
			</linearGradient>
			<path style="fill:url(#SVGID_00000139261232822653262810000017116369987605725079_);" d="M-1361-324.96
				c-2.11,0-4.05-0.9-5.28-2.69l-15.85-21.87l-15.85,21.87c-1.58,2.33-4.58,3.23-7.22,2.33c-2.64-0.9-4.4-3.41-4.4-6.27v-68.12
				c0-3.59,2.99-6.63,6.51-6.63h42.08c3.52,0,6.51,3.05,6.51,6.63v68.12c0,2.87-1.76,5.38-4.4,6.27
				C-1359.77-325.14-1360.48-324.96-1361-324.96z M-1396.74-393.09v41.41l9.33-12.91c1.23-1.61,3.17-2.69,5.28-2.69l0,0
				c2.11,0,4.05,1.08,5.28,2.69l9.33,12.91v-41.41H-1396.74z"/>
		</g>
		<g>
			
				<linearGradient id="SVGID_00000020392699640814417620000008197831686689353142_" gradientUnits="userSpaceOnUse" x1="5" y1="255" x2="505" y2="255" gradientTransform="matrix(1 0 0 1 -1643.1168 -576.1099)">
				<stop  offset="5.586592e-03" style="stop-color:#001B5D"/>
				<stop  offset="0.9916" style="stop-color:#002B6B"/>
			</linearGradient>
			<path style="fill:url(#SVGID_00000020392699640814417620000008197831686689353142_);" d="M-1383.01-102.12
				c-117.08,0-212.15-96.99-212.15-216.03c0-19.18,2.46-38.36,7.39-56.83c0.88-3.59,4.58-5.56,7.92-4.66
				c3.52,0.9,5.46,4.66,4.58,8.07c-4.58,17.39-7.04,35.32-7.04,53.42c0,111.87,89.44,202.94,199.3,202.94
				c21.13,0,41.9-3.41,61.8-10.04c3.35-1.08,7.04,0.72,8.1,4.3c1.06,3.41-0.7,7.17-4.23,8.25
				C-1338.47-105.71-1360.65-102.12-1383.01-102.12z M-1183.36-261.5c-0.53,0-1.06,0-1.58-0.18c-3.52-0.9-5.63-4.48-4.75-8.07
				c3.87-15.78,5.81-32.09,5.81-48.4c0-111.87-89.44-202.94-199.3-202.94c-16.02,0-32.04,1.97-47.54,5.92
				c-3.52,0.9-7.04-1.25-7.92-4.84c-0.88-3.59,1.23-7.17,4.75-8.07c16.55-4.12,33.63-6.27,50.7-6.27
				c117.08,0,212.15,96.99,212.15,216.03c0,17.39-2.11,34.78-6.16,51.63C-1177.73-263.65-1180.37-261.5-1183.36-261.5z"/>
		</g>
		<g>
			
				<linearGradient id="SVGID_00000080890907855207270630000015250521201520766128_" gradientUnits="userSpaceOnUse" x1="5" y1="255" x2="505" y2="255" gradientTransform="matrix(1 0 0 1 -1643.1168 -576.1099)">
				<stop  offset="5.586592e-03" style="stop-color:#001B5D"/>
				<stop  offset="0.9916" style="stop-color:#002B6B"/>
			</linearGradient>
			<path style="fill:url(#SVGID_00000080890907855207270630000015250521201520766128_);" d="M-1183.36-261.5
				c-0.53,0-1.06,0-1.76-0.18c-2.29-0.54-4.05-2.33-4.58-4.66l-12.32-46.79c-0.88-3.59,1.06-7.17,4.58-8.07
				c3.52-0.9,7.04,1.08,7.92,4.66l9.33,35.68l25.7-26.17c2.46-2.51,6.69-2.51,9.15,0c2.46,2.51,2.46,6.81,0,9.32l-33.63,34.24
				C-1180.02-262.22-1181.6-261.5-1183.36-261.5z"/>
		</g>
		<g>
			
				<linearGradient id="SVGID_00000029032720724868621560000003086942923522100659_" gradientUnits="userSpaceOnUse" x1="5" y1="255" x2="505" y2="255" gradientTransform="matrix(1 0 0 1 -1643.1168 -576.1099)">
				<stop  offset="5.586592e-03" style="stop-color:#001B5D"/>
				<stop  offset="0.9916" style="stop-color:#002B6B"/>
			</linearGradient>
			<path style="fill:url(#SVGID_00000029032720724868621560000003086942923522100659_);" d="M-1569.28-319.94
				c-2.82,0-5.46-1.97-6.34-4.84l-9.33-35.68l-25.7,26.17c-2.46,2.51-6.69,2.51-9.15,0c-2.46-2.51-2.46-6.81,0-9.32l33.63-34.24
				c1.58-1.61,4.05-2.33,6.34-1.79c2.29,0.54,4.05,2.33,4.58,4.66l12.32,46.79c0.88,3.59-1.06,7.17-4.58,8.07
				C-1568.05-319.94-1568.75-319.94-1569.28-319.94z"/>
		</g>
	</g>
</g>
<g>
	
		<linearGradient id="SVGID_00000127026676189806128780000005957623391661458581_" gradientUnits="userSpaceOnUse" x1="-1638.1168" y1="-1069.9724" x2="-1138.1168" y2="-1069.9724">
		<stop  offset="5.586592e-03" style="stop-color:#001B5D"/>
		<stop  offset="0.9916" style="stop-color:#002B6B"/>
	</linearGradient>
	<path style="fill-rule:evenodd;clip-rule:evenodd;fill:url(#SVGID_00000127026676189806128780000005957623391661458581_);" d="
		M-1388.12-1320.05c138.05,0,250,111.95,250,250c0,138.2-111.95,250.15-250,250.15c-138.05,0-250-111.95-250-250.15
		C-1638.12-1208.1-1526.17-1320.05-1388.12-1320.05L-1388.12-1320.05z"/>
	<path class="st37" d="M-1388.41-1308.74c61.92,0,118.33,23.5,160.67,62.07l-8.85,3.48l-4.79,5.08l1.16,5.95l5.8,0.87l3.48,8.7
		l10.01-4.06l1.59,11.75h-2.9l-8.27-1.16l-9.13,1.45l-8.85,12.47l-12.61,2.03l-1.74,10.73l5.37,1.31l-1.59,6.96l-12.47-2.61
		l-11.6,2.61l-2.32,6.38l1.88,13.34l6.82,3.19l11.31-0.14l7.54-0.58l2.47-6.09l11.89-15.52l7.83,1.59l7.69-6.96l1.45,5.37
		l18.99,12.9l-2.32,3.19l-8.56-0.58l3.34,4.79l5.22,1.16l6.23-2.61l-0.14-7.54l2.76-1.3l-2.18-2.32l-12.76-7.1l-3.34-9.43h10.59
		l3.34,3.34l9.14,7.83l0.44,9.43l9.42,10.15l3.48-13.78l6.52-3.62l1.16,11.31l6.38,6.96h2.61c2.61,6.67,5.08,13.49,7.1,20.3h-11.17
		l-11.89-8.7l-12.47,1.16v7.54h-3.92l-4.21-3.05l-21.75-5.37v-14.06l-27.26,2.17l-8.55,4.5h-10.88l-5.22-0.43l-13.2,7.25v13.78
		l-26.97,19.43l2.18,8.27h5.51l-1.45,7.97l-3.77,1.45l-0.29,20.59l23.35,26.54h10.15l0.58-1.6h18.27l5.22-4.93h10.3l5.8,5.8
		l15.37,1.6l-2.03,20.44l17.11,30.16l-9.14,17.25l0.72,8.12l7.11,6.96v19.58l9.28,12.47v12.32
		c-43.79,54.38-110.79,89.04-186.05,89.04c-123.55,0-225.2-93.97-237.53-214.33l0,0c-0.15-1.88-0.29-3.77-0.43-5.65v-0.15
		c-0.58-6.09-0.72-12.33-0.72-18.71v-1.45v-2.75l0.15-3.48l0.14-3.48v-2.03c0.15-1.59,0.15-3.05,0.29-4.5l0.15-1.16
		c2.03-26.68,8.56-52.06,18.71-75.7v13.05l10.15,4.93v19.29l9.71,16.53l7.83,1.16l1.01-5.66l-9.28-14.36l-1.88-13.92h5.51
		l2.32,14.35l13.49,19.58l-3.48,6.38l8.56,13.05l21.32,5.37v-3.48l8.41,1.3l-0.72,6.09l6.67,1.16l10.3,2.9l14.65,16.53l18.56,1.45
		l1.89,15.22l-12.76,8.85l-0.58,13.63l-1.88,8.26l18.41,23.06l1.45,7.98c0,0,6.67,1.74,7.54,1.74c0.72,0,14.94,10.88,14.94,10.88
		v41.62l5.08,1.45l-3.48,19.29l8.56,11.31l-1.6,19.14l11.31,19.72l14.36,12.61l14.5,0.15l1.45-4.64l-10.73-8.99l0.72-4.35l1.88-5.51
		l0.44-5.51l-7.25-0.29l-3.63-4.5l5.95-5.8l0.87-4.35l-6.67-1.88l0.29-4.06l9.57-1.45l14.5-6.96l4.79-8.99l15.23-19.43l-3.48-15.23
		l4.79-7.97l13.92,0.29l9.42-7.39l3.05-29.3l10.44-13.34l1.74-8.41l-9.43-3.04l-6.38-10.44l-21.46-0.15l-16.97-6.52l-0.87-12.19
		l-5.66-9.86l-15.37-0.29l-8.85-13.92l-7.97-3.77l-0.43,4.21l-14.36,0.87l-5.22-7.4l-15.08-3.04l-12.32,14.36l-19.43-3.34
		l-1.45-21.9l-14.21-2.47l5.8-10.73l-1.74-6.23l-18.56,12.47l-11.75-1.31l-4.21-9.28l2.61-9.43l6.38-11.89l14.94-7.54h28.71v8.7
		l10.3,4.79l-0.87-14.94l7.54-7.54l14.94-9.86l1.16-6.96l14.94-15.52l15.95-8.85l-1.45-1.16l10.88-10.15l3.92,1.01l1.74,2.32
		l4.21-4.5l1.01-0.58l-4.49-0.58l-4.64-1.45v-4.5l2.46-1.88l5.37-0.15l2.32,1.16l2.17,4.21l2.61-0.29v-0.43l0.73,0.29l7.39-1.16
		l1.16-3.77l4.21,1.16v3.92l-3.92,2.76l0,0l0.58,4.35l13.49,4.21c0,0,0,0,0,0.15l3.19-0.29l0.15-5.8l-10.73-4.93l-0.58-2.9l8.85-2.9
		l0.43-8.56l-9.28-5.66l-0.58-14.35l-12.76,6.23h-4.64l1.16-11.02l-17.4-4.06l-7.1,5.37v16.68l-12.91,4.06l-5.22,10.73l-5.66,1.01
		v-13.92l-12.03-1.6l-6.09-4.06l-2.47-8.84l21.75-12.76l10.59-3.19l1.02,7.1l5.95-0.29l0.43-3.62l6.23-0.87l0.14-1.3l-2.75-1.01
		l-0.58-3.77l7.69-0.72l4.64-4.79l0.14-0.29h0.15l1.3-1.45l16.1-2.03l6.96,5.95l-18.56,10l23.64,5.51l3.05-7.83h10.3l3.77-6.96
		l-7.39-1.74v-8.7l-22.77-10.15l-15.81,1.74l-8.99,4.64l0.58,11.46l-9.28-1.45l-1.45-6.23l8.99-8.12l-16.24-0.87l-4.64,1.45
		l-2.03,5.37l6.09,1.16l-1.3,5.94l-10.3,0.72l-1.6,4.06l-14.93,0.29c0,0-0.43-8.41-1.01-8.41c-0.58,0,11.75-0.29,11.75-0.29
		l8.84-8.7l-4.79-2.46l-6.52,6.38l-10.73-0.58l-6.53-8.99h-13.78l-14.35,10.73h13.19l1.16,3.92l-3.33,3.19l14.5,0.43l2.32,5.22
		l-16.53-0.58l-0.72-4.06l-10.3-2.18l-5.51-3.04h-8.85C-1484.84-1293.36-1438.43-1308.74-1388.41-1308.74L-1388.41-1308.74z"/>
</g>
<g>
	
		<linearGradient id="SVGID_00000141454541194814269310000009072035486812936614_" gradientUnits="userSpaceOnUse" x1="-1529.8575" y1="-1794.3181" x2="-1162.4026" y2="-1794.3181">
		<stop  offset="5.586592e-03" style="stop-color:#011B5D"/>
		<stop  offset="0.9916" style="stop-color:#012B6B"/>
	</linearGradient>
	<path style="fill:url(#SVGID_00000141454541194814269310000009072035486812936614_);" d="M-1169.09-1815.13
		c5.15-4.8,7.5-10.89,6.43-16.75c-1.08-5.86-5.41-10.55-11.88-12.88l-30.53-10.97c-2.35-0.83-4.19-2.58-5.2-4.9
		c-1-2.32-1.06-4.95-0.16-7.43l11.77-32.17c2.35-6.41,2.03-12.49-0.91-17.11c-3.33-5.26-9.15-7.73-16.72-6.41l-31.79,5.53
		c-5.09,0.88-9.52-2.85-10.08-8.25l-3.5-34.37c-1.14-11.34-8.2-16.42-14.68-16.42c-3.7,0-7.53,1.52-11.11,4.41l-25.73,20.76
		c-3.99,3.21-9.73,2.15-12.48-2.27l-17.97-28.7c-3.6-5.74-8.47-8.9-13.71-8.9c-5.98,0-11.2,4.06-14.34,11.16l-13.82,31.23
		c-2.12,4.8-7.63,6.78-12.03,4.23l-28.33-16.45c-7.22-4.2-14.83-3.42-19.46,1.76c-2.15,2.41-4.66,6.81-4.39,14.23l1.28,34.54
		c0.1,2.63-0.76,5.08-2.39,6.92c-1.63,1.82-3.89,2.84-6.46,2.84l-32.52-0.43c-6.69,0-12.1,2.93-14.85,8.04
		c-2.76,5.14-2.41,11.7,0.99,18.02l16.08,29.96c1.23,2.3,1.54,4.91,0.87,7.37c-0.68,2.45-2.27,4.47-4.47,5.68l-28.69,15.69
		c-6.08,3.33-9.72,8.67-9.97,14.63c-0.27,5.95,2.89,11.63,8.65,15.54l27.21,18.5c2.09,1.42,3.49,3.59,3.96,6.09
		c0.45,2.51-0.07,5.09-1.5,7.26l-18.62,28.21c-3.94,5.99-4.85,12.52-2.51,17.93c2.35,5.41,7.6,8.85,14.4,9.43l32.09,2.81
		c2.46,0.21,4.65,1.42,6.14,3.42c1.5,1.99,2.14,4.53,1.81,7.17l-4.27,34.26c-0.74,6.04,0.51,11.4,3.54,15.13
		c4.27,5.23,11.5,6.54,18.84,3.18l29.62-13.54c4.62-2.11,9.92,0.4,11.62,5.41l11.03,32.48c2.69,7.89,8.13,12.61,14.57,12.61
		c4.78,0,9.45-2.7,13.16-7.57l20.38-26.78c1.69-2.24,4.16-3.51,6.74-3.51c1.51,0,3.77,0.43,5.89,2.5l23.84,23.25
		c3.73,3.63,7.88,5.56,12.01,5.56c5.72,0,12.61-3.93,14.71-14.94l6.45-33.88c1.01-5.24,5.82-8.56,10.75-7.19l31.16,8.68
		c1.9,0.52,3.78,0.79,5.56,0.79c5.04,0,9.32-2.14,12.05-6.04c2.99-4.28,3.69-10.12,1.98-16.42l-8.94-33.22
		c-0.69-2.54-0.4-5.15,0.81-7.36c1.21-2.21,3.2-3.77,5.61-4.36l31.35-7.87c6.66-1.67,11.37-5.9,12.95-11.63
		c1.58-5.72-0.23-12.03-4.95-17.32l-22.29-24.95c-1.72-1.91-2.59-4.38-2.48-6.93c0.11-2.56,1.2-4.92,3.06-6.65L-1169.09-1815.13z
		 M-1203.91-1768.75l22.31,24.94c1.48,1.68,1.72,2.8,1.71,2.96c-0.09,0.18-0.85,1-2.95,1.52l-31.36,7.88
		c-6.09,1.52-11.17,5.51-14.29,11.24c-3.13,5.73-3.88,12.43-2.14,18.89l8.94,33.22c0.6,2.22,0.32,3.33,0.25,3.47
		c-0.14,0.1-1.61,0.34-3.29-0.12l-31.15-8.68c-1.89-0.52-3.83-0.79-5.75-0.79c-10.7,0-19.67,7.92-21.83,19.26l-6.45,33.88
		c-0.44,2.27-1.18,3.11-1.33,3.21c-0.38,0-1.41-0.37-2.82-1.76l-23.85-23.25c-4.17-4.06-9.52-6.31-15.07-6.31
		c-6.71,0-13.03,3.24-17.33,8.91l-20.38,26.78c-1.31,1.73-2.29,2.14-2.54,2.17c-0.22-0.1-1.03-0.85-1.74-2.96l-11.04-32.47
		c-3.28-9.62-11.5-15.85-20.94-15.85c-3.06,0-6.03,0.67-8.88,1.97l-29.62,13.52c-1.37,0.63-2.26,0.73-2.68,0.73l-0.51-0.06
		c-0.14-0.18-0.56-1.22-0.28-3.5l4.27-34.26c0.83-6.66-0.84-13.18-4.71-18.35c-3.87-5.16-9.45-8.31-15.68-8.84l-32.09-2.8
		c-2.16-0.19-3.02-0.88-3.13-1c-0.04-0.2,0.03-1.34,1.27-3.24l18.63-28.21c3.61-5.5,4.94-12.11,3.74-18.6
		c-1.19-6.5-4.77-12.06-10.06-15.64l-27.2-18.52c-1.83-1.23-2.29-2.26-2.32-2.42c0.05-0.19,0.61-1.18,2.53-2.22l28.68-15.71
		c5.58-3.05,9.62-8.23,11.38-14.58c1.75-6.37,0.99-13.06-2.13-18.89l-16.08-29.96c-1.08-2.02-1.05-3.15-1.01-3.32
		c0.12-0.15,0.99-0.72,3.19-0.72h0l32.47,0.43c6.21,0,11.96-2.62,16.19-7.35c4.24-4.75,6.44-11.03,6.19-17.68l-1.28-34.55
		c-0.08-2.33,0.44-3.33,0.85-3.48c0.34,0,1.29,0.11,2.84,1l28.33,16.44c3.31,1.93,7.03,2.94,10.73,2.94
		c8.68,0,16.41-5.29,20.15-13.77l13.83-31.25c0.93-2.09,1.83-2.72,1.97-2.76c0.2,0.02,1.17,0.49,2.38,2.42l17.96,28.7
		c4.21,6.7,11.13,10.68,18.55,10.68c4.87,0,9.53-1.67,13.49-4.87l25.74-20.76c1.72-1.39,2.72-1.46,2.94-1.48
		c0.15,0.12,0.81,1.03,1.04,3.33l3.5,34.38c1.38,13.54,12.94,23.4,25.86,21.14l31.79-5.53c1.77-0.31,3.13,0.09,3.23,0.16
		c0.09,0.2,0.28,1.33-0.5,3.48l-11.78,32.17c-2.29,6.25-2.13,13,0.48,19.01c2.61,6.02,7.31,10.5,13.26,12.64l30.54,10.97
		c2.04,0.73,2.73,1.61,2.79,1.75c0,0.21-0.33,1.32-1.96,2.82l-24.35,22.63c-4.74,4.39-7.5,10.45-7.79,17.06
		C-1210.47-1779.93-1208.25-1773.62-1203.91-1768.75z"/>
	
		<linearGradient id="SVGID_00000098920593563673601150000002634132263404648628_" gradientUnits="userSpaceOnUse" x1="-1259.5242" y1="-1588.2261" x2="-1097.7273" y2="-1588.2261">
		<stop  offset="5.586592e-03" style="stop-color:#011B5D"/>
		<stop  offset="0.9916" style="stop-color:#012B6B"/>
	</linearGradient>
	<path style="fill:url(#SVGID_00000098920593563673601150000002634132263404648628_);" d="M-1203.65-1633.78l-31.16-8.69
		c-8.72-2.44-17.35,3.35-19.15,12.84l-5.55,29.11l91.15,108.55l7.23-66.15l63.42-2.29l-104.16-124.07c-0.03,1.63,0.17,3.3,0.61,4.97
		l8.95,33.22C-1189.82-1636.98-1194.92-1631.36-1203.65-1633.78z"/>
	
		<linearGradient id="SVGID_00000111153939560828655180000002378852410127041171_" gradientUnits="userSpaceOnUse" x1="-1597.7273" y1="-1588.2318" x2="-1408.6627" y2="-1588.2318">
		<stop  offset="5.586592e-03" style="stop-color:#011B5D"/>
		<stop  offset="0.9916" style="stop-color:#012B6B"/>
	</linearGradient>
	<path style="fill:url(#SVGID_00000111153939560828655180000002378852410127041171_);" d="M-1468.16-1660.54
		c1.2-9.59-5.18-18.09-14.18-18.87l-4.62-0.42l-110.77,107.32l61.59,7.75l2.11,68.12l125.37-121.42l-0.51-1.53
		c-3.09-9.1-12.41-13.45-20.72-9.65l-29.64,13.54c-8.29,3.8-14.1-0.96-12.9-10.55L-1468.16-1660.54z"/>
	
		<linearGradient id="SVGID_00000122718966635488775600000012067915961741482113_" gradientUnits="userSpaceOnUse" x1="-1297.4261" y1="-1820.7065" x2="-1238.151" y2="-1820.7065">
		<stop  offset="5.586592e-03" style="stop-color:#011B5D"/>
		<stop  offset="0.9916" style="stop-color:#012B6B"/>
	</linearGradient>
	<path style="fill:url(#SVGID_00000122718966635488775600000012067915961741482113_);" d="M-1297.43-1820.71
		c0,17.57,13.27,31.83,29.64,31.83c16.37,0,29.64-14.26,29.64-31.83c0-17.59-13.27-31.83-29.64-31.83
		C-1284.15-1852.53-1297.43-1838.29-1297.43-1820.71z"/>
	
		<linearGradient id="SVGID_00000002356817351897995960000007963841860387628984_" gradientUnits="userSpaceOnUse" x1="-1302.062" y1="-1763.6506" x2="-1222.7762" y2="-1763.6506">
		<stop  offset="5.586592e-03" style="stop-color:#011B5D"/>
		<stop  offset="0.9916" style="stop-color:#012B6B"/>
	</linearGradient>
	<path style="fill:url(#SVGID_00000002356817351897995960000007963841860387628984_);" d="M-1284.94-1785.88
		c-6.46,0-12.4,2.39-17.12,6.35c11.94,7.95,19.98,22.01,20.27,38.1h59.02v-14.52c0-16.53-12.47-29.93-27.85-29.93H-1284.94z
		 M-1256.75-1746.56h-4.11l-3.43-24.24h-0.12l3.36-6.65h-13.47l3.36,6.65h-0.12l-3.43,24.24h-4.12l-6.39-36.04l1.89-0.1h31.07
		c0.64,0,1.27,0.04,1.9,0.1L-1256.75-1746.56z"/>
	
		<linearGradient id="SVGID_00000065789319488786180310000000453814972597401276_" gradientUnits="userSpaceOnUse" x1="-1457.3076" y1="-1820.7065" x2="-1398.0369" y2="-1820.7065">
		<stop  offset="5.586592e-03" style="stop-color:#011B5D"/>
		<stop  offset="0.9916" style="stop-color:#012B6B"/>
	</linearGradient>
	<path style="fill:url(#SVGID_00000065789319488786180310000000453814972597401276_);" d="M-1457.31-1820.71
		c0,17.57,13.27,31.83,29.63,31.83c16.38,0,29.64-14.26,29.64-31.83c0-17.59-13.27-31.83-29.64-31.83
		C-1444.04-1852.53-1457.31-1838.29-1457.31-1820.71z"/>
	
		<linearGradient id="SVGID_00000013891399583215120700000001945343818946067887_" gradientUnits="userSpaceOnUse" x1="-1472.6869" y1="-1763.6506" x2="-1393.3445" y2="-1763.6506">
		<stop  offset="5.586592e-03" style="stop-color:#011B5D"/>
		<stop  offset="0.9916" style="stop-color:#012B6B"/>
	</linearGradient>
	<path style="fill:url(#SVGID_00000013891399583215120700000001945343818946067887_);" d="M-1472.69-1755.95v14.52h59.13
		c0.3-16.08,8.3-30.11,20.22-38.06c-4.74-3.99-10.7-6.4-17.18-6.4h-34.31C-1460.22-1785.88-1472.69-1772.47-1472.69-1755.95z
		 M-1412.14-1782.71l1.89,0.1l-6.39,36.04h-4.12l-3.44-24.24h-0.12l3.37-6.65h-13.49l3.38,6.65h-0.13l-3.43,24.24h-4.1l-6.4-36.04
		l1.89-0.1H-1412.14z"/>
	
		<linearGradient id="SVGID_00000080195146068126200910000010768362483307179138_" gradientUnits="userSpaceOnUse" x1="-1388.1168" y1="-1829.8217" x2="-1307.3552" y2="-1829.8217">
		<stop  offset="5.586592e-03" style="stop-color:#011B5D"/>
		<stop  offset="0.9916" style="stop-color:#012B6B"/>
	</linearGradient>
	<path style="fill:url(#SVGID_00000080195146068126200910000010768362483307179138_);" d="M-1388.12-1829.82
		c0,23.97,18.08,43.38,40.38,43.38c22.31,0,40.38-19.41,40.38-43.38c0-23.95-18.06-43.38-40.38-43.38
		C-1370.04-1873.2-1388.12-1853.77-1388.12-1829.82z"/>
	
		<linearGradient id="SVGID_00000178198520951937378820000006152433648982886328_" gradientUnits="userSpaceOnUse" x1="-1409.0634" y1="-1752.0679" x2="-1286.3867" y2="-1752.0679">
		<stop  offset="5.586592e-03" style="stop-color:#011B5D"/>
		<stop  offset="0.9916" style="stop-color:#012B6B"/>
	</linearGradient>
	<path style="fill:url(#SVGID_00000178198520951937378820000006152433648982886328_);" d="M-1371.11-1782.35
		c-20.96,0-37.95,18.26-37.95,40.77v19.78h122.68v-19.78c0-22.52-17-40.77-37.96-40.77H-1371.11z M-1332.69-1728.78h-5.61h-18.87
		l4.67-33.02l-4.68,33.02h-5.61l-8.7-49.12c0.84-0.08,1.71-0.15,2.57-0.15h42.34c0.88,0,1.74,0.07,2.59,0.15L-1332.69-1728.78z"/>
	
		<linearGradient id="SVGID_00000040547060218052742730000018179578977436988802_" gradientUnits="userSpaceOnUse" x1="-1357.1577" y1="-1749.8269" x2="-1338.2919" y2="-1749.8269">
		<stop  offset="5.586592e-03" style="stop-color:#011B5D"/>
		<stop  offset="0.9916" style="stop-color:#012B6B"/>
	</linearGradient>
	<polygon style="fill:url(#SVGID_00000040547060218052742730000018179578977436988802_);" points="-1357.16,-1728.78 
		-1338.29,-1728.78 -1342.97,-1761.8 -1343.14,-1761.8 -1338.54,-1770.87 -1356.91,-1770.87 -1352.33,-1761.8 -1352.49,-1761.8 	"/>
</g>
<g>
	<g>
		
			<linearGradient id="SVGID_00000147939704905963266570000002002676346071078076_" gradientUnits="userSpaceOnUse" x1="-2469.7673" y1="-929.5962" x2="-2173.6594" y2="-929.5962">
			<stop  offset="5.586592e-03" style="stop-color:#001B5D"/>
			<stop  offset="0.9916" style="stop-color:#002B6B"/>
		</linearGradient>
		<path style="fill:url(#SVGID_00000147939704905963266570000002002676346071078076_);" d="M-2300.39-781.54h-42.79
			c-11.89,0-21.39-9.66-21.39-21.39v-23.18l-16.34,16.34c-4.01,4.01-9.36,6.24-15.15,6.24s-11.14-2.23-15.15-6.24l-30.31-30.31
			c-4.01-4.01-6.24-9.36-6.24-15.15c0-5.79,2.23-11.14,6.24-15.15l16.34-16.34h-23.18c-11.89,0-21.39-9.66-21.39-21.39v-42.94
			c0-11.89,9.66-21.39,21.39-21.39h23.18l-16.34-16.34c-4.01-4.01-6.24-9.36-6.24-15.15s2.23-11.14,6.24-15.15l30.31-30.31
			c4.01-4.01,9.36-6.24,15.15-6.24s11.14,2.23,15.15,6.24l16.34,16.34v-23.18c0-11.89,9.66-21.39,21.39-21.39h42.94
			c11.89,0,21.39,9.66,21.39,21.39v23.18l16.34-16.34c8.32-8.32,21.99-8.32,30.31,0l30.31,30.31c4.01,4.01,6.24,9.36,6.24,15.15
			s-2.23,11.14-6.24,15.15l-16.34,16.34h23.18c11.89,0,21.39,9.66,21.39,21.39v42.79c0,11.89-9.66,21.39-21.39,21.39h-23.18
			l16.34,16.34c8.32,8.32,8.32,21.99,0,30.31l-30.31,30.31c-4.01,4.01-9.36,6.24-15.15,6.24s-11.14-2.23-15.15-6.24l-16.34-16.34
			v23.18C-2278.85-791.05-2288.51-781.54-2300.39-781.54z M-2363.39-845.87c1.04,0,2.08,0.3,3.12,0.74
			c1.93,0.89,3.86,1.63,5.79,2.38c2.97,1.04,4.9,4.01,4.9,7.13v32.69c0,3.42,2.82,6.24,6.24,6.24h42.94c3.42,0,6.24-2.82,6.24-6.24
			v-32.69c0-3.12,1.93-5.94,4.9-7.13c1.93-0.74,4.01-1.49,5.79-2.38c2.82-1.34,6.24-0.74,8.47,1.49l23.18,23.18
			c1.19,1.19,2.67,1.78,4.46,1.78s3.27-0.59,4.46-1.78l30.31-30.31c2.38-2.38,2.38-6.39,0-8.77l-23.18-23.18
			c-2.23-2.23-2.82-5.65-1.49-8.47c0.89-1.93,1.63-3.86,2.38-5.79c1.19-2.97,4.01-4.9,7.13-4.9h32.69c3.42,0,6.24-2.82,6.24-6.24
			v-42.94c0-3.42-2.82-6.24-6.24-6.24h-32.69c-3.12,0-5.94-1.93-7.13-4.9c-0.74-1.93-1.49-4.01-2.38-5.79
			c-1.34-2.82-0.74-6.24,1.49-8.47l23.18-23.18c1.19-1.19,1.78-2.67,1.78-4.46c0-1.63-0.59-3.27-1.78-4.46l-30.31-30.31
			c-2.38-2.38-6.39-2.38-8.77,0l-23.18,23.03c-2.23,2.23-5.65,2.82-8.47,1.49c-1.93-0.89-3.86-1.63-5.79-2.38
			c-2.97-1.19-4.9-4.01-4.9-7.13v-32.69c0-3.42-2.82-6.24-6.24-6.24h-42.94c-3.42,0-6.24,2.82-6.24,6.24v32.69
			c0,3.12-1.93,5.94-4.9,7.13c-1.93,0.74-4.01,1.49-5.79,2.38c-2.82,1.34-6.24,0.74-8.47-1.49l-23.18-23.18
			c-1.19-1.19-2.67-1.78-4.46-1.78c-1.63,0-3.27,0.59-4.46,1.78l-30.31,30.31c-1.19,1.19-1.78,2.67-1.78,4.46
			c0,1.63,0.59,3.27,1.78,4.46l23.18,23.18c2.23,2.23,2.82,5.65,1.49,8.47c-0.89,1.93-1.63,3.86-2.38,5.79
			c-1.04,2.97-4.01,4.9-7.13,4.9h-32.69c-3.42,0-6.24,2.82-6.24,6.24v42.94c0,3.42,2.82,6.24,6.24,6.24h32.69
			c3.12,0,5.94,1.93,7.13,4.9c0.74,1.93,1.49,3.86,2.38,5.79c1.34,2.82,0.74,6.24-1.49,8.47l-23.18,23.18
			c-1.19,1.19-1.78,2.67-1.78,4.46c0,1.63,0.59,3.27,1.78,4.46l30.31,30.31c1.19,1.19,2.67,1.78,4.46,1.78
			c1.63,0,3.27-0.59,4.46-1.78l23.18-23.18C-2367.25-845.13-2365.32-845.87-2363.39-845.87z"/>
	</g>
	<g>
		
			<linearGradient id="SVGID_00000068638683453842477880000014544980469731895984_" gradientUnits="userSpaceOnUse" x1="-2392.8062" y1="-929.6705" x2="-2250.7693" y2="-929.6705">
			<stop  offset="5.586592e-03" style="stop-color:#001B5D"/>
			<stop  offset="0.9916" style="stop-color:#002B6B"/>
		</linearGradient>
		<path style="fill:url(#SVGID_00000068638683453842477880000014544980469731895984_);" d="M-2321.79-858.65
			c-39.22,0-71.02-31.94-71.02-71.02s31.94-71.02,71.02-71.02s71.02,31.94,71.02,71.02S-2282.56-858.65-2321.79-858.65z
			 M-2321.79-985.53c-30.75,0-55.86,25.11-55.86,55.86c0,30.75,25.11,55.86,55.86,55.86s55.86-25.11,55.86-55.86
			C-2265.92-960.43-2291.03-985.53-2321.79-985.53z"/>
	</g>
	<g>
		
			<linearGradient id="SVGID_00000160907540908966659460000015006366903226526361_" gradientUnits="userSpaceOnUse" x1="-2439.9153" y1="-1154.5374" x2="-2295.5891" y2="-1154.5374">
			<stop  offset="5.586592e-03" style="stop-color:#001B5D"/>
			<stop  offset="0.9916" style="stop-color:#002B6B"/>
		</linearGradient>
		<path style="fill:url(#SVGID_00000160907540908966659460000015006366903226526361_);" d="M-2395.33-1040.66
			c-4.16,0-7.58-3.42-7.58-7.58v-108.01h-29.42c-2.82,0-5.35-1.49-6.69-4.01s-1.19-5.5,0.45-7.87l64.48-96.87
			c1.34-2.08,3.71-3.42,6.39-3.42s4.9,1.34,6.39,3.42l64.48,96.87c1.49,2.38,1.63,5.35,0.45,7.87c-1.34,2.53-3.86,4.01-6.69,4.01
			h-29.57v85.88c0,4.16-3.42,7.58-7.58,7.58c-4.16,0-7.58-3.42-7.58-7.58v-93.6c0-4.16,3.42-7.58,7.58-7.58h22.88l-50.66-75.48
			l-50.22,75.48h22.88c4.16,0,7.58,3.42,7.58,7.58v115.59C-2387.61-1044.07-2391.02-1040.66-2395.33-1040.66z"/>
	</g>
	<g>
		
			<linearGradient id="SVGID_00000022543672249598285250000011551516817776165297_" gradientUnits="userSpaceOnUse" x1="-2322.3931" y1="-1118.3596" x2="-2178.0669" y2="-1118.3596">
			<stop  offset="5.586592e-03" style="stop-color:#001B5D"/>
			<stop  offset="0.9916" style="stop-color:#002B6B"/>
		</linearGradient>
		<path style="fill:url(#SVGID_00000022543672249598285250000011551516817776165297_);" d="M-2277.66-1016.29
			c-4.16,0-7.58-3.42-7.58-7.58v-84.39h-29.57c-2.82,0-5.35-1.49-6.69-4.01s-1.19-5.5,0.45-7.87l64.48-96.87
			c1.34-2.08,3.71-3.42,6.39-3.42s4.9,1.34,6.39,3.42l64.48,96.87c1.49,2.38,1.63,5.35,0.45,7.87c-1.34,2.53-3.86,4.01-6.69,4.01
			h-29.57v78.6c0,4.16-3.42,7.58-7.58,7.58s-7.58-3.42-7.58-7.58v-86.17c0-4.16,3.42-7.58,7.58-7.58h22.88l-50.22-75.48
			l-50.22,75.48h22.88c4.16,0,7.58,3.42,7.58,7.58v91.97C-2269.94-1019.71-2273.35-1016.29-2277.66-1016.29z"/>
	</g>
</g>
</svg>
